<svg width="15" height="15" viewBox="0 0 15 15" fill="none" xmlns="http://www.w3.org/2000/svg">
    <path d="M4.88479 4.63843C4.18604 5.33718 3.84479 6.30677 3.94771 7.29802C3.97479 7.54718 4.18063 7.73135 4.42438 7.73135C4.44063 7.73135 4.45688 7.73135 4.47313 7.73135C4.73854 7.70427 4.92813 7.47135 4.90104 7.20593C4.83063 6.49635 5.07438 5.80843 5.56729 5.32093C5.75688 5.13135 5.75688 4.82802 5.56729 4.64385C5.37771 4.45427 5.07438 4.45427 4.88479 4.63843Z" fill="#38B2AC" stroke="#38B2AC" stroke-width="0.3"/>
    <path fill-rule="evenodd" clip-rule="evenodd" d="M6.74563 0.930664C3.55202 0.930664 0.953125 3.52956 0.953125 6.72316C0.953125 9.91677 3.55202 12.5157 6.74563 12.5157C8.06373 12.5157 9.27798 12.0706 10.2497 11.3286L13.2231 14.302C13.3733 14.4522 13.575 14.5307 13.7765 14.5307C13.9828 14.5307 14.1746 14.4492 14.3239 14.3081L14.3329 14.2989C14.6284 13.9947 14.6334 13.5025 14.3231 13.1993L11.3511 10.2273C12.093 9.25552 12.5381 8.04127 12.5381 6.72316C12.5381 3.52956 9.93923 0.930664 6.74563 0.930664ZM2.51188 6.72316C2.51188 4.39177 4.40881 2.49483 6.74021 2.49483C9.07161 2.49483 10.9685 4.39177 10.9685 6.72316C10.9685 7.87001 10.5074 8.91286 9.76056 9.67535L9.75337 9.6808C9.74341 9.68859 9.73353 9.69725 9.72391 9.70687C9.7143 9.71648 9.70563 9.72636 9.69784 9.73633L9.69239 9.74351C8.92991 10.4904 7.88706 10.9515 6.74021 10.9515C4.41399 10.9515 2.51188 9.05433 2.51188 6.72316Z" fill="#689AFF"/>
</svg>
