<svg width="8" height="11" viewBox="0 0 8 11" fill="none" xmlns="http://www.w3.org/2000/svg">
<path fill-rule="evenodd" clip-rule="evenodd" d="M4.0281 0.599307C4.22997 0.583074 4.43827 0.639478 4.6106 0.773778L7.33503 2.89694C7.70036 3.18164 7.76572 3.7086 7.48102 4.07393C7.19631 4.43926 6.66936 4.50462 6.30403 4.21992L4.92162 3.1426V9.75804C4.92162 10.2212 4.54615 10.5967 4.08298 10.5967C3.61982 10.5967 3.24434 10.2212 3.24434 9.75804V3.14209L1.85663 4.21242C1.48988 4.49529 0.963258 4.42729 0.680386 4.06054C0.397514 3.69379 0.465511 3.16717 0.832262 2.8843L3.5708 0.772085C3.70532 0.668331 3.86496 0.610014 4.0281 0.599307Z" fill="#FCFF5A"/>
</svg>
