<svg width="22" height="20" viewBox="0 0 22 20" fill="none" xmlns="http://www.w3.org/2000/svg">
<path d="M6.07294 7.48111C5.79182 7.48111 5.56836 7.65596 5.56836 7.87593V12.1231C5.56836 12.3431 5.79182 12.5179 6.07294 12.5179C6.35406 12.5179 6.57752 12.3431 6.57752 12.1231V7.87593C6.57752 7.6616 6.35406 7.48111 6.07294 7.48111Z" fill="#718096" stroke="#718096" stroke-width="0.8"/>
<path d="M9.35419 5.95142C9.07307 5.95142 8.84961 6.23247 8.84961 6.58605V13.4129C8.84961 13.7665 9.07307 14.0476 9.35419 14.0476C9.63531 14.0476 9.85877 13.7665 9.85877 13.4129V6.58605C9.85877 6.24154 9.63531 5.95142 9.35419 5.95142Z" fill="#718096" stroke="#718096" stroke-width="0.8"/>
<path d="M15.9206 6.63266C15.6395 6.63266 15.416 6.86644 15.416 7.16056V12.8393C15.416 13.1334 15.6395 13.3672 15.9206 13.3672C16.2017 13.3672 16.4252 13.1334 16.4252 12.8393V7.16056C16.4252 6.87399 16.2017 6.63266 15.9206 6.63266Z" fill="#718096" stroke="#718096" stroke-width="0.8"/>
<path d="M12.6374 7.81067C12.3563 7.81067 12.1328 7.96258 12.1328 8.1537V11.8437C12.1328 12.0349 12.3563 12.1868 12.6374 12.1868C12.9185 12.1868 13.142 12.0349 13.142 11.8437V8.1537C13.142 7.96748 12.9185 7.81067 12.6374 7.81067Z" fill="#718096" stroke="#718096" stroke-width="0.8"/>
<path fill-rule="evenodd" clip-rule="evenodd" d="M16.3828 2.23892C16.3828 1.86733 16.6932 1.5661 17.0762 1.5661H18.6297C19.7785 1.5661 20.7097 2.46979 20.7097 3.58455V5.09204C20.7097 5.46362 20.3993 5.76485 20.0164 5.76485C19.6334 5.76485 19.323 5.46362 19.323 5.09204V3.58455C19.323 3.21297 19.0126 2.91174 18.6297 2.91174H17.0762C16.6932 2.91174 16.3828 2.61051 16.3828 2.23892Z" fill="#718096" stroke="#718096" stroke-width="0.6" stroke-linecap="round" stroke-linejoin="round"/>
<path fill-rule="evenodd" clip-rule="evenodd" d="M5.61719 2.23892C5.61719 1.86733 5.30676 1.5661 4.92383 1.5661H3.37034C2.22155 1.5661 1.29027 2.46979 1.29027 3.58455V5.09204C1.29027 5.46362 1.6007 5.76485 1.98363 5.76485C2.36655 5.76485 2.67698 5.46362 2.67698 5.09204V3.58455C2.67698 3.21297 2.98741 2.91174 3.37034 2.91174H4.92383C5.30676 2.91174 5.61719 2.61051 5.61719 2.23892Z" fill="#718096" stroke="#718096" stroke-width="0.6" stroke-linecap="round" stroke-linejoin="round"/>
<path fill-rule="evenodd" clip-rule="evenodd" d="M5.61719 17.7611C5.61719 18.1327 5.30676 18.4339 4.92383 18.4339H3.37034C2.22155 18.4339 1.29027 17.5302 1.29027 16.4154V14.908C1.29027 14.5364 1.6007 14.2351 1.98363 14.2351C2.36655 14.2351 2.67698 14.5364 2.67698 14.908V16.4154C2.67698 16.787 2.98741 17.0883 3.37034 17.0883H4.92383C5.30676 17.0883 5.61719 17.3895 5.61719 17.7611Z" fill="#718096" stroke="#718096" stroke-width="0.6" stroke-linecap="round" stroke-linejoin="round"/>
<path fill-rule="evenodd" clip-rule="evenodd" d="M16.3828 17.7611C16.3828 18.1327 16.6932 18.4339 17.0762 18.4339H18.6297C19.7785 18.4339 20.7097 17.5302 20.7097 16.4154V14.908C20.7097 14.5364 20.3993 14.2351 20.0164 14.2351C19.6334 14.2351 19.323 14.5364 19.323 14.908V16.4154C19.323 16.787 19.0126 17.0883 18.6297 17.0883H17.0762C16.6932 17.0883 16.3828 17.3895 16.3828 17.7611Z" fill="#718096" stroke="#718096" stroke-width="0.6" stroke-linecap="round" stroke-linejoin="round"/>
</svg>
