<svg width="19" height="23" viewBox="0 0 19 23" fill="none" xmlns="http://www.w3.org/2000/svg">
<path d="M5.72912 12.9807C4.63828 12.0189 3.16856 11.4984 1.71549 11.563C1.09929 11.59 0.401906 11.7816 0.139605 12.3395C-0.041508 12.7288 0.0459258 13.1992 0.247856 13.5781C0.722497 14.4816 1.79044 14.9896 2.80842 14.9333C3.8264 14.8751 4.77568 14.3109 5.43559 13.5344" fill="#ECEAE9"/>
<path d="M12.6602 12.9807C13.751 12.0189 15.2207 11.4984 16.6738 11.563C17.29 11.59 17.9874 11.7816 18.2497 12.3395C18.4308 12.7288 18.3433 13.1992 18.1414 13.5781C17.6668 14.4816 16.5988 14.9896 15.5809 14.9333C14.5629 14.8751 13.6136 14.3109 12.9537 13.5344" fill="#ECEAE9"/>
<path d="M3.58013 12.3601C2.72661 13.8985 2.04588 15.7971 2.25197 17.579C2.29569 17.9558 2.55591 18.3264 2.98059 18.3077C3.33865 18.291 3.75708 17.985 3.7092 17.579C3.52809 16.0136 4.09433 14.4314 4.83751 13.0949C5.02904 12.7514 4.92078 12.2997 4.57521 12.0978C4.24213 11.9042 3.77165 12.0145 3.58013 12.3601Z" fill="#3A0C93"/>
<path d="M13.3733 13.0955C14.1165 14.4319 14.6827 16.0141 14.5016 17.5796C14.4579 17.9605 14.868 18.3248 15.2302 18.3082C15.6632 18.2894 15.911 17.9876 15.9588 17.5796C16.1649 15.7955 15.4863 13.899 14.6307 12.3606C14.4391 12.0171 13.9687 11.9047 13.6335 12.0983C13.29 12.3023 13.1818 12.752 13.3733 13.0955Z" fill="#3A0C93"/>
<path d="M6.88344 1.46864C6.86679 1.8725 7.18114 2.21183 7.585 2.22848C7.98886 2.24514 8.32819 1.93079 8.34484 1.52693C8.36149 1.12307 8.04715 0.783746 7.64329 0.767091C7.23943 0.752519 6.9001 1.06478 6.88344 1.46864Z" fill="#3A0C93"/>
<path d="M9.94204 1.46864C9.92538 1.8725 10.2397 2.21183 10.6436 2.22848C11.0475 2.24514 11.3868 1.93079 11.4034 1.52693C11.4201 1.12307 11.1057 0.783746 10.7019 0.767091C10.298 0.752519 9.95869 1.06478 9.94204 1.46864Z" fill="#3A0C93"/>
<path d="M10.559 1.47266C10.0843 2.90699 9.5077 4.47247 9.22875 5.01997C8.92689 4.47871 8.28155 2.92156 7.74445 1.49139L7.29688 1.6621C8.76659 5.56539 9.04139 5.64241 9.22666 5.64241C9.23083 5.64241 9.23499 5.64241 9.23915 5.64241C9.42651 5.64033 9.68257 5.63825 11.0149 1.62254L10.559 1.47266Z" fill="#3A0C93"/>
<path d="M9.12915 20.5893C6.17722 20.5893 3.7832 18.112 3.7832 15.0581V8.88153C3.7832 5.82551 5.6776 3.75 8.62953 3.75H9.61628C12.5682 3.75 14.473 5.82759 14.473 8.88153V15.056C14.4751 18.112 12.0811 20.5893 9.12915 20.5893Z" fill="#FFB701"/>
<path d="M5.37109 9.44581V8.66516C5.37109 7.0393 6.68885 5.72363 8.31262 5.72363H9.94679C11.5726 5.72363 12.8883 7.04138 12.8883 8.66516V9.44581C12.8883 11.0717 11.5706 12.3873 9.94679 12.3873H8.31262C6.68885 12.3873 5.37109 11.0717 5.37109 9.44581Z" fill="white"/>
<path d="M11.6435 10.0036C11.9839 10.0036 12.2597 9.79949 12.2597 9.5477C12.2597 9.29591 11.9839 9.0918 11.6435 9.0918C11.3032 9.0918 11.0273 9.29591 11.0273 9.5477C11.0273 9.79949 11.3032 10.0036 11.6435 10.0036Z" fill="#FFB701"/>
<path d="M6.6162 10.0036C6.95652 10.0036 7.2324 9.79949 7.2324 9.5477C7.2324 9.29591 6.95652 9.0918 6.6162 9.0918C6.27588 9.0918 6 9.29591 6 9.5477C6 9.79949 6.27588 10.0036 6.6162 10.0036Z" fill="#FFB701"/>
<path d="M8.35127 8.51963C8.35127 8.72989 8.11187 8.9006 7.81626 8.9006C7.52065 8.9006 7.28125 8.72989 7.28125 8.51963C7.28125 8.30938 7.52065 8.13867 7.81626 8.13867C8.11187 8.13867 8.35127 8.30938 8.35127 8.51963Z" fill="#221F20"/>
<path d="M10.4276 8.9006C10.7231 8.9006 10.9626 8.73003 10.9626 8.51963C10.9626 8.30923 10.7231 8.13867 10.4276 8.13867C10.1321 8.13867 9.89258 8.30923 9.89258 8.51963C9.89258 8.73003 10.1321 8.9006 10.4276 8.9006Z" fill="#221F20"/>
<path d="M14.4927 15.0234L14.476 13.8076H3.77994L3.76953 15.04C3.76953 15.3856 3.81533 15.7395 3.8757 16.0684H14.3844C14.4406 15.7395 14.4927 15.3689 14.4927 15.0234Z" fill="#3A0C93"/>
<path d="M9.12955 20.5899C10.899 20.5899 12.5082 19.7301 13.4388 18.3291H4.82031C5.75918 19.726 7.36005 20.5899 9.12955 20.5899Z" fill="#3A0C93"/>
<path d="M10.4761 9.77476C10.3949 9.68316 10.2555 9.67483 10.1639 9.75602C9.88074 10.0079 9.51436 10.1474 9.13131 10.1474C8.74827 10.1474 8.3798 10.0079 8.09876 9.75602C8.00716 9.67483 7.86769 9.68316 7.7865 9.77476C7.70531 9.86635 7.71364 10.0058 7.80315 10.087C8.16746 10.4118 8.63794 10.5908 9.13131 10.5908C9.62469 10.5908 10.0952 10.4118 10.4595 10.087C10.549 10.0058 10.5573 9.86635 10.4761 9.77476Z" fill="#221F20"/>
<path d="M8.38292 21.3137C8.03319 20.6018 7.85416 19.8399 7.83334 19.0467C7.80836 18.0829 6.30533 18.0787 6.33239 19.0467C6.35529 19.8711 6.51559 20.658 6.80287 21.4158C6.7196 21.524 6.65923 21.6489 6.63633 21.7842C6.62384 21.8529 6.61135 21.932 6.61551 22.0049C6.61967 22.0798 6.628 22.1631 6.65298 22.236C6.71544 22.4171 6.81536 22.5586 6.97566 22.669C7.00688 22.6898 7.04227 22.7023 7.07558 22.7168C7.1422 22.746 7.16718 22.7522 7.24004 22.7606C7.34829 22.7751 7.44613 22.771 7.55438 22.7439C7.62724 22.7273 7.69594 22.694 7.76256 22.6627C7.80003 22.6461 7.83542 22.6273 7.86873 22.6044C7.96657 22.5399 8.06233 22.4629 8.14352 22.3775C8.1685 22.3505 8.19348 22.3234 8.2143 22.2963C8.26218 22.236 8.31631 22.1735 8.35378 22.1048C8.40374 22.007 8.4308 21.9216 8.44537 21.8196C8.48076 21.6635 8.47036 21.4907 8.38292 21.3137Z" fill="#3A0C93"/>
<path d="M11.7556 19.0467C11.7806 18.0808 10.2796 18.0808 10.2547 19.0467C10.2338 19.8399 10.0548 20.6018 9.70508 21.3137C9.69884 21.3262 9.69675 21.3366 9.69259 21.3471C9.69051 21.3491 9.68843 21.3533 9.68635 21.3554C9.59475 21.5178 9.5656 21.7218 9.62389 21.9008C9.71133 22.1673 9.90909 22.365 10.1256 22.5295C10.2214 22.6024 10.3296 22.6502 10.442 22.6898C10.5149 22.7148 10.594 22.7252 10.671 22.7314C10.7522 22.7398 10.8396 22.7273 10.9167 22.7023C11.2435 22.5961 11.4475 22.263 11.4371 21.9258C11.4309 21.7447 11.3747 21.5761 11.281 21.4303C11.5703 20.6684 11.7327 19.8773 11.7556 19.0467Z" fill="#3A0C93"/>
</svg>
