<svg width="17" height="17" viewBox="0 0 17 17" fill="none" xmlns="http://www.w3.org/2000/svg">
<path fill-rule="evenodd" clip-rule="evenodd" d="M0.571289 8.88592C0.571289 8.05416 1.24556 7.37988 2.07732 7.37988H15.0653C15.897 7.37988 16.5713 8.05416 16.5713 8.88592C16.5713 9.71768 15.897 10.3919 15.0653 10.3919H2.07732C1.24556 10.3919 0.571289 9.71768 0.571289 8.88592Z" fill="white"/>
<path fill-rule="evenodd" clip-rule="evenodd" d="M8.57307 0.884766C9.40483 0.884766 10.0791 1.55904 10.0791 2.3908L10.0791 15.3787C10.0791 16.2105 9.40483 16.8848 8.57307 16.8848C7.74131 16.8848 7.06703 16.2105 7.06703 15.3787L7.06703 2.3908C7.06703 1.55904 7.74131 0.884765 8.57307 0.884766Z" fill="white"/>
</svg>
