<svg width="17" height="16" viewBox="0 0 17 16" fill="none" xmlns="http://www.w3.org/2000/svg">
<path d="M5.32269 8.93889C5.32269 8.69974 5.15675 8.55713 4.86397 8.55713C4.74441 8.55713 4.66344 8.56893 4.62109 8.58022V9.3475C4.67124 9.35879 4.73288 9.36255 4.81786 9.36255C5.12993 9.36255 5.32269 9.20488 5.32269 8.93889Z" fill="currentColor"/>
<path d="M7.13511 8.56592C7.00399 8.56592 6.91926 8.57724 6.86914 8.58898V10.2883C6.91929 10.3 7.00026 10.3 7.07346 10.3C7.60536 10.3038 7.95226 10.011 7.95226 9.39062C7.95603 8.85114 7.63992 8.56592 7.13511 8.56592Z" fill="currentColor"/>
<path d="M10.5035 0.799805H4.71982C3.87489 0.799805 3.1872 1.48797 3.1872 2.33242V6.87479H3.03751C2.69649 6.87479 2.41992 7.15109 2.41992 7.4924V11.2378C2.41992 11.5791 2.69646 11.8554 3.03751 11.8554H3.1872V13.6672C3.1872 14.5126 3.87489 15.1998 4.71982 15.1998H12.6113C13.4557 15.1998 14.1435 14.5125 14.1435 13.6672V4.42711L10.5035 0.799805ZM4.04011 8.16832C4.22111 8.13774 4.47551 8.11468 4.83394 8.11468C5.19617 8.11468 5.45434 8.18382 5.62781 8.32271C5.79351 8.45358 5.90533 8.66961 5.90533 8.92384C5.90533 9.178 5.8206 9.39409 5.66643 9.54047C5.4659 9.72923 5.16935 9.81396 4.82245 9.81396C4.74524 9.81396 4.67604 9.81014 4.62192 9.80264V10.7314H4.04011V8.16832ZM12.6113 14.2612H4.71982C4.39266 14.2612 4.12625 13.9948 4.12625 13.6672V11.8554H11.4828C11.8238 11.8554 12.1004 11.5791 12.1004 11.2378V7.4924C12.1004 7.15109 11.8238 6.87479 11.4828 6.87479H4.12625V2.33242C4.12625 2.00574 4.39269 1.73933 4.71982 1.73933L10.1523 1.73365V3.74169C10.1523 4.32822 10.6282 4.80457 11.2152 4.80457L13.1823 4.79892L13.2044 13.6672C13.2044 13.9948 12.9385 14.2612 12.6113 14.2612ZM6.28049 10.7196V8.16832C6.49628 8.13398 6.77753 8.11468 7.07435 8.11468C7.56763 8.11468 7.88751 8.20318 8.13815 8.39191C8.40788 8.59243 8.57731 8.91207 8.57731 9.37097C8.57731 9.86805 8.39632 10.2112 8.14565 10.423C7.87216 10.6504 7.45584 10.7582 6.94724 10.7582C6.64266 10.7582 6.42687 10.7389 6.28049 10.7196ZM10.4866 9.2091V9.68684H9.55381V10.7314H8.96424V8.13398H10.552V8.61549H9.55381V9.2091H10.4866Z" fill="currentColor"/>
</svg>
