<svg width="13" height="11" viewBox="0 0 13 11" fill="none" xmlns="http://www.w3.org/2000/svg">
<path d="M2.90422 6.14095C4.30822 6.14095 5.18572 5.12845 5.18572 3.11695C5.18572 1.10544 4.30822 0.133445 2.90422 0.133445C1.54072 0.133445 0.649719 1.10544 0.649719 3.11695C0.649719 5.12845 1.54072 6.14095 2.90422 6.14095ZM3.07972 10.3934H4.15972L9.61372 0.133445H8.54722L3.07972 10.3934ZM2.90422 5.30395C2.16172 5.30395 1.64872 4.66944 1.64872 3.11695C1.64872 1.59144 2.14822 0.970445 2.90422 0.970445C3.66022 0.970445 4.17322 1.56445 4.17322 3.11695C4.17322 4.68295 3.66022 5.30395 2.90422 5.30395ZM9.76222 10.3664C11.1257 10.3664 12.0302 9.36745 12.0302 7.35595C12.0302 5.34445 11.1257 4.37245 9.76222 4.37245C8.39872 4.37245 7.48072 5.34445 7.48072 7.35595C7.48072 9.36745 8.39872 10.3664 9.76222 10.3664ZM9.76222 9.52945C9.00622 9.52945 8.49322 8.90845 8.49322 7.35595C8.49322 5.80345 9.00622 5.19594 9.76222 5.19594C10.5182 5.19594 11.0177 5.80345 11.0177 7.35595C11.0177 8.92195 10.5182 9.52945 9.76222 9.52945Z" fill="currentColor"/>
</svg>
