<svg width="17" height="16" viewBox="0 0 17 16" fill="none" xmlns="http://www.w3.org/2000/svg">
<path d="M14.9453 4.32915H13.2639V1.2158C13.2639 0.918872 13.0274 0.677734 12.7354 0.677734H3.76724C3.47523 0.677734 3.23866 0.918556 3.23866 1.2158V4.32915H1.55725C0.877257 4.32915 0.324219 4.89244 0.324219 5.58433V10.9965C0.324219 11.6887 0.877257 12.2517 1.55725 12.2517H3.23897V15.1394C3.23897 15.4363 3.47554 15.6774 3.76754 15.6774H12.7351C13.0267 15.6774 13.2636 15.4366 13.2636 15.1394V12.2517H14.9453C15.6253 12.2517 16.1784 11.6887 16.1784 10.9965V5.58433C16.1784 4.89244 15.6253 4.32915 14.9453 4.32915ZM4.29581 1.75355H12.2068V4.32915H4.29581V1.75355ZM12.2068 14.6019H4.29581C4.29581 14.4969 4.29581 10.3308 4.29581 10.2006H12.2068C12.2068 10.3339 12.2068 14.5007 12.2068 14.6019ZM12.7354 7.48821H11.3902C11.0985 7.48821 10.8617 7.24739 10.8617 6.95014C10.8617 6.6529 11.0982 6.41207 11.3902 6.41207H12.7354C13.0271 6.41207 13.2639 6.6529 13.2639 6.95014C13.2639 7.24739 13.0271 7.48821 12.7354 7.48821Z" fill="#689AFF"/>
</svg>
