<svg width="20" height="20" viewBox="0 0 20 20" fill="none" xmlns="http://www.w3.org/2000/svg">
<path d="M16.0573 14.7818C15.6073 14.7818 15.236 15.0856 15.1123 15.5018H13.9873V14.1631C13.9873 14.0056 13.8635 13.8818 13.706 13.8818H12.041V14.4443H13.4248V15.7831C13.4248 15.9406 13.5485 16.0643 13.706 16.0643H15.1123C15.236 16.4806 15.6073 16.7843 16.0573 16.7843C16.6085 16.7843 17.0585 16.3343 17.0585 15.7831C17.0585 15.2318 16.6085 14.7818 16.0573 14.7818Z" fill="#17F2E9"/>
<path d="M16.0573 4.01074C15.6073 4.01074 15.236 4.31449 15.1123 4.73074H13.6723C13.5148 4.73074 13.391 4.85449 13.391 5.01199V6.82324H12.041V7.38574H13.661C13.8185 7.38574 13.9423 7.26199 13.9423 7.10449V5.30449H15.1123C15.236 5.72074 15.6073 6.02449 16.0573 6.02449C16.6085 6.02449 17.0585 5.57449 17.0585 5.02324C17.0585 4.47199 16.6085 4.01074 16.0573 4.01074Z" fill="#17F2E9"/>
<path d="M16.0798 9.69141C15.6298 9.69141 15.2585 9.99516 15.1348 10.4114H12.041V10.9739H15.1348C15.2585 11.3902 15.6298 11.6939 16.0798 11.6939C16.631 11.6939 17.081 11.2439 17.081 10.6927C17.081 10.1414 16.631 9.69141 16.0798 9.69141Z" fill="#17F2E9"/>
<path d="M4.00781 5.50684V8.24059C4.00781 8.92684 5.69531 9.69184 8.11406 9.69184C10.5328 9.69184 12.2203 8.92684 12.2203 8.24059V5.50684C11.4666 6.13684 9.94781 6.55309 8.11406 6.55309C6.28031 6.55309 4.75031 6.13684 4.00781 5.50684Z" fill="#F7FAFC"/>
<path d="M4.00781 9.29785V11.7841C4.00781 12.4704 5.69531 13.2354 8.11406 13.2354C10.5328 13.2354 12.2203 12.4704 12.2203 11.7841V9.29785C11.4666 9.92785 9.94781 10.3441 8.11406 10.3441C6.28031 10.3441 4.75031 9.92785 4.00781 9.29785Z" fill="#F7FAFC"/>
<path d="M4.00781 12.8916V15.6254C4.00781 16.3004 5.69531 17.0654 8.11406 17.0654C10.5328 17.0654 12.2203 16.3004 12.2203 15.6141V12.8916C11.4666 13.5216 9.94781 13.9266 8.11406 13.9266C6.28031 13.9266 4.75031 13.5216 4.00781 12.8916Z" fill="#F7FAFC"/>
<path d="M12.2091 4.38582C12.2091 3.58707 10.3753 2.93457 8.10281 2.93457C5.83031 2.93457 4.00781 3.58707 4.00781 4.38582C4.00781 5.18457 5.84156 5.83707 8.11406 5.83707C10.3866 5.83707 12.2091 5.18457 12.2091 4.38582Z" fill="#F7FAFC"/>
</svg>
