<svg width="21" height="20" viewBox="0 0 21 20" fill="none" xmlns="http://www.w3.org/2000/svg">
<path d="M0.722656 10C0.722656 4.47715 5.19981 0 10.7227 0C16.2455 0 20.7227 4.47715 20.7227 10C20.7227 15.5228 16.2455 20 10.7227 20C5.19981 20 0.722656 15.5228 0.722656 10Z" fill="#CBD5E0"/>
<path fill-rule="evenodd" clip-rule="evenodd" d="M8.51028 6.51284C8.15853 6.16109 7.58822 6.16109 7.23647 6.51284C6.88472 6.86459 6.88472 7.4349 7.23647 7.78665L9.44958 9.99976L7.23789 12.2115C6.88613 12.5632 6.88613 13.1335 7.23789 13.4853C7.58964 13.837 8.15994 13.837 8.5117 13.4853L10.7234 11.2736L12.9319 13.4821C13.2836 13.8338 13.8539 13.8338 14.2057 13.4821C14.5574 13.1303 14.5574 12.56 14.2057 12.2082L11.9972 9.99976L14.2071 7.78986C14.5589 7.43811 14.5589 6.8678 14.2071 6.51605C13.8554 6.1643 13.285 6.16429 12.9333 6.51605L10.7234 8.72595L8.51028 6.51284Z" fill="white"/>
</svg>
