<svg width="22" height="21" viewBox="0 0 22 21" fill="none" xmlns="http://www.w3.org/2000/svg">
<g clip-path="url(#clip0)">
<path d="M2.41101 11.6123C2.41759 11.5729 2.42088 11.5302 2.4143 11.4941C2.39458 11.3628 2.33541 11.2283 2.22366 11.1462C2.1119 11.0642 1.96398 11.0018 1.81936 11.0281C1.632 11.0609 1.48408 11.1134 1.31973 11.2053C1.277 11.2283 1.23756 11.2578 1.2014 11.2906C1.13566 11.3464 1.06663 11.4022 1.01404 11.4711C0.787239 11.7633 0.69849 12.1276 0.783952 12.482C0.866127 12.8201 1.10608 13.1024 1.4545 13.2074C1.72403 13.2894 2.02644 13.2369 2.21708 13.0203C2.35185 12.8661 2.36828 12.6855 2.37814 12.4952" fill="#6753A1"/>
</g>
<g opacity="0.8">
<path opacity="0.8" d="M12.7245 9.37975C13.5931 8.43391 14.8551 7.82496 16.1698 7.72145C16.7264 7.67821 17.3768 7.76575 17.6779 8.21785C17.8877 8.53216 17.8622 8.94753 17.7263 9.29544C17.4048 10.1244 16.5036 10.679 15.5802 10.7409C14.6569 10.8029 13.7362 10.4203 13.0522 9.82326" fill="#ECEAE9" fill-opacity="0.8"/>
</g>
<g opacity="0.8">
<path opacity="0.8" d="M12.9184 9.39258C14.1444 8.92907 15.1657 7.9977 15.7082 6.84962C15.9396 6.36295 16.0674 5.74756 15.7223 5.32712C15.4806 5.03305 15.0656 4.91776 14.6754 4.92388C13.7489 4.93607 12.9004 5.56094 12.5317 6.36945C12.163 7.17797 12.2322 8.13327 12.5906 8.95143" fill="#ECEAE9" fill-opacity="0.8"/>
</g>
<path fill-rule="evenodd" clip-rule="evenodd" d="M11.332 15.3578C11.332 15.1645 11.4887 15.0078 11.682 15.0078H20.7253C20.9186 15.0078 21.0753 15.1645 21.0753 15.3578C21.0753 15.5511 20.9186 15.7078 20.7253 15.7078H11.682C11.4887 15.7078 11.332 15.5511 11.332 15.3578Z" fill="#38B2AC"/>
<path fill-rule="evenodd" clip-rule="evenodd" d="M9.01367 13.7611C9.01367 13.5678 9.17037 13.4111 9.36368 13.4111H18.5805C18.7738 13.4111 18.9305 13.5678 18.9305 13.7611C18.9305 13.9544 18.7738 14.1111 18.5805 14.1111H9.36368C9.17037 14.1111 9.01367 13.9544 9.01367 13.7611Z" fill="#38B2AC"/>
<path fill-rule="evenodd" clip-rule="evenodd" d="M9.75586 12.1645C9.75586 11.9712 9.91256 11.8145 10.1059 11.8145H19.3227C19.516 11.8145 19.6727 11.9712 19.6727 12.1645C19.6727 12.3578 19.516 12.5145 19.3227 12.5145H10.1059C9.91256 12.5145 9.75586 12.3578 9.75586 12.1645Z" fill="#38B2AC"/>
<path d="M12.8995 2.36783C12.4851 2.56347 11.9782 2.39652 11.7644 1.99219C11.5506 1.58786 11.7116 1.10266 12.1261 0.907016C12.5405 0.711372 13.0473 0.878322 13.2611 1.28265C13.4723 1.68699 13.3113 2.17218 12.8995 2.36783Z" fill="#6753A1"/>
<path d="M12.2582 1.51547C11.2894 1.78937 10.4051 2.32674 9.72672 3.06236C9.62113 3.17453 9.61321 3.35192 9.72672 3.46409C9.8323 3.56843 10.0276 3.57887 10.1332 3.46409C10.7456 2.7989 11.5322 2.31109 12.4086 2.06327C12.765 1.96154 12.6145 1.41373 12.2582 1.51547Z" fill="#6753A1"/>
<path d="M10.4599 17.8414C10.3543 18.204 10.3095 18.5953 10.3517 18.9709C10.3966 19.3779 10.5127 19.8005 10.8321 20.0874C11.1885 20.4057 11.6478 20.4839 12.115 20.4605C12.4977 20.4422 12.8831 20.3718 13.2395 20.2283C13.4243 20.1526 13.5747 20.0718 13.6777 19.8944C13.7701 19.7379 13.8097 19.5083 13.7516 19.3335C13.6935 19.1588 13.5826 18.9892 13.4137 18.9005C13.25 18.8144 13.0257 18.7544 12.8462 18.8275C12.6218 18.9188 12.3922 18.9788 12.1519 19.0127C12.2179 19.0049 12.2813 18.9944 12.3473 18.9866C12.1361 19.0127 11.917 19.0231 11.7058 18.997C11.7718 19.0049 11.8352 19.0153 11.9012 19.0231C11.8325 19.0127 11.7666 18.997 11.7032 18.9709C11.7613 18.9944 11.8193 19.0205 11.8801 19.044C11.8352 19.0231 11.7956 18.9996 11.756 18.9709C11.8061 19.0101 11.8563 19.0466 11.9038 19.0857C11.8616 19.0518 11.8246 19.0127 11.7903 18.9709C11.8299 19.0205 11.8669 19.0701 11.9065 19.117C11.8695 19.0649 11.8378 19.0101 11.8114 18.9527C11.8352 19.0101 11.8616 19.0675 11.8853 19.1275C11.8431 19.0231 11.8167 18.9162 11.8009 18.8066C11.8088 18.8718 11.8193 18.9344 11.8273 18.9996C11.8009 18.7962 11.8035 18.5953 11.8273 18.3918C11.8193 18.457 11.8088 18.5197 11.8009 18.5849C11.8193 18.4649 11.8431 18.3449 11.8774 18.2301C11.983 17.8649 11.7481 17.424 11.3627 17.3354C10.9694 17.2467 10.5734 17.4527 10.4599 17.8414Z" fill="#6753A1"/>
<path d="M12.1516 19.8398C12.1463 19.9154 12.1595 19.9911 12.1727 20.0641C12.178 20.1033 12.1885 20.1398 12.2044 20.1763C12.2598 20.3224 12.3311 20.4502 12.4446 20.5598C12.5581 20.6693 12.6901 20.745 12.8405 20.7919C13.0359 20.8519 13.247 20.8284 13.4292 20.7398C13.4477 20.7319 13.4609 20.7215 13.4767 20.7111C13.5216 20.6771 13.5717 20.6458 13.6113 20.6015C13.7011 20.4998 13.7433 20.4163 13.7935 20.2937C13.841 20.1737 13.8594 20.038 13.8621 19.9102C13.8647 19.7824 13.8436 19.6494 13.8172 19.5241C13.7935 19.4094 13.7539 19.292 13.6905 19.1929C13.5691 19.0024 13.3896 18.8746 13.1652 18.8459C13.1283 18.8407 13.0887 18.8329 13.0517 18.8355C12.9936 18.8381 12.9276 18.8459 12.8722 18.8616C12.8194 18.8798 12.7587 18.9007 12.7138 18.9346C12.6188 18.9998 12.5792 19.0468 12.5079 19.1407C12.471 19.1981 12.4499 19.2607 12.4472 19.3285C12.4314 19.3963 12.434 19.4615 12.4551 19.5294C12.4868 19.6468 12.5792 19.772 12.6901 19.8294C12.8089 19.892 12.9514 19.9233 13.0834 19.8789C13.123 19.8633 13.1652 19.845 13.2048 19.8294C13.2814 19.785 13.3421 19.725 13.3869 19.6494C13.3896 19.6468 13.3922 19.6441 13.3949 19.6415C13.3685 19.6754 13.3421 19.7094 13.3157 19.7433C13.321 19.7381 13.3262 19.7328 13.3315 19.7276C13.2972 19.7537 13.2629 19.7798 13.2286 19.8059C13.2365 19.7981 13.247 19.7928 13.255 19.7876C13.2154 19.8033 13.1731 19.8215 13.1335 19.8372C13.1467 19.832 13.1599 19.8267 13.1758 19.8241C13.1309 19.8294 13.086 19.8372 13.0411 19.8424C13.0596 19.8398 13.0781 19.8398 13.0992 19.8424C13.0543 19.8372 13.0095 19.8294 12.9646 19.8241C12.9804 19.8267 12.9936 19.832 13.0095 19.8372C12.9699 19.8215 12.9276 19.8033 12.888 19.7876C12.9065 19.7954 12.9224 19.8059 12.9382 19.8163C12.9039 19.7902 12.8696 19.7641 12.8353 19.7381C12.8485 19.7511 12.8617 19.7615 12.8722 19.7772C12.8458 19.7433 12.8194 19.7094 12.793 19.6754C12.8115 19.7015 12.8273 19.7276 12.8405 19.7563C12.8247 19.7172 12.8062 19.6754 12.7904 19.6363C12.8221 19.7146 12.8405 19.7981 12.8511 19.8815C12.8458 19.8372 12.8379 19.7928 12.8326 19.7485C12.8432 19.8294 12.8458 19.9102 12.8353 19.9911C12.8405 19.9467 12.8485 19.9024 12.8537 19.858C12.8458 19.9154 12.8326 19.9728 12.8089 20.0276C12.8247 19.9885 12.8432 19.9467 12.859 19.9076C12.8485 19.9337 12.8326 19.9572 12.8168 19.9807C12.8432 19.9467 12.8696 19.9128 12.896 19.8789C12.8828 19.8946 12.8722 19.9076 12.8564 19.9207C12.8907 19.8946 12.925 19.8685 12.9593 19.8424C12.9435 19.8528 12.9276 19.8633 12.9118 19.8711C12.9514 19.8554 12.9936 19.8372 13.0332 19.8215C13.0148 19.8294 12.9989 19.832 12.9804 19.8372C13.0253 19.832 13.0702 19.8241 13.1151 19.8189C13.086 19.8215 13.0596 19.8215 13.0306 19.8189C13.0755 19.8241 13.1203 19.832 13.1652 19.8372C13.1362 19.832 13.1098 19.8241 13.0807 19.8137C13.1203 19.8294 13.1626 19.8476 13.2022 19.8633C13.1652 19.8476 13.1309 19.8267 13.0992 19.8033C13.1335 19.8294 13.1679 19.8554 13.2022 19.8815C13.1705 19.858 13.1441 19.8294 13.1177 19.7981C13.1441 19.832 13.1705 19.8659 13.1969 19.8998C13.1705 19.8659 13.1494 19.8267 13.1309 19.7876C13.1467 19.8267 13.1652 19.8685 13.1811 19.9076C13.1652 19.8711 13.1573 19.8346 13.1494 19.7954C13.1547 19.8398 13.1626 19.8841 13.1679 19.9285C13.1652 19.8972 13.1626 19.8685 13.1652 19.8372C13.1731 19.7146 13.1019 19.5659 13.0148 19.4798C12.9276 19.3937 12.7825 19.3259 12.6531 19.3311C12.5211 19.3363 12.3839 19.3807 12.2915 19.4798C12.2651 19.5137 12.2387 19.5476 12.2123 19.5815C12.1753 19.665 12.1516 19.7485 12.1516 19.8398Z" fill="#6753A1"/>
<path d="M8.12935 17.6151C6.27895 16.5326 4.60276 15.1239 3.48091 13.3501C2.35641 11.5788 1.79152 8.98067 2.24027 6.9538C2.68901 4.92692 3.52578 3.72957 5.5768 3.05134C7.62518 2.3731 10.8482 2.81135 12.0704 4.52259C13.1447 6.02253 13.1262 7.99984 13.9049 9.6563C14.7496 11.4536 16.5604 13.0892 16.1407 15.017C16.0246 15.5465 15.7421 16.0317 15.3937 16.4595C14.3537 17.7299 12.6907 18.5151 11.0039 18.5307C9.3172 18.5464 8.2587 17.7142 6.65378 16.6499" fill="#FFB701"/>
<path d="M6.7008 16.6656L6.81167 16.7386C11.0246 16.6056 13.8992 13.7283 15.2929 11.9258C14.9735 11.4145 14.6224 10.9032 14.3136 10.3867C11.4892 14.9178 7.13635 15.0509 4.4043 14.5735C5.07477 15.3535 5.85611 16.05 6.7008 16.6656Z" fill="#6753A1"/>
<path d="M5.85934 16.2426C5.69832 16.2374 5.5373 16.2322 5.37628 16.227C5.31029 16.2244 5.24958 16.227 5.18359 16.24C5.10968 16.2557 5.03577 16.2974 4.98297 16.3496C4.95394 16.3783 4.9513 16.3705 4.91434 16.4357C4.8985 16.4644 4.87475 16.5113 4.86683 16.5452C4.84043 16.6574 4.84835 16.7383 4.86419 16.8504C4.87475 16.9209 4.90642 16.9861 4.93546 17.0513C4.95394 17.093 4.97505 17.1296 5.00145 17.1661C5.09912 17.2965 5.20734 17.4061 5.35253 17.4869C5.51882 17.5808 5.71152 17.6278 5.90158 17.6304C6.00452 17.6304 6.11275 17.5861 6.18402 17.5156C6.25265 17.4478 6.30544 17.3356 6.30016 17.2365C6.29488 17.1348 6.26057 17.0278 6.18402 16.9574C6.10483 16.887 6.0098 16.8426 5.90158 16.8426C5.8699 16.8426 5.83822 16.84 5.80391 16.8374C5.83822 16.8426 5.87518 16.8478 5.90949 16.8504C5.84614 16.8426 5.78543 16.8244 5.72736 16.8009C5.75903 16.8139 5.79071 16.827 5.82239 16.84C5.76959 16.8165 5.71944 16.7878 5.67192 16.7513C5.69832 16.7722 5.72472 16.793 5.75375 16.8139C5.70888 16.78 5.66928 16.7383 5.63233 16.6939C5.65345 16.72 5.67456 16.7461 5.69568 16.7748C5.66665 16.7383 5.64289 16.6965 5.62441 16.6548C5.63761 16.6861 5.65081 16.7174 5.66401 16.7487C5.64817 16.7148 5.63761 16.6783 5.63233 16.6391C5.63761 16.6731 5.64289 16.7096 5.64553 16.7435C5.64289 16.7174 5.64289 16.6913 5.64553 16.6626C5.64025 16.6965 5.63497 16.733 5.63233 16.767C5.63233 16.7591 5.63497 16.7539 5.63761 16.7461C5.62441 16.7774 5.61121 16.8087 5.59801 16.84C5.60065 16.8374 5.60065 16.8348 5.60329 16.8322C5.58218 16.8583 5.56106 16.8843 5.53994 16.913C5.54258 16.9104 5.54522 16.9078 5.54786 16.9078C5.52146 16.9287 5.49507 16.9496 5.46603 16.9704C5.46867 16.9704 5.47131 16.9678 5.47395 16.9678C5.44227 16.9809 5.4106 16.9939 5.37892 17.007C5.3842 17.0043 5.38948 17.0043 5.39476 17.0017C5.36044 17.007 5.32349 17.0122 5.28917 17.0148C5.33141 17.0122 5.37628 17.0148 5.42116 17.0174C5.47131 17.02 5.51882 17.02 5.56898 17.0226C5.66665 17.0252 5.76167 17.0278 5.85934 17.0304C5.95965 17.033 6.07315 16.9835 6.14178 16.9157C6.21042 16.8478 6.26321 16.7357 6.25793 16.6365C6.25265 16.5348 6.21833 16.4278 6.14178 16.3574C6.06259 16.2844 5.97021 16.2452 5.85934 16.2426Z" fill="#6753A1"/>
<path d="M2.60453 10.6189L4.58692 11.0441L3.44659 16.3161L1.41932 15.5831C1.23455 15.5152 1.1316 15.33 1.17648 15.1448L2.23762 10.838C2.27458 10.6815 2.43823 10.5824 2.60453 10.6189Z" fill="#B394FF"/>
<path d="M4.58565 11.0439L9.28161 12.0222C9.48222 12.0639 9.60892 12.2517 9.56669 12.4422L8.73256 16.3081C8.68504 16.5246 8.47651 16.6759 8.24422 16.6602L3.44531 16.3159" fill="#886CE0"/>
<path d="M3.64593 11.7354L4.36919 11.8632L6.15361 12.1553L5.90284 13.2431L4.19498 12.8884L3.44531 12.6771L3.64593 11.7354Z" fill="#6753A1"/>
<path d="M4.40351 11.8736L4.19498 12.9092L3.44531 12.6874L3.64593 11.7588L4.40351 11.8736Z" fill="#6549DB"/>
<path d="M15.855 15.9349C16.3618 16.5923 16.9848 17.1297 17.7265 17.5184C18.6267 17.9905 17.9747 19.4226 17.0693 18.9479C16.0741 18.4235 15.2347 17.7296 14.5537 16.8479C13.9386 16.0445 15.24 15.1315 15.855 15.9349Z" fill="#6753A1"/>
<path d="M16.605 18.3039C16.5918 18.3378 16.5813 18.3717 16.576 18.4056C16.5628 18.4813 16.5469 18.5674 16.5549 18.6456C16.5681 18.8048 16.5997 18.9352 16.6763 19.0787C16.7476 19.2143 16.8637 19.3265 16.993 19.4126C17.1197 19.496 17.294 19.5482 17.4471 19.5326C17.5685 19.5221 17.6794 19.4986 17.7849 19.4334C17.8536 19.3891 17.9196 19.3395 17.9724 19.2769C18.0225 19.2169 18.0727 19.1543 18.1123 19.0865C18.1519 19.0161 18.1835 18.9378 18.2126 18.8621C18.2574 18.7448 18.2733 18.6195 18.2891 18.4969C18.305 18.3691 18.2997 18.2543 18.2759 18.1291C18.2601 18.0483 18.2258 17.9648 18.1783 17.897C18.1123 17.8031 18.0357 17.717 17.9301 17.6622C17.7242 17.5552 17.4497 17.5265 17.2491 17.6648C17.1382 17.7405 17.0511 17.8344 17.0142 17.9648C16.9798 18.0848 16.9957 18.2465 17.0643 18.3535C17.1356 18.4604 17.2385 18.5569 17.3679 18.5856C17.4946 18.6143 17.6503 18.6117 17.7612 18.5361C17.7717 18.5282 17.7797 18.523 17.7902 18.5178C17.7506 18.5335 17.7084 18.5517 17.6688 18.5674C17.6794 18.5648 17.6899 18.5622 17.7031 18.5596C17.6582 18.5648 17.6134 18.5726 17.5685 18.5778C17.5817 18.5778 17.5922 18.5778 17.6028 18.5778C17.5579 18.5726 17.5131 18.5648 17.4682 18.5596C17.484 18.5622 17.4999 18.5648 17.5131 18.57C17.4735 18.5543 17.4312 18.5361 17.3916 18.5204C17.4101 18.5282 17.4286 18.5387 17.4444 18.5491C17.4101 18.523 17.3758 18.4969 17.3415 18.4709C17.3547 18.4813 17.3652 18.4917 17.3758 18.5048C17.3494 18.4709 17.323 18.4369 17.2966 18.403C17.3072 18.4187 17.3177 18.4343 17.3256 18.4526C17.3098 18.4135 17.2913 18.3717 17.2755 18.3326C17.286 18.3613 17.294 18.39 17.2966 18.4187C17.2913 18.3743 17.2834 18.33 17.2781 18.2856C17.286 18.3561 17.2781 18.4291 17.2702 18.4996C17.2755 18.4552 17.2834 18.4109 17.2887 18.3665C17.2755 18.4526 17.257 18.5387 17.2227 18.6195C17.2385 18.5804 17.257 18.5387 17.2728 18.4996C17.2491 18.5569 17.2174 18.6091 17.1805 18.6587C17.2069 18.6248 17.2333 18.5909 17.2596 18.5569C17.2385 18.583 17.2148 18.6091 17.1884 18.63C17.2227 18.6039 17.257 18.5778 17.2913 18.5517C17.2728 18.5674 17.2517 18.5778 17.2306 18.5882C17.2702 18.5726 17.3124 18.5543 17.352 18.5387C17.3388 18.5439 17.3256 18.5465 17.3098 18.5491C17.3547 18.5439 17.3995 18.5361 17.4444 18.5309C17.4259 18.5335 17.4048 18.5335 17.3864 18.5335C17.4312 18.5387 17.4761 18.5465 17.521 18.5517C17.4972 18.5491 17.4735 18.5413 17.4497 18.5335C17.4893 18.5491 17.5315 18.5674 17.5711 18.583C17.5421 18.57 17.5183 18.5569 17.4919 18.5387C17.5263 18.5648 17.5606 18.5909 17.5949 18.6169C17.5658 18.5935 17.5395 18.57 17.5157 18.5413C17.5421 18.5752 17.5685 18.6091 17.5949 18.643C17.5711 18.6117 17.55 18.5778 17.5342 18.5387C17.55 18.5778 17.5685 18.6195 17.5843 18.6587C17.5685 18.6222 17.5579 18.583 17.5527 18.5439C17.5579 18.5882 17.5658 18.6326 17.5711 18.6769C17.5658 18.6326 17.5658 18.5882 17.5711 18.5439C17.5658 18.5882 17.5579 18.6326 17.5527 18.6769C17.5579 18.6404 17.5685 18.6065 17.5817 18.5752C17.6266 18.463 17.5896 18.2883 17.5315 18.1865C17.4708 18.0822 17.3494 17.9831 17.228 17.9544C17.0986 17.9257 16.9508 17.9309 16.8347 18.0039C16.8003 18.03 16.766 18.0561 16.7317 18.0822C16.671 18.1448 16.6288 18.2178 16.605 18.3039Z" fill="#6753A1"/>
<path d="M3.2182 9.43672C3.564 10.1619 4.38757 10.6236 5.17155 10.6575C5.58598 10.6758 7.95376 10.6549 8.25468 10.621C8.76941 10.5636 8.9014 10.4671 9.26831 10.2141C9.87807 9.7941 10.1579 8.96978 10.2555 8.26546C10.3532 7.54288 10.3559 6.74465 9.99422 6.08207C9.27095 4.75429 7.55253 4.49083 6.1931 4.50387C5.49095 4.5117 4.69641 4.72038 4.11305 5.15341C3.49273 5.61513 3.2182 6.21511 3.09414 6.94291C3.04135 7.34724 3.01495 7.74896 3.02287 8.1559C3.03079 8.57589 3.03607 9.05326 3.2182 9.43672Z" fill="#FEFDFF"/>
<path d="M9.7607 13.8742C8.82626 15.1367 7.64105 16.6367 5.89887 16.5271C5.59267 16.5088 5.33398 16.7984 5.33398 17.0853C5.33398 17.4036 5.59267 17.6253 5.89887 17.6436C6.93626 17.7088 7.93141 17.2914 8.73915 16.6706C9.54161 16.0549 10.1434 15.2411 10.7374 14.4376C10.9169 14.195 10.7796 13.8142 10.5341 13.6733C10.249 13.509 9.94283 13.6289 9.7607 13.8742Z" fill="#6753A1"/>
<path d="M5.90313 17.2024C6.04039 17.2024 6.16181 17.1685 6.28588 17.1111C6.32283 17.0954 6.35715 17.0746 6.39146 17.0485C6.44426 17.0093 6.49705 16.9728 6.53665 16.9233C6.62112 16.8215 6.68975 16.712 6.72142 16.5815C6.7531 16.4485 6.7531 16.3155 6.71878 16.1824C6.69767 16.1016 6.63431 16.0233 6.56304 15.9816C6.48913 15.9398 6.38355 15.9216 6.30172 15.9477C6.21989 15.9737 6.1407 16.0233 6.09846 16.1016C6.05623 16.1824 6.04303 16.2685 6.06415 16.3598C6.06943 16.3781 6.07207 16.3963 6.07471 16.4146C6.06943 16.3859 6.06679 16.3546 6.06151 16.3259C6.06679 16.3676 6.06679 16.4068 6.06151 16.4485C6.06679 16.4198 6.06943 16.3885 6.07471 16.3598C6.06943 16.4015 6.05623 16.4407 6.04303 16.4772C6.05359 16.4511 6.06679 16.425 6.07735 16.3963C6.06151 16.4355 6.04039 16.4694 6.01399 16.5033C6.03247 16.4798 6.04831 16.4589 6.06679 16.4355C6.04039 16.4668 6.01399 16.4955 5.97968 16.5189C6.00343 16.5007 6.02455 16.485 6.04831 16.4668C6.01399 16.4928 5.9744 16.5137 5.9348 16.532C5.9612 16.5215 5.9876 16.5085 6.01663 16.4981C5.97176 16.5163 5.92688 16.5294 5.87937 16.5346C5.90841 16.5294 5.94008 16.5268 5.96912 16.5215C5.948 16.5241 5.92424 16.5268 5.90313 16.5268C5.81602 16.5268 5.72627 16.5633 5.66292 16.6259C5.60485 16.6833 5.55997 16.7798 5.56261 16.8633C5.56525 16.9494 5.59429 17.0407 5.66292 17.1007C5.72891 17.1659 5.81074 17.2024 5.90313 17.2024Z" fill="#6753A1"/>
<path d="M15.402 16.4623C15.7505 16.0345 16.0356 15.5493 16.1491 15.0198C16.2758 14.4407 16.1966 13.8876 16.0065 13.3477C13.9001 16.7806 10.9199 17.7223 8.4043 17.7797C9.21467 18.2466 10.0013 18.5414 11.0123 18.5335C12.699 18.5179 14.362 17.7327 15.402 16.4623Z" fill="#6753A1"/>
<path d="M8.86947 16.77C8.86947 16.77 11.6699 14.6272 10.7117 13.6014" stroke="#FFB701" stroke-width="0.4" stroke-miterlimit="10" stroke-linecap="round"/>
<path d="M14.8381 3.83395C14.2732 3.58614 13.6238 3.67222 13.0405 3.81308C12.5072 3.94351 11.9661 4.13655 11.4963 4.41828C11.1795 4.60871 11.4699 5.09912 11.7866 4.90869C12.1931 4.6661 12.6471 4.50175 13.1038 4.38176C13.3203 4.32437 13.5394 4.28002 13.7611 4.25915C14.0198 4.23307 14.3049 4.21481 14.5503 4.32176C14.6929 4.38437 14.8592 4.3635 14.9437 4.22003C15.0149 4.10264 14.9832 3.89656 14.8381 3.83395Z" fill="#6753A1"/>
<path d="M15.3219 4.60601C14.9471 4.86948 14.4192 4.78861 14.1393 4.42602C13.8595 4.06343 13.9361 3.55997 14.3083 3.2965C14.6831 3.03303 15.2111 3.1139 15.4909 3.47649C15.7707 3.83648 15.6967 4.34255 15.3219 4.60601Z" fill="#6753A1"/>
<path d="M6.54132 7.05079C6.53076 7.28556 6.8 7.49164 7.14316 7.50729C7.48631 7.52294 7.77668 7.34817 7.78724 7.11079C7.80043 6.87601 7.52855 6.66993 7.18539 6.65428C6.84224 6.63863 6.55451 6.81601 6.54132 7.05079Z" fill="#221F20"/>
<path d="M3.77572 7.10048C3.76516 7.31699 4.01065 7.50742 4.32477 7.52307C4.63889 7.53872 4.90285 7.37438 4.91341 7.15787C4.92397 6.94135 4.67848 6.75092 4.36436 6.73527C4.05024 6.71701 3.78628 6.88135 3.77572 7.10048Z" fill="#221F20"/>
<path d="M6.75812 8.44385C6.48096 8.7621 6.10084 8.96557 5.67586 8.97861C5.25087 8.99165 4.85756 8.81166 4.55664 8.50906" stroke="#221F20" stroke-width="0.5" stroke-miterlimit="10" stroke-linecap="round"/>
<path d="M9.29984 8.34787C9.28664 8.6296 8.95404 8.84351 8.55545 8.82264C8.1595 8.80438 7.84802 8.55917 7.86386 8.27744C7.87706 7.99571 8.20966 7.78181 8.60824 7.80268C9.00419 7.82354 9.31567 8.06614 9.29984 8.34787Z" fill="#FFB701"/>
<path d="M3.92665 8.27908C3.91609 8.48516 3.72868 8.64689 3.50431 8.63385C3.28258 8.62341 3.111 8.44603 3.12156 8.23734C3.13211 8.03126 3.31953 7.86953 3.5439 7.88257C3.76563 7.89301 3.93721 8.07039 3.92665 8.27908Z" fill="#FFB701"/>
<defs>
<clipPath id="clip0">
<rect width="2.40032" height="3.20043" fill="white" transform="translate(0.453125 10.9551)"/>
</clipPath>
</defs>
</svg>
