<svg width="15" height="14" viewBox="0 0 15 14" fill="none" xmlns="http://www.w3.org/2000/svg" >
<path d="M3.60177 5.28613C3.38837 5.28613 3.21875 5.44922 3.21875 5.6544V9.6159C3.21875 9.82108 3.38837 9.98417 3.60177 9.98417C3.81517 9.98417 3.98479 9.82108 3.98479 9.6159V5.6544C3.98479 5.45448 3.81517 5.28613 3.60177 5.28613Z"  stroke-width="0.3" fill="currentColor" />
<path d="M7.4338 5.44727C7.2204 5.44727 7.05078 5.60474 7.05078 5.80286V9.62801C7.05078 9.82613 7.2204 9.9836 7.4338 9.9836C7.6472 9.9836 7.81682 9.82613 7.81682 9.62801V5.80286C7.81682 5.60982 7.6472 5.44727 7.4338 5.44727Z"  stroke-width="0.3" fill="currentColor" />
<path d="M11.3947 4.0166C11.1813 4.0166 11.0117 4.2237 11.0117 4.48424V9.51472C11.0117 9.77526 11.1813 9.98236 11.3947 9.98236C11.6081 9.98236 11.7778 9.77526 11.7778 9.51472V4.48424C11.7778 4.23038 11.6081 4.0166 11.3947 4.0166Z"  stroke-width="0.3" fill="currentColor" />
<path d="M5.95614 4.22288L5.95611 4.22287V4.22596V9.49303C5.95611 9.71937 5.82143 9.83267 5.72309 9.83267H5.31271C5.21437 9.83267 5.07969 9.71937 5.07969 9.49303V4.22596C5.07969 3.99962 5.21437 3.88633 5.31271 3.88633H5.72856C5.82549 3.88633 5.96063 4.00461 5.95614 4.22288Z"  stroke-width="0.3" fill="currentColor" />
<path d="M9.18713 4.67539H9.64293C9.79021 4.67539 9.91834 4.80302 9.91834 4.95327V9.55605C9.91834 9.71241 9.79628 9.83392 9.64293 9.83392H9.18713C9.03378 9.83392 8.91172 9.71241 8.91172 9.55605V4.95327C8.91172 4.7969 9.03378 4.67539 9.18713 4.67539Z"  stroke-width="0.3" fill="currentColor" />
<path fill-rule="evenodd" clip-rule="evenodd" d="M11.1016 1.0187C11.1016 0.732231 11.3095 0.5 11.566 0.5H12.6065C13.376 0.5 13.9998 1.19669 13.9998 2.05611V3.21829C13.9998 3.50476 13.7918 3.73699 13.5353 3.73699C13.2789 3.73699 13.0709 3.50476 13.0709 3.21829V2.05611C13.0709 1.76964 12.863 1.53741 12.6065 1.53741H11.566C11.3095 1.53741 11.1016 1.30518 11.1016 1.0187Z"  stroke-width="0.4" stroke-linecap="round" stroke-linejoin="round" fill="currentColor" />
<path fill-rule="evenodd" clip-rule="evenodd" d="M3.89648 1.0187C3.89648 0.732231 3.68856 0.5 3.43207 0.5H2.39153C1.62207 0.5 0.998293 1.19669 0.998293 2.05611V3.21829C0.998293 3.50476 1.20622 3.73699 1.46271 3.73699C1.71919 3.73699 1.92712 3.50476 1.92712 3.21829V2.05611C1.92712 1.76964 2.13504 1.53741 2.39153 1.53741H3.43207C3.68856 1.53741 3.89648 1.30518 3.89648 1.0187Z"  stroke-width="0.4" stroke-linecap="round" stroke-linejoin="round" fill="currentColor" />
<path fill-rule="evenodd" clip-rule="evenodd" d="M3.89648 12.9813C3.89648 13.2678 3.68856 13.5 3.43207 13.5H2.39153C1.62207 13.5 0.998293 12.8033 0.998293 11.9439V10.7817C0.998293 10.4952 1.20622 10.263 1.46271 10.263C1.71919 10.263 1.92712 10.4952 1.92712 10.7817V11.9439C1.92712 12.2304 2.13504 12.4626 2.39153 12.4626H3.43207C3.68856 12.4626 3.89648 12.6948 3.89648 12.9813Z"  stroke-width="0.4" stroke-linecap="round" stroke-linejoin="round" fill="currentColor" />
<path fill-rule="evenodd" clip-rule="evenodd" d="M11.1016 12.9813C11.1016 13.2678 11.3095 13.5 11.566 13.5H12.6065C13.376 13.5 13.9998 12.8033 13.9998 11.9439V10.7817C13.9998 10.4952 13.7918 10.263 13.5353 10.263C13.2789 10.263 13.0709 10.4952 13.0709 10.7817V11.9439C13.0709 12.2304 12.863 12.4626 12.6065 12.4626H11.566C11.3095 12.4626 11.1016 12.6948 11.1016 12.9813Z"  stroke-width="0.4" stroke-linecap="round" stroke-linejoin="round" fill="currentColor" />
</svg>
