<svg width="17" height="16" viewBox="0 0 17 16" fill="none" xmlns="http://www.w3.org/2000/svg">
<path d="M12.8008 12.4482H9.48756C9.19556 12.4482 8.95898 12.6891 8.95898 12.9863C8.95898 13.2836 9.19556 13.5244 9.48756 13.5244H12.8005C13.0922 13.5244 13.3291 13.2836 13.3291 12.9863C13.3291 12.6891 13.0925 12.4482 12.8008 12.4482Z" fill="currentColor"/>
<path d="M14.0679 10.751H9.48756C9.19556 10.751 8.95898 10.9918 8.95898 11.289C8.95898 11.5863 9.19556 11.8271 9.48756 11.8271H14.0676C14.3593 11.8271 14.5962 11.5863 14.5962 11.289C14.5962 10.9918 14.3596 10.751 14.0679 10.751Z" fill="currentColor"/>
<path d="M15.4727 4.06548H13.7913V0.95213C13.7913 0.6552 13.5547 0.414062 13.2627 0.414062H4.29458C4.00258 0.414062 3.766 0.654885 3.766 0.95213V4.06548H2.0846C1.4046 4.06548 0.851562 4.62876 0.851562 5.32065V10.7328C0.851562 11.4251 1.4046 11.988 2.0846 11.988H3.76631V14.8757C3.76631 15.1726 4.00289 15.4137 4.29489 15.4137H13.2624C13.5541 15.4137 13.791 15.1729 13.791 14.8757V11.988H15.4727C16.1527 11.988 16.7057 11.4251 16.7057 10.7328V5.32065C16.7057 4.62876 16.1527 4.06548 15.4727 4.06548ZM4.82315 1.48988H12.7341V4.06548H4.82315V1.48988ZM12.7341 14.3382H4.82315C4.82315 14.2333 4.82315 10.0671 4.82315 9.93694H12.7341C12.7341 10.0703 12.7341 14.2371 12.7341 14.3382ZM13.2627 7.22454H11.9176C11.6259 7.22454 11.389 6.98371 11.389 6.68647C11.389 6.38922 11.6256 6.1484 11.9176 6.1484H13.2627C13.5544 6.1484 13.7913 6.38922 13.7913 6.68647C13.7913 6.98371 13.5544 7.22454 13.2627 7.22454Z" fill="currentColor"/>
</svg>
