<?xml version="1.0" encoding="utf-8"?>
<!-- Generator: Adobe Illustrator 25.2.1, SVG Export Plug-In . SVG Version: 6.00 Build 0)  -->
<svg version="1.1" id="레이어_1" xmlns="http://www.w3.org/2000/svg" xmlns:xlink="http://www.w3.org/1999/xlink" x="0px"
	 y="0px" viewBox="0 0 8 8" style="enable-background:new 0 0 8 8;" xml:space="preserve">
<style type="text/css">
	.st0{fill:currentColor;}
</style>
<path class="st0" d="M0.8,0.1C0.7,0,0.3,0,0.1,0.1C0,0.3,0,0.7,0.1,0.8L3.3,4L0.1,7.2C0,7.3,0,7.7,0.1,7.9C0.3,8,0.7,8,0.8,7.9
	L4,4.7l3.2,3.2C7.3,8,7.7,8,7.9,7.9C8,7.7,8,7.3,7.9,7.2L4.7,4l3.2-3.2C8,0.7,8,0.3,7.9,0.1C7.7,0,7.3,0,7.2,0.1L4,3.3L0.8,0.1z"/>
</svg>
