<svg width="15" height="14" viewBox="0 0 15 14" fill="none" xmlns="http://www.w3.org/2000/svg">
<path d="M4.51956 4.01246C3.82081 4.71121 3.47956 5.68079 3.58248 6.67204C3.60956 6.92121 3.81539 7.10537 4.05914 7.10537C4.07539 7.10537 4.09164 7.10537 4.10789 7.10537C4.37331 7.07829 4.56289 6.84537 4.53581 6.57996C4.46539 5.87037 4.70914 5.18246 5.20206 4.69496C5.39164 4.50537 5.39164 4.20204 5.20206 4.01787C5.01248 3.82829 4.70914 3.82829 4.51956 4.01246Z" stroke-width="0.3" fill="currentColor" />
<path fill-rule="evenodd" clip-rule="evenodd" d="M6.38039 0.304688C3.18679 0.304688 0.587891 2.90359 0.587891 6.09719C0.587891 9.29079 3.18679 11.8897 6.38039 11.8897C7.6985 11.8897 8.91275 11.4446 9.88449 10.7026L12.8578 13.676C13.0081 13.8262 13.2098 13.9047 13.4112 13.9047C13.6176 13.9047 13.8093 13.8232 13.9587 13.6822L13.9677 13.6729C14.2632 13.3687 14.2681 12.8766 13.9578 12.5733L10.9858 9.60129C11.7278 8.62954 12.1729 7.41529 12.1729 6.09719C12.1729 2.90359 9.57399 0.304688 6.38039 0.304688ZM2.14664 6.09719C2.14664 3.76579 4.04358 1.86885 6.37498 1.86885C8.70637 1.86885 10.6033 3.76579 10.6033 6.09719C10.6033 7.24403 10.1422 8.28689 9.39532 9.04937L9.38814 9.05482C9.37817 9.06261 9.36829 9.07127 9.35868 9.08089C9.34906 9.09051 9.3404 9.10038 9.33261 9.11035L9.32716 9.11754C8.56467 9.86438 7.52182 10.3255 6.37498 10.3255C4.04876 10.3255 2.14664 8.42835 2.14664 6.09719Z" fill="currentColor" />
</svg>
