<svg width="17" height="17" viewBox="0 0 17 17" fill="none" xmlns="http://www.w3.org/2000/svg">
<path d="M14.8894 3.51835H9.70078V2.08157C9.70078 1.93879 9.64815 1.80379 9.55635 1.7128C9.4653 1.6218 9.34332 1.58259 9.22832 1.61132L2.84238 3.0481C2.65305 3.09031 2.5166 3.28756 2.5166 3.51835V14.0547C2.5166 14.2846 2.65305 14.4827 2.84238 14.525L9.22832 15.9617C9.25227 15.9674 9.27696 15.9704 9.30166 15.9704C9.39421 15.9704 9.48451 15.9321 9.55635 15.8603C9.64815 15.7693 9.70078 15.6334 9.70078 15.4915V14.0547H14.8894C15.1096 14.0547 15.2885 13.8401 15.2885 13.5758V3.99727C15.2885 3.73296 15.1096 3.51835 14.8894 3.51835ZM8.00527 10.387C8.15045 10.5852 8.13373 10.8881 7.96785 11.0623C7.89201 11.1419 7.79872 11.1812 7.70518 11.1812C7.59417 11.1812 7.48416 11.1255 7.40509 11.0174L6.24439 9.42649L5.22663 10.9974C5.14756 11.118 5.02957 11.1812 4.91133 11.1812C4.82602 11.1812 4.73971 11.1485 4.66637 11.0806C4.49225 10.9177 4.46132 10.6169 4.59602 10.4083L5.70882 8.69194L4.61124 7.18632C4.46606 6.98816 4.48277 6.68524 4.64866 6.51103C4.81379 6.33682 5.06524 6.35598 5.21217 6.55593L6.20847 7.92177L7.39062 6.09796C7.52632 5.89022 7.77702 5.85191 7.95088 6.01475C8.125 6.17668 8.15593 6.47751 8.02023 6.68704L6.74304 8.65632L8.00527 10.387ZM14.4902 13.0969H9.70078V12.139H10.8981C11.1184 12.139 11.2973 11.9244 11.2973 11.6601C11.2973 11.3958 11.1184 11.1812 10.8981 11.1812H9.70078V10.2233H10.8981C11.1184 10.2233 11.2973 10.0087 11.2973 9.74438C11.2973 9.48007 11.1184 9.26545 10.8981 9.26545H9.70078V8.3076H10.8981C11.1184 8.3076 11.2973 8.09298 11.2973 7.82868C11.2973 7.56437 11.1184 7.34975 10.8981 7.34975H9.70078V6.3919H10.8981C11.1184 6.3919 11.2973 6.17728 11.2973 5.91297C11.2973 5.64867 11.1184 5.43405 10.8981 5.43405H9.70078V4.4762H14.4902V13.0969Z" fill="#689AFF"/>
<path d="M13.294 5.43506H12.4958C12.2755 5.43506 12.0967 5.64968 12.0967 5.91398C12.0967 6.17829 12.2755 6.39291 12.4958 6.39291H13.294C13.5143 6.39291 13.6932 6.17829 13.6932 5.91398C13.6932 5.64968 13.5143 5.43506 13.294 5.43506Z" fill="#689AFF"/>
<path d="M13.294 7.35059H12.4958C12.2755 7.35059 12.0967 7.5652 12.0967 7.82951C12.0967 8.09382 12.2755 8.30844 12.4958 8.30844H13.294C13.5143 8.30844 13.6932 8.09382 13.6932 7.82951C13.6932 7.5652 13.5143 7.35059 13.294 7.35059Z" fill="#689AFF"/>
<path d="M13.294 9.26465H12.4958C12.2755 9.26465 12.0967 9.47927 12.0967 9.74357C12.0967 10.0079 12.2755 10.2225 12.4958 10.2225H13.294C13.5143 10.2225 13.6932 10.0079 13.6932 9.74357C13.6932 9.47927 13.5143 9.26465 13.294 9.26465Z" fill="#689AFF"/>
<path d="M13.294 11.1812H12.4958C12.2755 11.1812 12.0967 11.3958 12.0967 11.6601C12.0967 11.9244 12.2755 12.139 12.4958 12.139H13.294C13.5143 12.139 13.6932 11.9244 13.6932 11.6601C13.6932 11.3958 13.5143 11.1812 13.294 11.1812Z" fill="#689AFF"/>
</svg>
