<svg width="21" height="20" viewBox="0 0 21 20" fill="none" xmlns="http://www.w3.org/2000/svg">
<path fill-rule="evenodd" clip-rule="evenodd" d="M17.2085 9.95525C16.3656 9.11241 15.1932 8.58643 13.9068 8.58643C12.6204 8.58643 11.448 9.11241 10.6052 9.95525C9.76231 10.7981 9.23633 11.9705 9.23633 13.2569C9.23633 14.5433 9.76231 15.7157 10.6052 16.5586C11.448 17.4014 12.614 17.9274 13.9068 17.9274C15.1996 17.9274 16.3656 17.4014 17.2085 16.5586C18.0513 15.7157 18.5773 14.5433 18.5773 13.2569C18.5773 11.9705 18.0513 10.7981 17.2085 9.95525ZM15.7826 14.7208C15.4721 15.0313 15.0412 15.2278 14.5659 15.2278H12.4873C12.2401 15.2278 12.0437 15.0313 12.0437 14.7842C12.0437 14.537 12.2401 14.3406 12.4873 14.3406H14.5659C15.0221 14.3406 15.396 13.9667 15.396 13.5104C15.396 13.2632 15.32 13.0605 15.1489 12.8957C14.9968 12.7436 14.7877 12.6485 14.5595 12.6485H13.3175L13.5836 12.9147C13.7547 13.0858 13.7611 13.371 13.5836 13.5421C13.4125 13.7132 13.1273 13.7195 12.9562 13.5421L11.9296 12.5218C11.7585 12.3507 11.7522 12.0655 11.9296 11.8944L12.9499 10.8678C13.121 10.6967 13.4062 10.6904 13.5773 10.8678C13.7484 11.0389 13.7547 11.3241 13.5773 11.4952L13.3175 11.755H14.5532C15.5038 11.755 16.2769 12.5281 16.2769 13.4787C16.2896 13.9667 16.1121 14.3913 15.7826 14.7208Z" fill="#17F2E9"/>
<path fill-rule="evenodd" clip-rule="evenodd" d="M15.5472 2.92771H11.155V4.65571C11.155 5.00426 10.8699 5.28943 10.5213 5.28943L8.85926 5.28943C8.51072 5.28943 8.22555 5.00426 8.22555 4.65571V2.92771H3.81079C3.56364 2.92771 3.36719 3.12416 3.36719 3.37131V14.8981C3.36719 15.1452 3.56364 15.3417 3.81079 15.3417H8.75377C8.20243 13.9855 8.20877 12.4836 8.76644 11.1338C9.93881 8.31375 13.1581 6.95127 15.9908 8.10463V3.37131C15.9908 3.12416 15.7943 2.92771 15.5472 2.92771Z" fill="#EDF2F7"/>
</svg>
