<svg width="40" height="11" viewBox="0 0 40 11" fill="none" xmlns="http://www.w3.org/2000/svg">
<path d="M29.9588 6.1305C29.8253 6.1305 29.7345 6.13815 29.7345 6.28529C29.7345 6.83756 30.4364 7.16815 31.3394 7.16815C32.1361 7.16815 32.3179 6.91781 32.6563 6.91781C32.927 6.91781 33.1011 7.06687 33.1011 7.38791C33.1011 8.33574 31.6894 8.9224 30.506 8.9224C28.5646 8.9224 27.2129 7.81978 27.2129 6.0598C27.2129 4.23675 28.319 2.99463 30.506 2.99463C32.2096 2.99463 33.1011 4.08387 33.1011 5.29924C33.1011 5.95852 32.8651 6.12859 32.4068 6.12859H29.9588V6.1305ZM30.8927 4.79666C30.8927 4.39918 30.7303 4.02845 30.3165 4.02845C29.8775 4.02845 29.6996 4.37816 29.6996 4.98202C29.6996 5.16547 29.8157 5.19222 30.0419 5.19222C30.1173 5.19222 30.3687 5.19031 30.4422 5.19031C30.74 5.19222 30.8927 5.14636 30.8927 4.79666Z" fill="#B394FF"/>
<path d="M36.3103 6.1305C36.1769 6.1305 36.086 6.13815 36.086 6.28529C36.086 6.83756 36.788 7.16815 37.691 7.16815C38.4877 7.16815 38.6695 6.91781 39.0079 6.91781C39.2786 6.91781 39.4526 7.06687 39.4526 7.38791C39.4526 8.33574 38.041 8.9224 36.8576 8.9224C34.9161 8.9224 33.5645 7.81978 33.5645 6.0598C33.5645 4.23675 34.6705 2.99463 36.8576 2.99463C38.5612 2.99463 39.4526 4.08387 39.4526 5.29924C39.4526 5.95852 39.2167 6.12859 38.7584 6.12859H36.3103V6.1305ZM37.2443 4.79666C37.2443 4.39918 37.0819 4.02845 36.6681 4.02845C36.2291 4.02845 36.0512 4.37816 36.0512 4.98202C36.0512 5.16547 36.1672 5.19222 36.3935 5.19222C36.4689 5.19222 36.7203 5.19031 36.7938 5.19031C37.0916 5.19222 37.2443 5.14636 37.2443 4.79666Z" fill="#B394FF"/>
<path d="M10.6091 6.1305C10.4757 6.1305 10.3848 6.13815 10.3848 6.28529C10.3848 6.83756 11.0868 7.16815 11.9898 7.16815C12.7865 7.16815 12.9683 6.91781 13.3067 6.91781C13.5774 6.91781 13.7514 7.06687 13.7514 7.38791C13.7514 8.33574 12.3398 8.9224 11.1564 8.9224C9.21493 8.9224 7.86133 7.81978 7.86133 6.0598C7.86133 4.23675 8.96741 2.99463 11.1564 2.99463C12.86 2.99463 13.7514 4.08387 13.7514 5.29924C13.7514 5.95852 13.5155 6.12859 13.0572 6.12859H10.6091V6.1305ZM11.5431 4.79666C11.5431 4.39918 11.3807 4.02845 10.9669 4.02845C10.5279 4.02845 10.35 4.37816 10.35 4.98202C10.35 5.16547 10.466 5.19222 10.6923 5.19222C10.7677 5.19222 11.0191 5.19031 11.0926 5.19031C11.3904 5.19222 11.5431 5.14636 11.5431 4.79666Z" fill="#B394FF"/>
<path d="M24.5029 3.02279C23.654 3.02279 23.3775 3.48333 23.188 3.78144C23.1474 3.8445 23.1049 3.92667 23.0527 3.92667C23.0043 3.92667 23.0062 3.82157 23.0062 3.82157C23.0062 3.82157 22.9888 1.26471 22.9888 1.19592C22.9888 1.07171 22.9792 0.825195 22.6156 0.825195C22.3217 0.825195 21.6971 1.01629 21.2311 1.20739C20.7651 1.39848 19.9316 1.78832 19.9316 2.21446C19.9316 2.48772 20.1327 2.61003 20.241 2.70748C20.3339 2.79157 20.5272 2.96355 20.5272 3.37059C20.5272 3.79673 20.5272 8.51105 20.5272 8.51105C20.5272 8.51105 20.506 9.02892 21.0223 9.02892C21.5386 9.02892 21.6604 8.58176 21.9988 8.58176C22.3352 8.58176 22.6872 8.90088 23.8996 8.90088C25.2068 8.90088 26.8234 8.11739 26.8234 5.9905C26.8234 3.86552 25.3344 3.02279 24.5029 3.02279ZM23.8474 7.74094C23.1145 7.74094 23.0062 6.83514 23.0062 6.12236C23.0062 5.74017 23.0062 5.44206 23.0062 5.00254C23.0062 4.58595 23.1783 4.49232 23.2982 4.49232C24.1413 4.49232 24.4295 6.01152 24.4295 6.79884C24.4275 6.97847 24.4275 7.74094 23.8474 7.74094Z" fill="#B394FF"/>
<path d="M7.76249 3.16992C7.4879 3.16992 7.07215 3.18139 6.61773 3.18139C6.16331 3.18139 5.82491 3.16992 5.45557 3.16992C5.13457 3.16992 5.02822 3.34573 5.02822 3.54638C5.02822 3.80245 5.14231 3.86169 5.35115 3.95532C5.43236 3.99163 5.55419 4.02412 5.55419 4.15024C5.55419 4.21139 5.51551 4.32605 5.44203 4.51523C5.31441 4.83818 5.11524 5.28153 5.0901 5.33312C5.04562 5.42294 4.99148 5.55288 4.87546 5.55288C4.75363 5.55288 4.69949 5.41147 4.66081 5.33312C4.6086 5.2242 4.36302 4.65282 4.31081 4.52288C4.2644 4.40631 4.19479 4.2305 4.19479 4.14451C4.19479 4.04705 4.27214 4.00692 4.47324 3.92093C4.68788 3.8292 4.72463 3.78143 4.71883 3.54638C4.71883 3.34 4.60474 3.16992 4.25667 3.16992C4.07877 3.16992 2.92627 3.18139 2.7329 3.18139C2.54146 3.18139 1.59395 3.16992 1.16659 3.16992C0.957754 3.16992 0.640625 3.29987 0.640625 3.66868C0.640625 3.92093 0.748914 3.98017 0.853335 4.0203C0.971291 4.06616 1.19367 4.14451 1.37157 4.30312C1.56687 4.47319 1.72351 4.78659 1.72351 4.78659C1.72351 4.78659 3.08677 7.41033 3.35749 7.91291C3.46385 8.10974 3.50059 8.28363 3.50059 8.50339C3.50059 8.84163 3.28401 9.25822 2.85473 9.25822C2.234 9.25822 2.61301 8.24732 1.65776 8.24732C1.06411 8.24732 0.671565 8.6964 0.671565 9.23338C0.671565 10.1889 1.44312 10.8252 2.3887 10.8252C4.17545 10.8252 5.02629 8.79768 5.33955 8.16515C5.65474 7.53263 6.92326 5.02737 7.00641 4.85729C7.08956 4.68722 7.19591 4.38338 7.44149 4.28401C7.67354 4.19037 7.81857 4.14642 7.99067 4.07762C8.12023 4.02603 8.23625 3.9343 8.23625 3.67632C8.23625 3.49478 8.06801 3.16992 7.76249 3.16992Z" fill="#B394FF"/>
<path d="M19.491 4.39695C19.491 3.95934 19.2609 3.08412 18.8142 3.08412C18.6692 3.08412 18.586 3.17776 18.2728 3.17776C17.9595 3.17776 17.6018 3.00195 16.8921 3.00195C15.1981 3.00195 14.3492 4.00903 14.3492 4.97215C14.3492 5.89323 14.97 6.27733 15.6042 6.50664C16.254 6.74169 16.5943 6.8124 16.7915 6.87355C16.9424 6.92132 17.3716 7.09139 17.3716 7.37039C17.3716 7.66086 17.0004 7.6685 16.8302 7.6685C16.4589 7.6685 16.078 7.55193 15.8827 7.42199C15.7183 7.31307 15.4457 7.08757 15.3432 6.99967C15.2426 6.91177 14.9912 6.65379 14.7147 6.65379C14.3937 6.65379 14.3125 6.98438 14.3125 7.18885C14.3125 7.39333 14.3144 7.59971 14.3318 7.78316C14.3473 7.9475 14.3937 8.25899 14.5832 8.41186C14.7766 8.56856 15.1846 8.63162 15.4495 8.69086C15.6622 8.73864 16.2849 8.91062 16.9211 8.91062C19.0211 8.91062 19.8565 7.70672 19.8565 6.8487C19.8565 5.9238 19.1236 5.5397 18.3868 5.29892C18.2244 5.24541 17.4664 5.0161 17.331 4.96641C17.1937 4.91673 16.8805 4.75239 16.8805 4.50396C16.8805 4.34344 17.0139 4.20394 17.2904 4.20394C17.4703 4.20394 17.7255 4.27656 17.8609 4.34918C17.9769 4.41033 18.2283 4.55556 18.5067 4.70843C18.7175 4.825 18.8857 4.88615 19.0907 4.88615C19.5065 4.88806 19.491 4.52881 19.491 4.39695Z" fill="#B394FF"/>
</svg>
