<svg width="21" height="20" viewBox="0 0 21 20" fill="none" xmlns="http://www.w3.org/2000/svg">
<path d="M9.3465 13.0259H7.57898C7.33366 13.0259 7.13867 13.2209 7.13867 13.4662V13.9065V16.6175V17.0578C7.13867 17.3031 7.33366 17.4981 7.57898 17.4981H9.3465C9.59181 17.4981 9.78681 17.3031 9.78681 17.0578V16.6175V13.9065V13.4662C9.78681 13.2209 9.59181 13.0259 9.3465 13.0259Z" fill="#E2E8F0"/>
<path d="M5.56177 11.2539H3.78796C3.54265 11.2539 3.34766 11.4489 3.34766 11.6942V13.9335V16.6194V17.0597C3.34766 17.305 3.54265 17.5 3.78796 17.5H5.55548C5.8008 17.5 5.99579 17.305 5.99579 17.0597V16.6194V13.9335V11.6942C6.00208 11.4552 5.8008 11.2539 5.56177 11.2539Z" fill="#E2E8F0"/>
<path d="M13.1375 9.48584H11.37C11.1247 9.48584 10.9297 9.68083 10.9297 9.92615V13.9078V16.6188V17.0591C10.9297 17.3044 11.1247 17.4994 11.37 17.4994H13.1375C13.3828 17.4994 13.5778 17.3044 13.5778 17.0591V16.6188V13.9078V9.92615C13.5778 9.68712 13.3765 9.48584 13.1375 9.48584Z" fill="#E2E8F0"/>
<path d="M16.9285 6.83105H15.161C14.9157 6.83105 14.7207 7.02605 14.7207 7.27136V13.9074V16.6185V17.0588C14.7207 17.3041 14.9157 17.4991 15.161 17.4991H16.9285C17.1738 17.4991 17.3688 17.3041 17.3688 17.0588V16.6185V13.9074V7.27765C17.3688 7.03234 17.1738 6.83105 16.9285 6.83105Z" fill="#E2E8F0"/>
<path d="M14.5211 2.5C13.999 2.5 13.5776 2.92144 13.5776 3.44352C13.5776 3.58819 13.6153 3.72657 13.6719 3.84608L11.9987 5.11668C11.8352 4.97201 11.6151 4.87766 11.376 4.87766C10.8539 4.87766 10.4325 5.2991 10.4325 5.82117C10.4325 6.01617 10.4891 6.19229 10.5898 6.34325L8.82224 8.11077C8.67128 8.01642 8.49516 7.95352 8.30646 7.95352C8.0234 7.95352 7.7718 8.08561 7.59567 8.28061L6.10492 7.45031C6.11121 7.40628 6.1175 7.36225 6.1175 7.31193C6.1175 6.78985 5.69606 6.36841 5.17398 6.36841C4.65191 6.36841 4.23047 6.78985 4.23047 7.31193C4.23047 7.83401 4.65191 8.25544 5.17398 8.25544C5.51365 8.25544 5.80299 8.07932 5.97283 7.80885L7.40697 8.61398C7.37552 8.70204 7.35665 8.79639 7.35665 8.89704C7.35665 9.41911 7.77809 9.84055 8.30017 9.84055C8.82224 9.84055 9.24368 9.41911 9.24368 8.89704C9.24368 8.70204 9.18707 8.52592 9.08643 8.37496L10.8477 6.60115C10.9986 6.70179 11.1747 6.7584 11.3697 6.7584C11.8918 6.7584 12.3133 6.33696 12.3133 5.81488C12.3133 5.67021 12.2755 5.53183 12.2189 5.41232L13.8984 4.14801C14.0682 4.29268 14.2821 4.38703 14.5211 4.38703C15.0432 4.38703 15.4646 3.96559 15.4646 3.44352C15.4646 2.92144 15.0432 2.5 14.5211 2.5Z" fill="#17F2E9"/>
</svg>
