<svg width="22" height="14" viewBox="0 0 22 14" fill="none" xmlns="http://www.w3.org/2000/svg">
    <path fill-rule="evenodd" clip-rule="evenodd" d="M15.0656 5.80394C15.096 5.76592 15.1448 5.74102 15.2024 5.74102H19.0641C19.12 5.74102 19.1686 5.76733 19.1994 5.80521C19.1592 5.78242 19.1127 5.76923 19.0637 5.76923H15.202C15.1526 5.76923 15.1059 5.78174 15.0656 5.80394ZM14.9989 6.19857C14.9001 6.13648 14.832 6.02936 14.832 5.899C14.832 5.69019 15.0067 5.54102 15.2024 5.54102H19.0641C19.2616 5.54102 19.4344 5.69937 19.4344 5.899C19.4344 6.02585 19.3646 6.13603 19.2631 6.19951C19.2132 6.25183 19.1417 6.2852 19.0637 6.2852H15.202C15.122 6.2852 15.0489 6.25234 14.9989 6.19857Z" fill="#FCFF5A"/>
    <path d="M15.0656 5.80394L14.9875 5.7415L15.1139 5.89152L15.0656 5.80394ZM19.1994 5.80521L19.15 5.89217L19.277 5.74212L19.1994 5.80521ZM14.9989 6.19857L15.0722 6.1305L15.0632 6.12089L15.0521 6.11391L14.9989 6.19857ZM19.2631 6.19951L19.2101 6.11472L19.1994 6.12141L19.1907 6.13054L19.2631 6.19951ZM15.2024 5.64102C15.1153 5.64102 15.0374 5.67904 14.9875 5.7415L15.1437 5.86639C15.1546 5.8528 15.1743 5.84102 15.2024 5.84102V5.64102ZM19.0641 5.64102H15.2024V5.84102H19.0641V5.64102ZM19.277 5.74212C19.2284 5.68244 19.152 5.64102 19.0641 5.64102V5.84102C19.0879 5.84102 19.1087 5.85222 19.1218 5.86831L19.277 5.74212ZM19.0637 5.86923C19.0947 5.86923 19.1242 5.87755 19.15 5.89217L19.2488 5.71826C19.1942 5.68729 19.1308 5.66923 19.0637 5.66923V5.86923ZM15.202 5.86923H19.0637V5.66923H15.202V5.86923ZM15.1139 5.89152C15.1394 5.87743 15.1696 5.86923 15.202 5.86923V5.66923C15.1357 5.66923 15.0723 5.68604 15.0173 5.71637L15.1139 5.89152ZM15.0521 6.11391C14.98 6.06855 14.932 5.99212 14.932 5.899H14.732C14.732 6.06661 14.8203 6.20442 14.9457 6.28323L15.0521 6.11391ZM14.932 5.899C14.932 5.75208 15.0551 5.64102 15.2024 5.64102V5.44102C14.9584 5.44102 14.732 5.6283 14.732 5.899H14.932ZM15.2024 5.64102H19.0641V5.44102H15.2024V5.64102ZM19.0641 5.64102C19.2112 5.64102 19.3344 5.75931 19.3344 5.899H19.5344C19.5344 5.63944 19.312 5.44102 19.0641 5.44102V5.64102ZM19.3344 5.899C19.3344 5.98768 19.2856 6.06747 19.2101 6.11472L19.3161 6.28431C19.4436 6.2046 19.5344 6.06401 19.5344 5.899H19.3344ZM19.1907 6.13054C19.1588 6.16403 19.113 6.1852 19.0637 6.1852V6.3852C19.1704 6.3852 19.2677 6.33964 19.3355 6.26849L19.1907 6.13054ZM19.0637 6.1852H15.202V6.3852H19.0637V6.1852ZM15.202 6.1852C15.1494 6.1852 15.1029 6.16362 15.0722 6.1305L14.9256 6.26663C14.9948 6.34106 15.0946 6.3852 15.202 6.3852V6.1852Z" fill="#FCFF5A"/>
    <path fill-rule="evenodd" clip-rule="evenodd" d="M13.966 7.22461C13.7704 7.22461 13.5957 7.37379 13.5957 7.5826C13.5957 7.7914 13.7704 7.94058 13.966 7.94058H20.585C20.7825 7.94058 20.9553 7.78222 20.9553 7.5826C20.9553 7.38297 20.7825 7.22461 20.585 7.22461H13.966Z" fill="#FCFF5A"/>
    <path d="M13.6957 7.5826C13.6957 7.43568 13.8187 7.32461 13.966 7.32461V7.12461C13.7221 7.12461 13.4957 7.3119 13.4957 7.5826H13.6957ZM13.966 7.84058C13.8187 7.84058 13.6957 7.72951 13.6957 7.5826H13.4957C13.4957 7.85329 13.7221 8.04058 13.966 8.04058V7.84058ZM20.585 7.84058H13.966V8.04058H20.585V7.84058ZM20.8553 7.5826C20.8553 7.72229 20.7321 7.84058 20.585 7.84058V8.04058C20.8329 8.04058 21.0553 7.84216 21.0553 7.5826H20.8553ZM20.585 7.32461C20.7321 7.32461 20.8553 7.4429 20.8553 7.5826H21.0553C21.0553 7.32304 20.8329 7.12461 20.585 7.12461V7.32461ZM13.966 7.32461H20.585V7.12461H13.966V7.32461Z" fill="#FCFF5A"/>
    <path fill-rule="evenodd" clip-rule="evenodd" d="M14.9231 8.9082C14.7255 8.9082 14.5527 9.06656 14.5527 9.26619C14.5527 9.46582 14.7255 9.62417 14.9231 9.62417H19.8274C20.025 9.62417 20.1978 9.46582 20.1978 9.26619C20.1978 9.06656 20.025 8.9082 19.8274 8.9082H14.9231Z" fill="#FCFF5A"/>
    <path d="M14.6527 9.26619C14.6527 9.12649 14.7759 9.0082 14.9231 9.0082V8.8082C14.6751 8.8082 14.4527 9.00663 14.4527 9.26619H14.6527ZM14.9231 9.52417C14.7759 9.52417 14.6527 9.40588 14.6527 9.26619H14.4527C14.4527 9.52575 14.6751 9.72417 14.9231 9.72417V9.52417ZM19.8274 9.52417H14.9231V9.72417H19.8274V9.52417ZM20.0978 9.26619C20.0978 9.40588 19.9745 9.52417 19.8274 9.52417V9.72417C20.0754 9.72417 20.2978 9.52575 20.2978 9.26619H20.0978ZM19.8274 9.0082C19.9745 9.0082 20.0978 9.12649 20.0978 9.26619H20.2978C20.2978 9.00663 20.0754 8.8082 19.8274 8.8082V9.0082ZM14.9231 9.0082H19.8274V8.8082H14.9231V9.0082Z" fill="#FCFF5A"/>
    <path fill-rule="evenodd" clip-rule="evenodd" d="M5.82812 12.3301C5.82812 11.3923 5.12216 10.6777 4.19558 10.6777C3.269 10.6777 2.56303 11.3923 2.56303 12.3301C2.56303 13.268 3.269 13.9825 4.19558 13.9825C5.12216 13.9825 5.82812 13.268 5.82812 12.3301ZM4.19749 11.5137C4.66073 11.5137 5.01367 11.8666 5.01367 12.3299C5.01367 12.7931 4.66073 13.146 4.19749 13.146C3.73426 13.146 3.38132 12.7931 3.38132 12.3299C3.38132 11.8666 3.73426 11.5137 4.19749 11.5137Z" fill="white"/>
    <path fill-rule="evenodd" clip-rule="evenodd" d="M12.7522 10.6777C13.6788 10.6777 14.3848 11.3923 14.3848 12.3301C14.3848 13.268 13.6788 13.9825 12.7522 13.9825C11.8256 13.9825 11.1197 13.268 11.1197 12.3301C11.1197 11.3923 11.8256 10.6777 12.7522 10.6777ZM12.7502 11.5127C13.2135 11.5127 13.5664 11.8656 13.5664 12.3289C13.5664 12.7921 13.2135 13.1451 12.7502 13.1451C12.287 13.1451 11.934 12.7921 11.934 12.3289C11.934 11.8656 12.287 11.5127 12.7502 11.5127Z" fill="white"/>
    <path fill-rule="evenodd" clip-rule="evenodd" d="M15.1211 11.4712C14.9916 11.4712 14.8792 11.3857 14.8295 11.2662C14.5021 10.4783 13.7339 9.90162 12.7783 9.90162C11.8302 9.90162 11.0236 10.4693 10.7239 11.2477C10.6744 11.3763 10.5568 11.4713 10.4191 11.4715L6.53532 11.4779C6.4032 11.4781 6.28838 11.3909 6.23743 11.269C5.90904 10.4833 5.1419 9.90869 4.18802 9.90869C3.32043 9.90869 2.60725 10.3824 2.28374 11.0611C2.12198 11.3227 1.84994 11.4782 1.5779 11.4782C1.19557 11.4782 0.872065 11.1671 0.923532 10.849V8.38863C0.923532 8.02099 1.03382 7.65335 1.19558 7.34227L2.83517 2.93431C2.99693 2.62323 3.37925 2.41113 3.76158 2.41113H6.76267C7.145 2.41113 7.46851 2.72221 7.46851 3.08985V8.49918C7.46851 8.71179 7.64087 8.88415 7.85349 8.88415C8.0661 8.88415 8.23846 8.71179 8.23846 8.49918V1.2573C8.23846 0.684628 8.73108 0.210938 9.32662 0.210938H16.2387C16.8342 0.210938 17.2754 0.684628 17.2754 1.2573V5.43337V8.09876V10.4248C17.2754 10.9975 16.8342 11.4712 16.2387 11.4712H15.1211ZM14.6825 2.58184C14.8807 2.35703 15.233 2.33335 15.4654 2.51178C15.7124 2.69531 15.7427 3.03193 15.5411 3.25258L12.6559 6.49205C12.5524 6.60415 12.4041 6.67126 12.2484 6.67966L12.2428 6.6798H12.2199C12.0715 6.6798 11.924 6.62097 11.8207 6.52623L11.8193 6.52496L9.98354 4.77816C9.76301 4.56717 9.77374 4.23036 10.0021 4.02972C10.2263 3.83274 10.5781 3.84143 10.7928 4.04673L12.1908 5.37551L14.6825 2.58184ZM6.64258 3.49902C6.64258 3.36095 6.53065 3.24902 6.39258 3.24902H3.71869C3.61238 3.24902 3.5177 3.31626 3.48266 3.41663L2.20031 7.09016C2.17362 7.16662 2.18562 7.25127 2.23251 7.3173C2.27939 7.38333 2.35536 7.42255 2.43634 7.42255H6.39258C6.53065 7.42255 6.64258 7.31062 6.64258 7.17255V3.49902Z" fill="white"/>
</svg>
