<svg width="14" height="14" viewBox="0 0 14 14" fill="none" xmlns="http://www.w3.org/2000/svg">
<path d="M11.3273 1.62031H10.0273V0.970312C10.0273 0.797922 9.95886 0.632592 9.83696 0.510693C9.71507 0.388794 9.54973 0.320313 9.37734 0.320312C9.20495 0.320313 9.03962 0.388794 8.91772 0.510693C8.79583 0.632592 8.72734 0.797922 8.72734 0.970312V1.62031H4.82734V0.970312C4.82734 0.797922 4.75886 0.632592 4.63696 0.510693C4.51506 0.388794 4.34973 0.320313 4.17734 0.320312C4.00495 0.320313 3.83962 0.388794 3.71772 0.510693C3.59583 0.632592 3.52734 0.797922 3.52734 0.970312V1.62031H2.22734C1.71017 1.62031 1.21418 1.82576 0.848486 2.19145C0.48279 2.55715 0.277344 3.05314 0.277344 3.57031V11.3703C0.277344 11.8875 0.48279 12.3835 0.848486 12.7492C1.21418 13.1149 1.71017 13.3203 2.22734 13.3203H11.3273C11.8445 13.3203 12.3405 13.1149 12.7062 12.7492C13.0719 12.3835 13.2773 11.8875 13.2773 11.3703V3.57031C13.2773 3.05314 13.0719 2.55715 12.7062 2.19145C12.3405 1.82576 11.8445 1.62031 11.3273 1.62031ZM11.9773 11.3703C11.9773 11.5427 11.9089 11.708 11.787 11.8299C11.6651 11.9518 11.4997 12.0203 11.3273 12.0203H2.22734C2.05495 12.0203 1.88962 11.9518 1.76772 11.8299C1.64583 11.708 1.57734 11.5427 1.57734 11.3703V6.82031H11.9773V11.3703ZM11.9773 5.52031H1.57734V3.57031C1.57734 3.39792 1.64583 3.23259 1.76772 3.11069C1.88962 2.98879 2.05495 2.92031 2.22734 2.92031H3.52734V3.57031C3.52734 3.7427 3.59583 3.90803 3.71772 4.02993C3.83962 4.15183 4.00495 4.22031 4.17734 4.22031C4.34973 4.22031 4.51506 4.15183 4.63696 4.02993C4.75886 3.90803 4.82734 3.7427 4.82734 3.57031V2.92031H8.72734V3.57031C8.72734 3.7427 8.79583 3.90803 8.91772 4.02993C9.03962 4.15183 9.20495 4.22031 9.37734 4.22031C9.54973 4.22031 9.71507 4.15183 9.83696 4.02993C9.95886 3.90803 10.0273 3.7427 10.0273 3.57031V2.92031H11.3273C11.4997 2.92031 11.6651 2.98879 11.787 3.11069C11.9089 3.23259 11.9773 3.39792 11.9773 3.57031V5.52031Z" fill="currentColor"/>
</svg>

