<svg width="17" height="19" viewBox="0 0 17 19" fill="none" xmlns="http://www.w3.org/2000/svg">
<path d="M5.94476 10.713C5.94476 10.4474 5.77882 10.2891 5.48604 10.2891C5.36648 10.2891 5.28551 10.3022 5.24316 10.3147V11.1668C5.29331 11.1793 5.35496 11.1835 5.43993 11.1835C5.752 11.1835 5.94476 11.0084 5.94476 10.713Z" fill="currentColor"/>
<path d="M7.7562 10.2988C7.62508 10.2988 7.54035 10.3114 7.49023 10.3244V12.2115C7.54038 12.2246 7.62135 12.2246 7.69455 12.2246C8.22645 12.2287 8.57336 11.9036 8.57336 11.2147C8.57712 10.6156 8.26101 10.2988 7.7562 10.2988Z" fill="currentColor"/>
<path d="M11.1246 1.67432H5.34092C4.49598 1.67432 3.8083 2.43852 3.8083 3.37629V8.42057H3.6586C3.31758 8.42057 3.04102 8.7274 3.04102 9.10643V13.2657C3.04102 13.6447 3.31755 13.9515 3.6586 13.9515H3.8083V15.9635C3.8083 16.9023 4.49598 17.6655 5.34092 17.6655H13.2324C14.0768 17.6655 14.7646 16.9023 14.7646 15.9635V5.70243L11.1246 1.67432ZM4.66121 9.85704C4.8422 9.82307 5.09661 9.79747 5.45504 9.79747C5.81726 9.79747 6.07543 9.87425 6.2489 10.0285C6.4146 10.1738 6.52642 10.4137 6.52642 10.696C6.52642 10.9783 6.44169 11.2182 6.28752 11.3808C6.08699 11.5904 5.79044 11.6845 5.44354 11.6845C5.36633 11.6845 5.29713 11.6803 5.24301 11.6719V12.7033H4.66121V9.85704ZM13.2324 16.6232H5.34092C5.01375 16.6232 4.74734 16.3273 4.74734 15.9635V13.9515H12.1039C12.4449 13.9515 12.7215 13.6447 12.7215 13.2657V9.10643C12.7215 8.7274 12.4449 8.42057 12.1039 8.42057H4.74734V3.37629C4.74734 3.0135 5.01378 2.71765 5.34092 2.71765L10.7734 2.71135V4.94128C10.7734 5.59261 11.2493 6.1216 11.8363 6.1216L13.8034 6.11533L13.8255 15.9635C13.8255 16.3273 13.5596 16.6232 13.2324 16.6232ZM6.90158 12.6902V9.85704C7.11737 9.81889 7.39863 9.79747 7.69545 9.79747C8.18873 9.79747 8.5086 9.89574 8.75924 10.1053C9.02897 10.328 9.19841 10.683 9.19841 11.1926C9.19841 11.7446 9.01741 12.1257 8.76674 12.3609C8.49325 12.6133 8.07694 12.7331 7.56833 12.7331C7.26375 12.7331 7.04796 12.7116 6.90158 12.6902ZM11.1076 11.0128V11.5433H10.1749V12.7033H9.58533V9.81889H11.1731V10.3536H10.1749V11.0128H11.1076Z" fill="currentColor"/>
</svg>
