<svg width="17" height="16" viewBox="0 0 17 16" fill="none" xmlns="http://www.w3.org/2000/svg">
<path d="M15.4239 4.32915H13.7425V1.2158C13.7425 0.918872 13.5059 0.677734 13.2139 0.677734H4.24575C3.95375 0.677734 3.71718 0.918556 3.71718 1.2158V4.32915H2.03577C1.35577 4.32915 0.802734 4.89244 0.802734 5.58433V10.9965C0.802734 11.6887 1.35577 12.2517 2.03577 12.2517H3.71748V15.1394C3.71748 15.4363 3.95406 15.6774 4.24606 15.6774H13.2136C13.5053 15.6774 13.7421 15.4366 13.7421 15.1394V12.2517H15.4239C16.1039 12.2517 16.6569 11.6887 16.6569 10.9965V5.58433C16.6569 4.89244 16.1039 4.32915 15.4239 4.32915ZM4.77433 1.75355H12.6853V4.32915H4.77433V1.75355ZM12.6853 14.6019H4.77433C4.77433 14.4969 4.77433 10.3308 4.77433 10.2006H12.6853C12.6853 10.3339 12.6853 14.5007 12.6853 14.6019ZM13.2139 7.48821H11.8688C11.5771 7.48821 11.3402 7.24739 11.3402 6.95014C11.3402 6.6529 11.5768 6.41207 11.8688 6.41207H13.2139C13.5056 6.41207 13.7425 6.6529 13.7425 6.95014C13.7425 7.24739 13.5056 7.48821 13.2139 7.48821Z" fill="white"/>
</svg>
