<svg width="8" height="11" viewBox="0 0 8 11" fill="none" xmlns="http://www.w3.org/2000/svg">
<path fill-rule="evenodd" clip-rule="evenodd" d="M3.85667 10.5941C3.6548 10.6103 3.4465 10.5539 3.27416 10.4196L0.549735 8.29642C0.184404 8.01172 0.119043 7.48476 0.403747 7.11943C0.688451 6.7541 1.21541 6.68874 1.58074 6.97344L2.96315 8.05076V1.43532C2.96315 0.97215 3.33862 0.59668 3.80178 0.59668C4.26495 0.59668 4.64042 0.97215 4.64042 1.43532V8.05127L6.02813 6.98094C6.39488 6.69807 6.92151 6.76607 7.20438 7.13282C7.48725 7.49957 7.41925 8.02619 7.0525 8.30906L4.31397 10.4213C4.17945 10.525 4.0198 10.5833 3.85667 10.5941Z" fill="#FCFF5A"/>
</svg>
