<svg width="21" height="20" viewBox="0 0 21 20" fill="none" xmlns="http://www.w3.org/2000/svg">
<path d="M0.222656 10C0.222656 4.47715 4.69981 0 10.2227 0C15.7455 0 20.2227 4.47715 20.2227 10C20.2227 15.5228 15.7455 20 10.2227 20C4.69981 20 0.222656 15.5228 0.222656 10Z" fill="#689AFF"/>
<path fill-rule="evenodd" clip-rule="evenodd" d="M8.01028 6.51284C7.65853 6.16109 7.08822 6.16109 6.73647 6.51284C6.38472 6.86459 6.38472 7.4349 6.73647 7.78665L8.94958 9.99976L6.73789 12.2115C6.38613 12.5632 6.38613 13.1335 6.73789 13.4853C7.08964 13.837 7.65994 13.837 8.0117 13.4853L10.2234 11.2736L12.4319 13.4821C12.7836 13.8338 13.3539 13.8338 13.7057 13.4821C14.0574 13.1303 14.0574 12.56 13.7057 12.2082L11.4972 9.99976L13.7071 7.78986C14.0589 7.43811 14.0589 6.8678 13.7071 6.51605C13.3554 6.1643 12.785 6.16429 12.4333 6.51605L10.2234 8.72595L8.01028 6.51284Z" fill="white"/>
</svg>
