<svg width="17" height="16" viewBox="0 0 17 16" fill="none" xmlns="http://www.w3.org/2000/svg">
<path d="M2.06348 3.11725L6.41754 1.81104V14.189L2.06348 12.8828V3.11725Z" fill="#D5EC4B"/>
<path fill-rule="evenodd" clip-rule="evenodd" d="M6.60267 1.56149C6.68155 1.62017 6.72803 1.7127 6.72803 1.81101V14.189C6.72803 14.2873 6.68155 14.3798 6.60267 14.4385C6.5238 14.4972 6.42182 14.5151 6.32766 14.4869L1.97359 13.1807C1.84204 13.1412 1.75195 13.0201 1.75195 12.8828V3.11723C1.75195 2.97988 1.84204 2.8588 1.97359 2.81934L6.32766 1.51312C6.42182 1.48487 6.5238 1.50281 6.60267 1.56149ZM2.37396 3.34862V12.6514L6.10602 13.771V2.22901L2.37396 3.34862Z" fill="#D5EC4B"/>
<path fill-rule="evenodd" clip-rule="evenodd" d="M7.38184 2.68198C7.38184 2.42433 7.5907 2.21547 7.84834 2.21547H11.0206C11.2782 2.21547 11.4871 2.42433 11.4871 2.68198V5.85422C11.4871 6.11187 11.2782 6.32073 11.0206 6.32073C10.7629 6.32073 10.5541 6.11187 10.5541 5.85422V3.14848H7.84834C7.5907 3.14848 7.38184 2.93962 7.38184 2.68198Z" fill="#D5EC4B"/>
<path d="M15.873 7.96894L13.6338 5.54311V10.3326L15.873 7.96894Z" fill="#D5EC4B"/>
<path fill-rule="evenodd" clip-rule="evenodd" d="M13.4646 5.10906C13.6435 5.03911 13.847 5.08597 13.9773 5.22711L16.2165 7.65295C16.383 7.83336 16.3812 8.11197 16.2124 8.29021L13.9731 10.6538C13.8418 10.7925 13.6392 10.8371 13.4618 10.7664C13.2844 10.6957 13.168 10.524 13.168 10.333V5.54354C13.168 5.35145 13.2857 5.179 13.4646 5.10906ZM14.101 6.7367V9.16227L15.235 7.96523L14.101 6.7367Z" fill="#D5EC4B"/>
<path fill-rule="evenodd" clip-rule="evenodd" d="M11.0216 9.74072C11.2792 9.74072 11.4881 9.94958 11.4881 10.2072V13.3173C11.4881 13.5749 11.2792 13.7838 11.0216 13.7838H7.84932C7.59167 13.7838 7.38281 13.5749 7.38281 13.3173C7.38281 13.0596 7.59167 12.8508 7.84932 12.8508H10.5551V10.2072C10.5551 9.94958 10.7639 9.74072 11.0216 9.74072Z" fill="#D5EC4B"/>
<path fill-rule="evenodd" clip-rule="evenodd" d="M8.34766 7.71936C8.34766 7.20407 8.76538 6.78635 9.28067 6.78635H13.8835C14.3988 6.78635 14.8166 7.20407 14.8166 7.71936V8.15477C14.8166 8.67006 14.3988 9.08778 13.8835 9.08778H9.28067C8.76538 9.08778 8.34766 8.67006 8.34766 8.15477V7.71936Z" fill="#D5EC4B"/>
</svg>
