<svg width="17" height="17" viewBox="0 0 17 17" fill="none" xmlns="http://www.w3.org/2000/svg">
<rect x="0.0800781" y="0.806641" width="16" height="16" rx="8" fill="#28447C"/>
<path fill-rule="evenodd" clip-rule="evenodd" d="M4.0957 8.80664C4.0957 8.39243 4.43149 8.05664 4.8457 8.05664H11.3137C11.7279 8.05664 12.0637 8.39243 12.0637 8.80664C12.0637 9.22085 11.7279 9.55664 11.3137 9.55664H4.8457C4.43149 9.55664 4.0957 9.22085 4.0957 8.80664Z" fill="white"/>
<path fill-rule="evenodd" clip-rule="evenodd" d="M8.08008 4.82227C8.49429 4.82227 8.83008 5.15805 8.83008 5.57227L8.83008 12.0402C8.83008 12.4544 8.49429 12.7902 8.08008 12.7902C7.66586 12.7902 7.33008 12.4544 7.33008 12.0402L7.33008 5.57227C7.33008 5.15805 7.66586 4.82227 8.08008 4.82227Z" fill="white"/>
</svg>
