<svg width="15" height="15" viewBox="0 0 15 15" fill="none" xmlns="http://www.w3.org/2000/svg">
<path d="M12.9657 4.28034L12.8953 2.13699C12.8897 1.96606 12.7502 1.83147 12.5816 1.83147C12.5781 1.83147 12.5747 1.83147 12.5709 1.83179L12.1316 1.84632C12.0484 1.84917 11.9695 1.88487 11.9127 1.94616C11.8559 2.00745 11.8254 2.08865 11.8282 2.17237L11.849 2.80299C11.506 2.488 11.1327 2.20808 10.7332 1.96606C9.71794 1.35314 8.57832 1.0293 7.43744 1.0293C5.61575 1.0293 3.93662 1.78471 2.70939 3.15653C1.62441 4.36943 0.976562 6.00412 0.976562 7.52949C0.976562 7.70389 1.11725 7.84543 1.29059 7.84543H1.73024C1.90358 7.84543 2.04427 7.70389 2.04427 7.52949C2.04427 6.26224 2.58974 4.89611 3.50294 3.87499C4.52512 2.73254 5.92224 2.1035 7.43744 2.1035C8.38488 2.1035 9.33419 2.37458 10.1833 2.88704C10.5752 3.12399 10.9361 3.4036 11.2617 3.72175L10.3193 3.69048C10.3159 3.69048 10.3124 3.69016 10.3089 3.69016C10.2295 3.69016 10.1526 3.72049 10.0945 3.77546C10.0335 3.83265 9.99806 3.91195 9.99523 3.99568L9.98078 4.43768C9.97513 4.61208 10.1111 4.75804 10.2841 4.76373L12.4145 4.8345C12.4205 4.83482 12.4265 4.83482 12.4321 4.83482C12.7216 4.83482 12.9559 4.60671 12.9657 4.31541C12.9657 4.31193 12.966 4.30846 12.966 4.30498V4.29045C12.966 4.28729 12.966 4.28381 12.9657 4.28034ZM12.6174 3.2371L12.5816 2.14742L12.6174 3.2371ZM12.5675 2.14805L12.1419 2.16226L12.5675 2.14805ZM12.1897 3.60707C12.1316 3.53945 12.0722 3.47342 12.0116 3.40834C12.0722 3.47342 12.1316 3.53945 12.1897 3.60707ZM6.95446 1.3642C6.79462 1.37683 6.63635 1.39547 6.47996 1.42012C6.63635 1.39516 6.79462 1.37652 6.95446 1.3642ZM6.0152 1.51269C5.91314 1.53733 5.81202 1.5645 5.71184 1.59452C5.81202 1.5645 5.91314 1.53733 6.0152 1.51269ZM5.26717 1.74648C5.16982 1.78408 5.07373 1.82452 4.97826 1.86717C5.07342 1.82452 5.16982 1.7844 5.26717 1.74648ZM4.55778 2.07728C4.64947 2.02673 4.74243 1.97902 4.83632 1.93352C4.74243 1.97902 4.64947 2.02673 4.55778 2.07728C4.46608 2.12783 4.37564 2.18059 4.28645 2.23588C4.37564 2.18059 4.46608 2.12751 4.55778 2.07728ZM4.02267 2.40933C3.84964 2.5297 3.68194 2.66019 3.52022 2.79984C3.68194 2.66019 3.84964 2.53002 4.02267 2.40933ZM2.94271 3.3679C3.052 3.24563 3.16536 3.12841 3.28187 3.01657C3.16536 3.12841 3.05231 3.24563 2.94271 3.3679C2.78099 3.54862 2.62962 3.73913 2.48894 3.93723C2.62962 3.73913 2.7813 3.54862 2.94271 3.3679ZM2.17334 4.42725C2.12435 4.51098 2.07724 4.59596 2.03202 4.68158C2.07724 4.59596 2.12435 4.51098 2.17334 4.42725ZM1.73024 7.52949C1.73024 7.36172 1.73934 7.19206 1.75693 7.02208C1.76949 6.90044 1.78676 6.77849 1.8078 6.65685C1.78645 6.77881 1.76949 6.90076 1.75693 7.02208C1.73934 7.19206 1.73024 7.36172 1.73024 7.52949ZM1.81471 6.61799C1.82884 6.53964 1.84486 6.46097 1.86244 6.38262C1.84486 6.46097 1.82916 6.53932 1.81471 6.61799ZM1.89322 6.25498C1.91457 6.16999 1.93781 6.085 1.96325 6.00033C1.93781 6.085 1.91457 6.16967 1.89322 6.25498ZM2.09043 5.62183C2.12152 5.53842 2.15449 5.45533 2.18967 5.37287C2.15449 5.45533 2.12152 5.53842 2.09043 5.62183ZM11.994 4.06234L10.3089 4.00642L11.994 4.06234ZM10.302 4.22726L10.2948 4.44842L11.36 4.48381L10.2948 4.44842L10.302 4.22726ZM12.4321 4.51919C12.4296 4.51919 12.4274 4.51919 12.4249 4.51919C12.4299 4.51951 12.4349 4.51919 12.44 4.51887C12.4375 4.51887 12.4349 4.51919 12.4321 4.51919ZM12.4506 4.51824C12.4544 4.51793 12.4582 4.5173 12.4619 4.51698C12.4582 4.5173 12.4544 4.51793 12.4506 4.51824ZM12.4723 4.5154C12.4761 4.51477 12.4795 4.51382 12.4833 4.51287C12.4795 4.51382 12.4761 4.51477 12.4723 4.5154ZM12.4933 4.51034C12.4968 4.5094 12.5003 4.50813 12.504 4.50687C12.5003 4.50813 12.4968 4.5094 12.4933 4.51034ZM12.5134 4.50339C12.5169 4.50213 12.5204 4.50055 12.5235 4.49897C12.52 4.50055 12.5169 4.50213 12.5134 4.50339ZM12.5326 4.49486C12.5357 4.49328 12.5392 4.49139 12.5423 4.48949C12.5389 4.49107 12.5357 4.49297 12.5326 4.49486ZM12.5508 4.48412C12.554 4.48223 12.5568 4.48001 12.5599 4.4778C12.5568 4.48001 12.554 4.48223 12.5508 4.48412ZM12.5678 4.47212C12.5706 4.4699 12.5734 4.46738 12.5763 4.46485C12.5734 4.46706 12.5706 4.46959 12.5678 4.47212ZM12.5835 4.45821C12.5863 4.45569 12.5888 4.45284 12.5913 4.45C12.5888 4.45284 12.5863 4.45569 12.5835 4.45821ZM12.6516 4.30751C12.6513 4.31446 12.6507 4.3211 12.6501 4.32773C12.651 4.3211 12.6513 4.31414 12.6516 4.30751ZM12.6485 4.33563C12.6475 4.34037 12.6469 4.34479 12.646 4.34953C12.6472 4.34479 12.6479 4.34005 12.6485 4.33563ZM12.6435 4.35774C12.6422 4.36185 12.6413 4.36596 12.64 4.37007C12.6413 4.36596 12.6425 4.36185 12.6435 4.35774ZM12.6365 4.37891C12.635 4.3827 12.6337 4.3865 12.6322 4.38997C12.6337 4.3865 12.6353 4.38239 12.6365 4.37891ZM12.6278 4.3985C12.6259 4.40198 12.6243 4.40545 12.6224 4.40893C12.6243 4.40545 12.6259 4.40198 12.6278 4.3985ZM12.6171 4.41714C12.6149 4.4203 12.613 4.42346 12.6108 4.42662C12.6133 4.42346 12.6152 4.4203 12.6171 4.41714ZM12.6051 4.4342C12.6029 4.43705 12.6007 4.44021 12.5982 4.44305C12.6004 4.44021 12.6026 4.43736 12.6051 4.4342Z" fill="currentColor"/>
<path d="M4.55778 2.07728C4.64947 2.02673 4.74243 1.97902 4.83632 1.93352C4.74243 1.97902 4.64947 2.02673 4.55778 2.07728ZM4.55778 2.07728C4.46608 2.12783 4.37564 2.18059 4.28645 2.23588C4.37564 2.18059 4.46608 2.12751 4.55778 2.07728ZM2.94271 3.3679C3.052 3.24563 3.16536 3.12841 3.28187 3.01657C3.16536 3.12841 3.05231 3.24563 2.94271 3.3679ZM2.94271 3.3679C2.78099 3.54862 2.62962 3.73913 2.48894 3.93723C2.62962 3.73913 2.7813 3.54862 2.94271 3.3679ZM12.9657 4.28034L12.8953 2.13699C12.8897 1.96606 12.7502 1.83147 12.5816 1.83147C12.5781 1.83147 12.5747 1.83147 12.5709 1.83179L12.1316 1.84632C12.0484 1.84917 11.9695 1.88487 11.9127 1.94616C11.8559 2.00745 11.8254 2.08865 11.8282 2.17237L11.849 2.80299C11.506 2.488 11.1327 2.20808 10.7332 1.96606C9.71794 1.35314 8.57832 1.0293 7.43744 1.0293C5.61575 1.0293 3.93662 1.78471 2.70939 3.15653C1.62441 4.36943 0.976562 6.00412 0.976562 7.52949C0.976562 7.70388 1.11725 7.84543 1.29059 7.84543H1.73024C1.90358 7.84543 2.04427 7.70388 2.04427 7.52949C2.04427 6.26224 2.58974 4.89611 3.50294 3.87499C4.52512 2.73254 5.92224 2.1035 7.43744 2.1035C8.38488 2.1035 9.33419 2.37458 10.1833 2.88704C10.5752 3.12399 10.9361 3.4036 11.2617 3.72175L10.3193 3.69048C10.3159 3.69048 10.3124 3.69016 10.3089 3.69016C10.2295 3.69016 10.1526 3.72049 10.0945 3.77546C10.0335 3.83265 9.99806 3.91195 9.99523 3.99568L9.98078 4.43768C9.97513 4.61208 10.1111 4.75804 10.2841 4.76373L12.4145 4.8345C12.4205 4.83482 12.4265 4.83482 12.4321 4.83482C12.7216 4.83482 12.9559 4.60671 12.9657 4.31541C12.9657 4.31193 12.966 4.30846 12.966 4.30498V4.29045C12.966 4.28729 12.966 4.28381 12.9657 4.28034ZM12.6174 3.2371L12.5816 2.14742L12.6174 3.2371ZM12.5675 2.14805L12.1419 2.16226L12.5675 2.14805ZM12.1897 3.60707C12.1316 3.53945 12.0722 3.47342 12.0116 3.40834C12.0722 3.47342 12.1316 3.53945 12.1897 3.60707ZM6.95446 1.3642C6.79462 1.37683 6.63635 1.39547 6.47996 1.42012C6.63635 1.39516 6.79462 1.37652 6.95446 1.3642ZM6.0152 1.51269C5.91314 1.53733 5.81202 1.5645 5.71184 1.59452C5.81202 1.5645 5.91314 1.53733 6.0152 1.51269ZM5.26717 1.74648C5.16982 1.78408 5.07373 1.82452 4.97826 1.86717C5.07342 1.82452 5.16982 1.7844 5.26717 1.74648ZM4.02267 2.40933C3.84964 2.5297 3.68194 2.66019 3.52022 2.79984C3.68194 2.66019 3.84964 2.53002 4.02267 2.40933ZM2.17334 4.42725C2.12435 4.51098 2.07724 4.59596 2.03202 4.68158C2.07724 4.59596 2.12435 4.51098 2.17334 4.42725ZM1.73024 7.52949C1.73024 7.36172 1.73934 7.19206 1.75693 7.02208C1.76949 6.90044 1.78676 6.77849 1.8078 6.65685C1.78645 6.77881 1.76949 6.90076 1.75693 7.02208C1.73934 7.19206 1.73024 7.36172 1.73024 7.52949ZM1.81471 6.61799C1.82884 6.53964 1.84486 6.46097 1.86244 6.38262C1.84486 6.46097 1.82916 6.53932 1.81471 6.61799ZM1.89322 6.25498C1.91457 6.16999 1.93781 6.085 1.96325 6.00033C1.93781 6.085 1.91457 6.16967 1.89322 6.25498ZM2.09043 5.62183C2.12152 5.53842 2.15449 5.45533 2.18967 5.37287C2.15449 5.45533 2.12152 5.53842 2.09043 5.62183ZM11.994 4.06234L10.3089 4.00642L11.994 4.06234ZM10.302 4.22726L10.2948 4.44842L11.36 4.48381L10.2948 4.44842L10.302 4.22726ZM12.4321 4.51919C12.4296 4.51919 12.4274 4.51919 12.4249 4.51919C12.4299 4.51951 12.4349 4.51919 12.44 4.51887C12.4375 4.51887 12.4349 4.51919 12.4321 4.51919ZM12.4506 4.51824C12.4544 4.51793 12.4582 4.5173 12.4619 4.51698C12.4582 4.5173 12.4544 4.51793 12.4506 4.51824ZM12.4723 4.5154C12.4761 4.51477 12.4795 4.51382 12.4833 4.51287C12.4795 4.51382 12.4761 4.51477 12.4723 4.5154ZM12.4933 4.51034C12.4968 4.5094 12.5003 4.50813 12.504 4.50687C12.5003 4.50813 12.4968 4.5094 12.4933 4.51034ZM12.5134 4.50339C12.5169 4.50213 12.5204 4.50055 12.5235 4.49897C12.52 4.50055 12.5169 4.50213 12.5134 4.50339ZM12.5326 4.49486C12.5357 4.49328 12.5392 4.49139 12.5423 4.48949C12.5389 4.49107 12.5357 4.49297 12.5326 4.49486ZM12.5508 4.48412C12.554 4.48223 12.5568 4.48001 12.5599 4.4778C12.5568 4.48001 12.554 4.48223 12.5508 4.48412ZM12.5678 4.47212C12.5706 4.4699 12.5734 4.46738 12.5763 4.46485C12.5734 4.46706 12.5706 4.46959 12.5678 4.47212ZM12.5835 4.45821C12.5863 4.45569 12.5888 4.45284 12.5913 4.45C12.5888 4.45284 12.5863 4.45569 12.5835 4.45821ZM12.6516 4.30751C12.6513 4.31446 12.6507 4.3211 12.6501 4.32773C12.651 4.3211 12.6513 4.31414 12.6516 4.30751ZM12.6485 4.33563C12.6475 4.34037 12.6469 4.34479 12.646 4.34953C12.6472 4.34479 12.6479 4.34005 12.6485 4.33563ZM12.6435 4.35774C12.6422 4.36185 12.6413 4.36596 12.64 4.37007C12.6413 4.36596 12.6425 4.36185 12.6435 4.35774ZM12.6365 4.37891C12.635 4.3827 12.6337 4.3865 12.6322 4.38997C12.6337 4.3865 12.6353 4.38239 12.6365 4.37891ZM12.6278 4.3985C12.6259 4.40198 12.6243 4.40545 12.6224 4.40893C12.6243 4.40545 12.6259 4.40198 12.6278 4.3985ZM12.6171 4.41714C12.6149 4.4203 12.613 4.42346 12.6108 4.42662C12.6133 4.42346 12.6152 4.4203 12.6171 4.41714ZM12.6051 4.4342C12.6029 4.43705 12.6007 4.44021 12.5982 4.44305C12.6004 4.44021 12.6026 4.43736 12.6051 4.4342Z" stroke="currentColor" stroke-width="0.3"/>
<path d="M13.6623 7.21289H13.2226C13.0493 7.21289 12.9086 7.35443 12.9086 7.52883C12.9086 8.79608 12.3631 10.1622 11.4499 11.1833C10.4281 12.3258 9.03064 12.9552 7.51544 12.9552C6.568 12.9552 5.61869 12.6844 4.76955 12.1716C4.37763 11.9347 4.01681 11.6551 3.69116 11.3369L4.63326 11.3682C4.63671 11.3682 4.64016 11.3685 4.64362 11.3685C4.72307 11.3685 4.80001 11.3382 4.8581 11.2832C4.91902 11.226 4.95451 11.1467 4.95734 11.063L4.97178 10.6207C4.97743 10.4463 4.84146 10.3003 4.66811 10.2946L2.53898 10.2241C2.53239 10.2238 2.52548 10.2238 2.51888 10.2238C2.37851 10.2238 2.24128 10.2813 2.14204 10.3818C2.03873 10.4864 1.98189 10.6308 1.9866 10.7783L2.05694 12.9217C2.06259 13.0926 2.20202 13.2272 2.37066 13.2272C2.37411 13.2272 2.37757 13.2272 2.38134 13.2269L2.82067 13.2123C2.90388 13.2095 2.98271 13.1738 3.03955 13.1125C3.09639 13.0512 3.12685 12.97 3.12402 12.8863L3.10329 12.2553C3.44622 12.5703 3.8196 12.8503 4.21905 13.0923C5.23463 13.7052 6.37393 14.029 7.51481 14.029C9.33682 14.029 11.0159 13.2736 12.2429 11.9018C13.3263 10.6908 13.9735 9.05926 13.9757 7.5361C13.9757 7.53357 13.9757 7.53105 13.9757 7.52883C13.9763 7.35443 13.8359 7.21289 13.6623 7.21289ZM13.1178 8.54807C13.1005 8.63337 13.0813 8.71868 13.06 8.80366C13.081 8.71868 13.1005 8.63337 13.1178 8.54807ZM12.6533 9.93095C12.6147 10.0121 12.5742 10.0927 12.5321 10.1723C12.5742 10.0927 12.6147 10.0121 12.6533 9.93095ZM12.1832 10.753C12.1323 10.8279 12.0802 10.9018 12.0262 10.9745C12.0802 10.9015 12.1326 10.8279 12.1832 10.753ZM4.14933 12.1365C4.22344 12.1909 4.29881 12.2433 4.37512 12.2945C4.29881 12.2437 4.22344 12.1909 4.14933 12.1365C4.00111 12.0282 3.85791 11.9132 3.72005 11.7922C3.85791 11.9135 4.00111 12.0282 4.14933 12.1365ZM2.95884 10.9963L4.64393 11.0522L2.95884 10.9963ZM2.5192 10.5395C2.52202 10.5395 2.52516 10.5395 2.52799 10.5398C2.52265 10.5395 2.51731 10.5398 2.51197 10.5401C2.51417 10.5395 2.51668 10.5395 2.5192 10.5395ZM2.38165 10.5891C2.376 10.5938 2.37035 10.5989 2.36532 10.6042C2.37035 10.5989 2.376 10.5938 2.38165 10.5891ZM2.50161 10.5401C2.49753 10.5404 2.49376 10.541 2.48968 10.5414C2.49376 10.541 2.49753 10.5404 2.50161 10.5401ZM2.47994 10.5432C2.47586 10.5439 2.47209 10.5448 2.46832 10.5458C2.47209 10.5448 2.47586 10.5439 2.47994 10.5432ZM2.45859 10.5483C2.45451 10.5496 2.45074 10.5508 2.44697 10.5521C2.45074 10.5508 2.45451 10.5492 2.45859 10.5483ZM2.43786 10.5553C2.43409 10.5568 2.43001 10.5587 2.42624 10.5606C2.43033 10.5587 2.43409 10.5568 2.43786 10.5553ZM2.41808 10.5647C2.41431 10.5669 2.41054 10.5692 2.40677 10.5714C2.41054 10.5692 2.41431 10.5666 2.41808 10.5647ZM2.39924 10.5758C2.39515 10.5786 2.39139 10.5815 2.3873 10.5846C2.39139 10.5815 2.39515 10.5786 2.39924 10.5758ZM2.34993 10.621C2.31665 10.662 2.29906 10.7142 2.30094 10.7679C2.29937 10.7142 2.31665 10.662 2.34993 10.621ZM2.81062 12.8964L2.7632 11.4516L2.81062 12.8964ZM4.38172 12.8218C4.30572 12.7757 4.23067 12.7283 4.15687 12.6793C4.08276 12.6304 4.0099 12.5801 3.93799 12.5283C3.86608 12.4765 3.79511 12.4234 3.72539 12.3688C3.79511 12.4234 3.86608 12.4765 3.93799 12.5283C4.0099 12.5801 4.08307 12.6304 4.15687 12.6793C4.23067 12.7283 4.30572 12.7757 4.38172 12.8218C4.56291 12.9311 4.74819 13.031 4.93692 13.1207C4.74819 13.0307 4.56291 12.9311 4.38172 12.8218ZM5.22206 13.2477C5.34988 13.3011 5.47926 13.3498 5.60958 13.394C5.47926 13.3498 5.35019 13.3011 5.22206 13.2477ZM6.20247 13.5627C6.26904 13.5779 6.33562 13.5921 6.40251 13.6051C6.33562 13.5924 6.26904 13.5782 6.20247 13.5627ZM7.00765 13.6907C7.07516 13.6967 7.14268 13.7014 7.21051 13.7049C7.14299 13.7014 7.07548 13.6967 7.00765 13.6907ZM10.3951 12.9814C10.4868 12.9308 10.5772 12.8781 10.6664 12.8228C10.5772 12.8781 10.4868 12.9308 10.3951 12.9814Z" fill="currentColor"/>
<path d="M4.14933 12.1365C4.22344 12.1909 4.29881 12.2433 4.37512 12.2945C4.29881 12.2437 4.22344 12.1909 4.14933 12.1365ZM4.14933 12.1365C4.00111 12.0282 3.85791 11.9132 3.72005 11.7922C3.85791 11.9135 4.00111 12.0282 4.14933 12.1365ZM4.38172 12.8218C4.30572 12.7757 4.23067 12.7283 4.15687 12.6793C4.08276 12.6304 4.0099 12.5801 3.93799 12.5283C3.86608 12.4765 3.79511 12.4234 3.72539 12.3688C3.79511 12.4234 3.86608 12.4765 3.93799 12.5283C4.0099 12.5801 4.08307 12.6304 4.15687 12.6793C4.23067 12.7283 4.30572 12.7757 4.38172 12.8218ZM4.38172 12.8218C4.56291 12.9311 4.74819 13.031 4.93692 13.1207C4.74819 13.0307 4.56291 12.9311 4.38172 12.8218ZM13.6623 7.21289H13.2226C13.0493 7.21289 12.9086 7.35443 12.9086 7.52883C12.9086 8.79608 12.3631 10.1622 11.4499 11.1833C10.4281 12.3258 9.03064 12.9552 7.51544 12.9552C6.568 12.9552 5.61869 12.6844 4.76955 12.1716C4.37763 11.9347 4.01681 11.6551 3.69116 11.3369L4.63326 11.3682C4.63671 11.3682 4.64016 11.3685 4.64362 11.3685C4.72307 11.3685 4.80001 11.3382 4.8581 11.2832C4.91902 11.226 4.95451 11.1467 4.95734 11.063L4.97178 10.6207C4.97743 10.4463 4.84146 10.3003 4.66811 10.2946L2.53898 10.2241C2.53239 10.2238 2.52548 10.2238 2.51888 10.2238C2.37851 10.2238 2.24128 10.2813 2.14204 10.3818C2.03873 10.4864 1.98189 10.6308 1.9866 10.7783L2.05694 12.9217C2.06259 13.0926 2.20202 13.2272 2.37066 13.2272C2.37411 13.2272 2.37757 13.2272 2.38134 13.2269L2.82067 13.2123C2.90388 13.2095 2.98271 13.1738 3.03955 13.1125C3.09639 13.0512 3.12685 12.97 3.12402 12.8863L3.10329 12.2553C3.44622 12.5703 3.8196 12.8503 4.21905 13.0923C5.23463 13.7052 6.37393 14.029 7.51481 14.029C9.33682 14.029 11.0159 13.2736 12.2429 11.9018C13.3263 10.6908 13.9735 9.05926 13.9757 7.5361C13.9757 7.53357 13.9757 7.53105 13.9757 7.52883C13.9763 7.35443 13.8359 7.21289 13.6623 7.21289ZM13.1178 8.54807C13.1005 8.63337 13.0813 8.71868 13.06 8.80366C13.081 8.71868 13.1005 8.63337 13.1178 8.54807ZM12.6533 9.93095C12.6147 10.0121 12.5742 10.0927 12.5321 10.1723C12.5742 10.0927 12.6147 10.0121 12.6533 9.93095ZM12.1832 10.753C12.1323 10.8279 12.0802 10.9018 12.0262 10.9745C12.0802 10.9015 12.1326 10.8279 12.1832 10.753ZM2.95884 10.9963L4.64393 11.0522L2.95884 10.9963ZM2.5192 10.5395C2.52202 10.5395 2.52516 10.5395 2.52799 10.5398C2.52265 10.5395 2.51731 10.5398 2.51197 10.5401C2.51417 10.5395 2.51668 10.5395 2.5192 10.5395ZM2.38165 10.5891C2.376 10.5938 2.37035 10.5989 2.36532 10.6042C2.37035 10.5989 2.376 10.5938 2.38165 10.5891ZM2.50161 10.5401C2.49753 10.5404 2.49376 10.541 2.48968 10.5414C2.49376 10.541 2.49753 10.5404 2.50161 10.5401ZM2.47994 10.5432C2.47586 10.5439 2.47209 10.5448 2.46832 10.5458C2.47209 10.5448 2.47586 10.5439 2.47994 10.5432ZM2.45859 10.5483C2.45451 10.5496 2.45074 10.5508 2.44697 10.5521C2.45074 10.5508 2.45451 10.5492 2.45859 10.5483ZM2.43786 10.5553C2.43409 10.5568 2.43001 10.5587 2.42624 10.5606C2.43033 10.5587 2.43409 10.5568 2.43786 10.5553ZM2.41808 10.5647C2.41431 10.5669 2.41054 10.5692 2.40677 10.5714C2.41054 10.5692 2.41431 10.5666 2.41808 10.5647ZM2.39924 10.5758C2.39515 10.5786 2.39139 10.5815 2.3873 10.5846C2.39139 10.5815 2.39515 10.5786 2.39924 10.5758ZM2.34993 10.621C2.31665 10.662 2.29906 10.7142 2.30094 10.7679C2.29937 10.7142 2.31665 10.662 2.34993 10.621ZM2.81062 12.8964L2.7632 11.4516L2.81062 12.8964ZM5.22206 13.2477C5.34988 13.3011 5.47926 13.3498 5.60958 13.394C5.47926 13.3498 5.35019 13.3011 5.22206 13.2477ZM6.20247 13.5627C6.26904 13.5779 6.33562 13.5921 6.40251 13.6051C6.33562 13.5924 6.26904 13.5782 6.20247 13.5627ZM7.00765 13.6907C7.07516 13.6967 7.14268 13.7014 7.21051 13.7049C7.14299 13.7014 7.07548 13.6967 7.00765 13.6907ZM10.3951 12.9814C10.4868 12.9308 10.5772 12.8781 10.6664 12.8228C10.5772 12.8781 10.4868 12.9308 10.3951 12.9814Z" stroke="currentColor" stroke-width="0.3"/>
</svg>
