<svg width="17" height="17" viewBox="0 0 17 17" fill="none" xmlns="http://www.w3.org/2000/svg">
<rect x="0.798828" y="0.608398" width="16" height="16" rx="8" fill="#689AFF"/>
<path fill-rule="evenodd" clip-rule="evenodd" d="M4.81445 8.6084C4.81445 8.19418 5.15024 7.8584 5.56445 7.8584H12.0324C12.4466 7.8584 12.7824 8.19418 12.7824 8.6084C12.7824 9.02261 12.4466 9.3584 12.0324 9.3584H5.56445C5.15024 9.3584 4.81445 9.02261 4.81445 8.6084Z" fill="white"/>
<path fill-rule="evenodd" clip-rule="evenodd" d="M8.79883 4.62402C9.21304 4.62402 9.54883 4.95981 9.54883 5.37402L9.54883 11.842C9.54883 12.2562 9.21304 12.592 8.79883 12.592C8.38461 12.592 8.04883 12.2562 8.04883 11.842L8.04883 5.37402C8.04883 4.95981 8.38461 4.62402 8.79883 4.62402Z" fill="white"/>
</svg>
