<?xml version="1.0" encoding="utf-8"?>
<!-- Generator: Adobe Illustrator 25.2.1, SVG Export Plug-In . SVG Version: 6.00 Build 0)  -->
<svg version="1.1" id="레이어_1" xmlns="http://www.w3.org/2000/svg" xmlns:xlink="http://www.w3.org/1999/xlink" x="0px"
	 y="0px" viewBox="0 0 12 12" style="enable-background:new 0 0 12 12;" xml:space="preserve">
<style type="text/css">
	.st0{fill-rule:evenodd;clip-rule:evenodd;fill:#1A2D3E;}
</style>
<path class="st0" d="M6,12c3.3,0,6-2.7,6-6c0-3.3-2.7-6-6-6S0,2.7,0,6C0,9.3,2.7,12,6,12z M7,5.8C6.7,6.1,6.3,6.4,6.4,7.4H5.5
	c-0.2-1.3,0.3-1.7,0.7-2c0.3-0.2,0.5-0.4,0.5-0.9C6.7,4,6.5,3.7,6,3.7S5.3,4,5.2,4.7h-1c0.1-1.4,1-1.9,1.8-1.8
	c0.9,0,1.7,0.6,1.7,1.5C7.7,5.2,7.4,5.5,7,5.8z M5.4,8h1.2v1.1H5.4V8z"/>
</svg>
