<svg width="11" height="11" viewBox="0 0 11 11" fill="none" xmlns="http://www.w3.org/2000/svg">
<path d="M0.965695 5.3716C0.715183 5.3716 0.512103 5.57468 0.512103 5.8252C0.512103 6.07571 0.715183 6.27879 0.965695 6.27879L5.05881 6.27879L5.05881 10.3718C5.05881 10.6223 5.26189 10.8254 5.51241 10.8254C5.76292 10.8254 5.966 10.6223 5.966 10.3718L5.966 6.27879L10.0585 6.27879C10.309 6.27879 10.5121 6.07571 10.5121 5.8252C10.5121 5.57468 10.309 5.3716 10.0585 5.3716L5.966 5.3716L5.966 1.27899C5.966 1.02848 5.76292 0.825401 5.51241 0.825401C5.26189 0.825401 5.05881 1.02848 5.05881 1.27899L5.05881 5.3716L0.965695 5.3716Z" fill="currentColor"/>
</svg>
