<svg width="17" height="17" viewBox="0 0 17 17" fill="none" xmlns="http://www.w3.org/2000/svg">
<rect x="0.806641" y="0.479492" width="16" height="16" rx="8" fill="#28447C"/>
<path fill-rule="evenodd" clip-rule="evenodd" d="M4.82227 8.47949C4.82227 8.06528 5.15805 7.72949 5.57227 7.72949H12.0402C12.4544 7.72949 12.7902 8.06528 12.7902 8.47949C12.7902 8.89371 12.4544 9.22949 12.0402 9.22949H5.57227C5.15805 9.22949 4.82227 8.89371 4.82227 8.47949Z" fill="white"/>
<path fill-rule="evenodd" clip-rule="evenodd" d="M8.80664 4.49512C9.22085 4.49512 9.55664 4.8309 9.55664 5.24512L9.55664 11.7131C9.55664 12.1273 9.22085 12.4631 8.80664 12.4631C8.39243 12.4631 8.05664 12.1273 8.05664 11.7131L8.05664 5.24512C8.05664 4.8309 8.39243 4.49512 8.80664 4.49512Z" fill="white"/>
</svg>
