<svg width="21" height="20" viewBox="0 0 21 20" fill="none" xmlns="http://www.w3.org/2000/svg">
<path d="M9.71767 14.5562H8.57407V15.3555C8.57407 15.4087 8.51848 15.4544 8.447 15.4544H7.94668C7.8752 15.4544 7.81961 15.4087 7.81961 15.3555V14.5562H6.67601C6.53306 14.5562 6.42188 14.6323 6.42188 14.7312V16.8246C6.42188 16.9236 6.53306 16.9997 6.67601 16.9997H9.71767C9.86062 16.9997 9.97181 16.9236 9.97181 16.8246V14.7312C9.97181 14.6323 9.86062 14.5562 9.71767 14.5562Z" fill="#17F2E9"/>
<path d="M14.0458 14.5562H12.9022V15.3555C12.9022 15.4087 12.8466 15.4544 12.7751 15.4544H12.2748C12.2033 15.4544 12.1477 15.4087 12.1477 15.3555V14.5562H11.0041C10.8612 14.5562 10.75 14.6323 10.75 14.7312V16.8246C10.75 16.9236 10.8612 16.9997 11.0041 16.9997H14.0458C14.1887 16.9997 14.2999 16.9236 14.2999 16.8246V14.7312C14.2999 14.6323 14.1887 14.5562 14.0458 14.5562Z" fill="#17F2E9"/>
<path d="M9.71962 11.2329H8.57602V12.0322C8.57602 12.0855 8.52043 12.1312 8.44896 12.1312H7.94863C7.87716 12.1312 7.82156 12.0855 7.82156 12.0322V11.2329H6.67796C6.53501 11.2329 6.42383 11.309 6.42383 11.408V13.4938C6.42383 13.5927 6.53501 13.6689 6.67796 13.6689H9.71962C9.86258 13.6689 9.97376 13.5927 9.97376 13.4938V11.4004C9.97376 11.309 9.86258 11.2329 9.71962 11.2329Z" fill="#17F2E9"/>
<path d="M14.0419 11.2329H12.8983V12.0322C12.8983 12.0855 12.8427 12.1312 12.7712 12.1312H12.2709C12.1994 12.1312 12.1438 12.0855 12.1438 12.0322V11.2329H11.0002C10.8573 11.2329 10.7461 11.309 10.7461 11.408V13.4938C10.7461 13.5927 10.8573 13.6689 11.0002 13.6689H14.0419C14.1848 13.6689 14.296 13.5927 14.296 13.4938V11.4004C14.296 11.309 14.1848 11.2329 14.0419 11.2329Z" fill="#17F2E9"/>
<path d="M17.2292 6.99071L10.4758 3.03182C10.4059 2.99107 10.3186 2.99107 10.2429 3.026L3.48948 6.75202C3.41962 6.79277 3.37305 6.86845 3.37305 6.95578V16.7366C3.37305 16.8647 3.47784 16.9694 3.60592 16.9694H4.7703C4.89838 16.9694 5.00318 16.8647 5.00318 16.7366V8.58591H15.7155V16.7366C15.7155 16.8647 15.8203 16.9694 15.9483 16.9694H17.1127C17.2408 16.9694 17.3456 16.8647 17.3456 16.7366V7.18866C17.3456 7.10715 17.299 7.03147 17.2292 6.99071Z" fill="#EDF2F7"/>
</svg>
