<svg width="21" height="20" viewBox="0 0 21 20" fill="none" xmlns="http://www.w3.org/2000/svg">
<path d="M17.5816 6.00487C17.3908 5.78342 17.2294 5.56196 17.0386 5.41433C16.7304 5.17073 16.3928 5.06738 16.1066 5.06738H13.8024C13.8024 5.06738 13.5823 5.06738 13.3108 5.06738H12.9365C12.665 5.06738 12.4302 5.25193 12.3641 5.51767V5.53244V10.6554V10.6628C12.3641 10.6628 12.3715 10.7366 12.3128 10.803C12.2467 10.8695 12.1293 10.9064 11.9605 10.9064H3.5548C3.23926 10.9138 2.98242 11.1574 2.98242 11.46V13.3276C2.98242 13.6303 3.23926 13.8739 3.5548 13.8739H4.93786C5.0406 15.0624 6.03859 15.9998 7.24206 15.9998C8.44552 15.9998 9.44352 15.0624 9.54625 13.8739H12.8484C12.9512 15.0624 13.9492 15.9998 15.1526 15.9998C16.3561 15.9998 17.3541 15.0624 17.4568 13.8739H18.9612C19.5336 13.8739 19.9959 13.4088 19.9959 12.833V11.054C20.0032 9.61458 17.9632 6.50684 17.5816 6.00487ZM16.0259 13.901C16.0259 14.3808 15.637 14.772 15.16 14.772C14.683 14.772 14.2941 14.3808 14.2941 13.901C14.2941 13.4212 14.683 13.0299 15.16 13.0299C15.637 13.0373 16.0259 13.4212 16.0259 13.901ZM17.2367 7.54029C17.2367 7.54029 18.0953 8.99451 18.0072 9.13476C17.9925 9.16429 17.9412 9.17905 17.8604 9.17167H13.3841L13.3695 6.10084H15.8424C16.4809 6.10084 16.8991 7.04571 17.2367 7.54029ZM7.2494 13.0373C7.72638 13.0373 8.1153 13.4285 8.1153 13.9084C8.1153 14.3882 7.72638 14.7794 7.2494 14.7794C6.77241 14.7794 6.38349 14.3882 6.38349 13.9084C6.38349 13.4212 6.77241 13.0373 7.2494 13.0373Z" fill="#EDF2F7"/>
<path d="M5.63405 10.2224H7.87857C8.10847 10.2224 8.28997 10.0007 8.28997 9.73618V7.78409C8.28997 7.51237 8.10242 7.29785 7.87857 7.29785H5.63405C5.40415 7.29785 5.22266 7.51952 5.22266 7.78409V9.73618C5.22266 10.0079 5.40415 10.2224 5.63405 10.2224Z" fill="#EDF2F7"/>
<path d="M9.02272 10.2224H11.2672C11.4971 10.2224 11.6786 10.0007 11.6786 9.73618V7.78409C11.6786 7.51237 11.4911 7.29785 11.2672 7.29785H9.02272C8.79283 7.29785 8.61133 7.51952 8.61133 7.78409V9.73618C8.61133 10.0079 8.79283 10.2224 9.02272 10.2224Z" fill="#EDF2F7"/>
<path d="M5.63405 6.92651H7.87857C8.10847 6.92651 8.28997 6.70485 8.28997 6.44028V4.48819C8.28997 4.22362 8.10242 4.00195 7.87252 4.00195H5.63405C5.40415 4.00195 5.22266 4.22362 5.22266 4.48819V6.44028C5.22266 6.70485 5.40415 6.92651 5.63405 6.92651Z" fill="#EDF2F7"/>
<path d="M9.02272 6.92505H11.2672C11.4971 6.92505 11.6786 6.70338 11.6786 6.43881V4.48672C11.6786 4.215 11.4911 4.00049 11.2672 4.00049H9.02272C8.79283 4.00049 8.61133 4.22215 8.61133 4.48672V6.43881C8.61133 6.70338 8.79283 6.92505 9.02272 6.92505Z" fill="#EDF2F7"/>
<path fill-rule="evenodd" clip-rule="evenodd" d="M1.01228 5.2178C1.00873 4.90389 1.26035 4.64863 1.57428 4.64766L3.85272 4.64062C4.16665 4.63966 4.42402 4.89335 4.42756 5.20726C4.43111 5.52117 4.17949 5.77643 3.86556 5.7774L1.58712 5.78444C1.27319 5.78541 1.01582 5.53172 1.01228 5.2178Z" fill="#17F2E9"/>
<path fill-rule="evenodd" clip-rule="evenodd" d="M1.64453 7.18903C1.64453 6.8751 1.89902 6.62061 2.21296 6.62061L3.8641 6.62061C4.17803 6.62061 4.43252 6.8751 4.43252 7.18903C4.43252 7.50296 4.17803 7.75746 3.8641 7.75746L2.21296 7.75746C1.89902 7.75746 1.64453 7.50296 1.64453 7.18903Z" fill="#17F2E9"/>
<path fill-rule="evenodd" clip-rule="evenodd" d="M0.359268 9.16266C0.359327 8.84873 0.613868 8.59428 0.9278 8.59433L3.86766 8.5948C4.18159 8.59485 4.43603 8.84938 4.43597 9.16332C4.43591 9.47725 4.18137 9.7317 3.86744 9.73165L0.927586 9.73118C0.613654 9.73113 0.359209 9.4766 0.359268 9.16266Z" fill="#17F2E9"/>
</svg>
