<svg width="16" height="16" viewBox="0 0 16 16" fill="none" xmlns="http://www.w3.org/2000/svg">
<path d="M8.56889 7.77539H6.98479C6.7416 7.77539 6.54476 7.97197 6.54476 8.21484V12.1699H5.57669C5.41007 12.1699 5.25782 12.264 5.18301 12.4128C5.10879 12.5616 5.12463 12.7397 5.22467 12.8728L7.42482 15.5388C7.50784 15.6495 7.63838 15.7148 7.77684 15.7148C7.9153 15.7148 8.04585 15.6495 8.12886 15.5388L10.329 12.8728C10.429 12.7397 10.4452 12.5616 10.3707 12.4128C10.2959 12.264 10.1439 12.1699 9.97699 12.1699H9.00892V8.21484C9.00892 7.97197 8.81208 7.77539 8.56889 7.77539Z" fill="currentColor"/>
<path d="M12.5735 5.13896C12.7697 3.99023 11.6371 3.23203 10.7415 3.41426C10.4176 1.47979 8.95174 0.714844 7.33741 0.714844C5.72631 0.714844 4.28184 1.52959 3.94213 3.38438C3.90106 3.38203 3.85941 3.38086 3.81716 3.38086C1.87604 3.38086 0.267578 4.95791 0.267578 6.89648C0.267578 8.83506 1.87604 10.4121 3.81716 10.4121H5.66529V8.21484C5.66529 7.48799 6.16957 6.89648 6.89738 6.89648H8.65751C9.38532 6.89648 9.86026 7.48799 9.86026 8.21484V10.4121H12.6178C14.0737 10.4121 15.2873 9.22939 15.2873 7.77539C15.2873 6.30674 14.0535 5.10264 12.5735 5.13896Z" fill="currentColor"/>
</svg>
