<svg width="21" height="20" viewBox="0 0 21 20" fill="none" xmlns="http://www.w3.org/2000/svg">
<path d="M9.86158 12.7511C9.63989 12.982 9.63989 13.4067 9.86158 13.6376L11.9767 15.5598C12.2763 15.8727 12.7376 15.6045 12.7376 15.1202L12.444 14.3603H15.4839C15.7416 14.3603 15.9453 14.0995 15.9453 13.7866V12.5872C15.9453 12.2668 15.7356 12.0135 15.4839 12.0135H12.444L12.7376 11.2685C12.7376 10.7842 12.2823 10.516 11.9767 10.8289L9.86158 12.7511Z" fill="#17F2E9"/>
<path d="M17.4114 6.39951L10.9377 2.25561C10.8603 2.21021 10.7637 2.21021 10.68 2.24912L3.32474 6.39951C3.24099 6.4449 3.18945 6.52921 3.18945 6.62648V17.5212C3.18945 17.6639 3.30541 17.7806 3.44713 17.7806H4.81569C4.95742 17.7806 5.07338 17.6639 5.07338 17.5212V8.44228H15.7171V17.5212C15.7171 17.6639 15.8331 17.7806 15.9748 17.7806H17.2696C17.4114 17.7806 17.5273 17.6639 17.5273 17.5212V6.62648C17.5402 6.53569 17.4951 6.4449 17.4114 6.39951Z" fill="#EDF2F7"/>
</svg>
