<svg width="11" height="10" viewBox="0 0 11 10" fill="none" xmlns="http://www.w3.org/2000/svg">
	<path fill-rule="evenodd" clip-rule="evenodd" d="M1.89353 0.880859H0.737456L1.7196 4.94781H0.289062V5.70564H1.85357L2.86123 9.96088H3.97206L4.92869 5.70564H6.16463L7.14678 9.96088H8.33451L9.26563 5.70564H10.7786V4.94781H9.44899L10.3419 0.880859H9.27573L8.48491 4.94781H6.98218L6.1786 1.42061H4.9397L4.17439 4.94781H2.73537L1.89353 0.880859ZM6.03348 4.94781H5.08608L5.58289 2.53739L6.03348 4.94781ZM3.44197 8.64276L2.8662 5.70564H4.01773L3.44197 8.64276ZM7.43611 7.07706L7.14013 5.70564H8.32932L8.07051 7.0761L7.71922 8.64852L7.43611 7.07706Z" fill="currentColor"/>
</svg>
