<svg width="7" height="12" viewBox="0 0 7 12" fill="none" xmlns="http://www.w3.org/2000/svg">
	<path fill-rule="evenodd" clip-rule="evenodd" d="M4.12745 10.6482C5.34831 10.4793 6.46897 9.85961 6.67004 8.56101L6.67045 8.55763L6.67335 8.52347C6.68469 8.39045 6.69543 8.26449 6.69543 8.13838C6.69543 6.8844 5.69927 6.21319 4.66706 5.78483L4.12745 5.58858V2.58864C4.68613 2.6395 5.2016 2.94169 5.61788 3.31625L5.65784 3.3522L6.22896 2.65307L6.19673 2.62135C5.87163 2.30142 5.56943 2.07169 5.23414 1.90982C4.91004 1.75335 4.55752 1.6615 4.12745 1.61103V0.604492H3.25668V1.60788C1.97976 1.67608 0.751925 2.50248 0.676376 3.85012C0.657151 4.13493 0.734143 4.49735 0.895147 4.83288C1.05609 5.16828 1.30373 5.48253 1.63124 5.66622C1.94458 5.86343 2.26985 6.01113 2.6045 6.15751L3.25668 6.40256V9.62356C2.89767 9.59835 2.48545 9.49233 2.10152 9.32425C1.69818 9.14766 1.33025 8.90443 1.08867 8.61914L1.04827 8.57143L0.375 9.42332L0.404693 9.45449C1.14867 10.2354 2.20804 10.6179 3.25668 10.6764V11.7045H4.12745V10.6482ZM4.07746 2.53467C4.09416 2.53571 4.11083 2.53696 4.12745 2.53843C4.68609 2.5879 5.19906 2.88164 5.61439 3.24579C5.62707 3.25691 5.63967 3.2681 5.65217 3.27935L5.65262 3.27879C5.21848 2.88828 4.67277 2.57104 4.07746 2.53443V2.53467ZM4.39948 10.5516C4.29338 10.5728 4.18586 10.5903 4.07746 10.6044V10.6044C4.18586 10.5904 4.29338 10.5728 4.39948 10.5516ZM4.07664 11.6543H3.30829V10.6288C2.25378 10.5799 1.18687 10.2015 0.442505 9.42011L1.04996 8.65152C1.04985 8.6514 1.04975 8.65127 1.04964 8.65114L0.441759 9.42029C1.1861 10.2016 2.253 10.5801 3.30748 10.6289V11.6545H4.07664V11.6543ZM3.30748 9.67646C3.30775 9.67647 3.30802 9.67648 3.30829 9.67649V6.36795L2.62596 6.11157C2.291 5.96506 1.96844 5.81856 1.65829 5.62322C1.02559 5.26917 0.690625 4.40235 0.727843 3.85297C0.789841 2.74459 1.65223 1.99193 2.67703 1.74312C1.6519 1.99173 0.789103 2.74449 0.72709 3.85315C0.689873 4.40254 1.02483 5.26935 1.65752 5.6234C1.96766 5.81874 2.29021 5.96525 2.62517 6.11175L3.30748 6.36813V9.67646ZM3.30748 1.65544C3.30775 1.65543 3.30802 1.65542 3.30829 1.65541V0.654492H3.30748V1.65544ZM3.30748 5.39102L3.30829 5.39126V2.52222C3.17896 2.5288 3.04322 2.5484 2.90754 2.58081C3.02529 2.55273 3.14308 2.53429 3.25668 2.52564C3.27371 2.52435 3.29065 2.52327 3.30748 2.52241V5.39102ZM2.24758 2.9162C2.54275 2.71737 2.91845 2.60221 3.25668 2.5758V5.32424L3.07561 5.27078C2.72948 5.14301 2.53483 5.05891 2.40253 4.98345C2.27189 4.90894 2.20135 4.84231 2.10298 4.74551L2.09944 4.7426C1.81778 4.51161 1.72073 4.17488 1.72073 3.80432C1.72073 3.42272 1.9374 3.12513 2.24758 2.9162ZM4.07746 6.62479V6.62433C4.62333 6.80746 5.21882 7.02722 5.52897 7.55219C5.67784 7.8574 5.67784 8.00391 5.67784 8.18704V8.30912C5.60577 9.069 5.15777 9.47574 4.50401 9.61307C5.15731 9.47556 5.60494 9.06885 5.67698 8.3093V8.18722C5.67698 8.00409 5.67698 7.85758 5.52811 7.55237C5.22757 7.04364 4.65907 6.82154 4.12745 6.64163L4.07746 6.62479ZM5.14281 9.27747C4.88581 9.4798 4.53807 9.58745 4.12745 9.61184V6.69452C4.65451 6.87362 5.19586 7.09109 5.48318 7.5758C5.55563 7.72462 5.59091 7.83283 5.60843 7.92479C5.62606 8.01732 5.62617 8.09539 5.62617 8.18722V8.30696C5.58345 8.75223 5.4091 9.06782 5.14281 9.27747Z" fill="currentColor"/>
</svg>
