<svg width="13" height="16" viewBox="0 0 13 16" fill="none" xmlns="http://www.w3.org/2000/svg">
<path d="M12.4899 0.404938C12.2458 0.299988 11.958 0.340762 11.7583 0.508824L10.7044 1.38033C10.6755 1.40409 10.6326 1.40409 10.6041 1.37998L9.17057 0.182274C8.91127 -0.0347164 8.51871 -0.0347164 8.25941 0.182274L6.82698 1.37856C6.79812 1.40267 6.75446 1.40267 6.72599 1.37856L5.29318 0.182274C5.03388 -0.0347164 4.64132 -0.0347164 4.38202 0.182274L2.94807 1.37998C2.91922 1.40409 2.87593 1.40409 2.84708 1.38033L1.79279 0.508824C1.51298 0.276587 1.08436 0.299988 0.835683 0.561298C0.723685 0.678303 0.662941 0.830055 0.66408 0.98677V14.0519C0.661422 14.4022 0.963626 14.688 1.33872 14.6905C1.50691 14.6916 1.66902 14.6345 1.79468 14.5302L2.84822 13.6587C2.87669 13.635 2.91997 13.635 2.94845 13.6591L4.38202 14.8568C4.64132 15.0738 5.03388 15.0738 5.29318 14.8568L6.72561 13.6605C6.75446 13.6364 6.79812 13.6364 6.8266 13.6605L8.25903 14.8568C8.51833 15.0738 8.91089 15.0738 9.17019 14.8568L10.6041 13.6591C10.633 13.635 10.6763 13.635 10.7051 13.6587L11.7598 14.5299C12.0396 14.7621 12.4682 14.7387 12.7169 14.4771C12.8281 14.3601 12.8893 14.2083 12.8881 14.0519V0.98677C12.8923 0.735742 12.7355 0.507051 12.4899 0.404938ZM3.17776 5.10853H6.95872C7.12652 5.10853 7.26244 5.23546 7.26244 5.39217C7.26244 5.54889 7.12652 5.67582 6.95872 5.67582H3.17776C3.00995 5.67582 2.87404 5.54889 2.87404 5.39217C2.87404 5.23546 3.00995 5.10853 3.17776 5.10853ZM10.3752 9.93054H3.17776C3.00995 9.93054 2.87404 9.80361 2.87404 9.64689C2.87404 9.49017 3.00995 9.36324 3.17776 9.36324H10.3756C10.5434 9.36324 10.6793 9.49017 10.6793 9.64689C10.6793 9.80361 10.543 9.93054 10.3752 9.93054ZM10.3752 7.80318H3.17776C3.00995 7.80318 2.87404 7.67625 2.87404 7.51953C2.87404 7.36282 3.00995 7.23588 3.17776 7.23588H10.3756C10.5434 7.23588 10.6793 7.36282 10.6793 7.51953C10.6793 7.67625 10.543 7.80318 10.3752 7.80318Z" fill="currentColor"/>
</svg>
