<svg width="72" height="72" viewBox="0 0 72 72" fill="none" xmlns="http://www.w3.org/2000/svg">
<rect width="72" height="72" fill="white"/>
<path fill-rule="evenodd" clip-rule="evenodd" d="M55.7 25C56.1575 25 56.5604 25.117 56.893 25.3387C57.2199 25.5566 57.4266 25.8407 57.555 26.0975C57.6816 26.3508 57.7404 26.5931 57.769 26.7645C57.7836 26.8524 57.7913 26.9276 57.7954 26.9843C57.7974 27.0128 57.7986 27.0371 57.7992 27.0565L57.7998 27.082L57.8 27.092L57.8 27.0962L57.8 27.0982C57.8 27.0986 57.8 27.1 56.9 27.1H57.8V44.5C57.8 44.9575 57.683 45.3604 57.4613 45.693C57.2434 46.0199 56.9593 46.2266 56.7025 46.355C56.4492 46.4816 56.2069 46.5404 56.0355 46.569C55.9476 46.5836 55.8724 46.5913 55.8157 46.5954C55.7872 46.5974 55.7629 46.5986 55.7435 46.5992L55.718 46.5998L55.708 46.6L55.7038 46.6L55.7018 46.6C55.7014 46.6 55.7 46.6 55.7 45.7V46.6H16.1C15.6425 46.6 15.2396 46.483 14.907 46.2613C14.5801 46.0434 14.3734 45.7593 14.245 45.5025C14.1184 45.2492 14.0596 45.0069 14.031 44.8355C14.0164 44.7476 14.0087 44.6724 14.0046 44.6157C14.0026 44.5872 14.0014 44.5629 14.0008 44.5435L14.0002 44.518L14 44.508L14 44.5038L14 44.5018C14 44.5014 14 44.5 14.9 44.5H14V27.1C14 26.6425 14.117 26.2396 14.3387 25.907C14.5566 25.5801 14.8407 25.3734 15.0975 25.245C15.3508 25.1184 15.5931 25.0596 15.7645 25.031C15.8524 25.0164 15.9276 25.0087 15.9843 25.0046C16.0128 25.0026 16.0371 25.0014 16.0565 25.0008L16.082 25.0002L16.092 25L16.0962 25L16.0982 25C16.0986 25 16.1 25 16.1 25.9C16.1 25 16.1002 25 16.1005 25H55.7ZM16.1126 26.8001C16.1123 26.8001 16.1128 26.8 16.1126 26.8001C16.1037 26.8007 16.0851 26.8024 16.0605 26.8065C16.0069 26.8154 15.9492 26.8316 15.9025 26.855C15.8593 26.8766 15.8434 26.8949 15.8363 26.9055C15.8363 26.9056 15.8364 26.9054 15.8363 26.9055C15.8322 26.9116 15.8 26.9596 15.8 27.1V44.4866C15.8 44.4869 15.8 44.4864 15.8 44.4866C15.8006 44.4955 15.8024 44.5149 15.8065 44.5395C15.8154 44.5931 15.8316 44.6508 15.855 44.6975C15.8766 44.7407 15.8949 44.7566 15.9055 44.7637C15.9116 44.7678 15.9596 44.8 16.1 44.8H55.6866C55.6869 44.8 55.6863 44.8 55.6866 44.8C55.6955 44.7994 55.7149 44.7976 55.7395 44.7935C55.7931 44.7846 55.8507 44.7684 55.8975 44.745C55.9407 44.7234 55.9566 44.7051 55.9637 44.6945C55.9678 44.6884 56 44.6404 56 44.5V27.1133C56 27.1131 56 27.1136 56 27.1133C55.9994 27.1044 55.9976 27.0851 55.9935 27.0605C55.9846 27.0069 55.9684 26.9492 55.945 26.9025C55.9234 26.8593 55.9051 26.8434 55.8945 26.8363C55.8884 26.8322 55.8404 26.8 55.7 26.8L16.1126 26.8001Z" fill="#3F3F3F"/>
<path d="M25.1 40.3C25.1 40.3 24.9 40.3 24.9 40.5V42.6C24.9 42.6 24.9 42.8 25.1 42.8H46.7C46.7 42.8 46.9 42.8 46.9 42.6V40.5C46.9 40.5 46.9 40.3 46.7 40.3C46.6 40.3 25.1 40.3 25.1 40.3Z" fill="#3F3F3F"/>
<path d="M48.4 40.3C48.4 40.3 48.2 40.3 48.2 40.5V42.6C48.2 42.6 48.2 42.8 48.4 42.8H54C54 42.8 54.2 42.8 54.2 42.6V40.5C54.2 40.5 54.2 40.3 54 40.3H48.4V40.3Z" fill="#3F3F3F"/>
<path d="M17.8 40.3C17.8 40.3 17.6 40.3 17.6 40.5V42.6C17.6 42.6 17.6 42.8 17.8 42.8H23.4C23.4 42.8 23.6 42.8 23.6 42.6V40.5C23.6 40.5 23.6 40.3 23.4 40.3C23.3 40.3 17.8 40.3 17.8 40.3Z" fill="#3F3F3F"/>
<path d="M29 36.3999C29 36.3999 28.8 36.3999 28.8 36.5999V38.6999C28.8 38.6999 28.8 38.8999 29 38.8999H31.1C31.1 38.8999 31.3 38.8999 31.3 38.6999V36.5999C31.3 36.5999 31.3 36.3999 31.1 36.3999H29Z" fill="#3F3F3F"/>
<path d="M25.1 36.3999C25.1 36.3999 24.9 36.3999 24.9 36.5999V38.6999C24.9 38.6999 24.9 38.8999 25.1 38.8999H27.2C27.2 38.8999 27.4 38.8999 27.4 38.6999V36.5999C27.4 36.5999 27.4 36.3999 27.2 36.3999H25.1Z" fill="#3F3F3F"/>
<path d="M17.8 36.3999C17.8 36.3999 17.6 36.3999 17.6 36.5999V38.6999C17.6 38.6999 17.6 38.8999 17.8 38.8999H23.4C23.4 38.8999 23.6 38.8999 23.6 38.6999V36.5999C23.6 36.5999 23.6 36.3999 23.4 36.3999H17.8Z" fill="#3F3F3F"/>
<path d="M32.9 36.3999C32.9 36.3999 32.7 36.3999 32.7 36.5999V38.6999C32.7 38.6999 32.7 38.8999 32.9 38.8999H35C35 38.8999 35.2 38.8999 35.2 38.6999V36.5999C35.2 36.5999 35.2 36.3999 35 36.3999H32.9Z" fill="#3F3F3F"/>
<path d="M36.8 36.3999C36.8 36.3999 36.6 36.3999 36.6 36.5999V38.6999C36.6 38.6999 36.6 38.8999 36.8 38.8999H38.9C38.9 38.8999 39.1 38.8999 39.1 38.6999V36.5999C39.1 36.5999 39.1 36.3999 38.9 36.3999H36.8Z" fill="#3F3F3F"/>
<path d="M40.6 36.3999C40.6 36.3999 40.4 36.3999 40.4 36.5999V38.6999C40.4 38.6999 40.4 38.8999 40.6 38.8999H42.7C42.7 38.8999 42.9 38.8999 42.9 38.6999V36.5999C42.9 36.5999 42.9 36.3999 42.7 36.3999H40.6Z" fill="#3F3F3F"/>
<path d="M44.5 36.3999C44.5 36.3999 44.3 36.3999 44.3 36.5999V38.6999C44.3 38.6999 44.3 38.8999 44.5 38.8999H46.6C46.6 38.8999 46.8 38.8999 46.8 38.6999V36.5999C46.8 36.5999 46.8 36.3999 46.6 36.3999H44.5Z" fill="#3F3F3F"/>
<path d="M48.4 36.3999C48.4 36.3999 48.2 36.3999 48.2 36.5999V38.6999C48.2 38.6999 48.2 38.8999 48.4 38.8999H54C54 38.8999 54.2 38.8999 54.2 38.6999V36.5999C54.2 36.5999 54.2 36.3999 54 36.3999H48.4Z" fill="#3F3F3F"/>
<path d="M27.3 32.6001C27.3 32.6001 27.1 32.6001 27.1 32.8001V34.9001C27.1 34.9001 27.1 35.1001 27.3 35.1001H29.4C29.4 35.1001 29.6 35.1001 29.6 34.9001V32.8001C29.6 32.8001 29.6 32.6001 29.4 32.6001H27.3Z" fill="#3F3F3F"/>
<path d="M23.4 32.6001C23.4 32.6001 23.2 32.6001 23.2 32.8001V34.9001C23.2 34.9001 23.2 35.1001 23.4 35.1001H25.5C25.5 35.1001 25.7 35.1001 25.7 34.9001V32.8001C25.7 32.8001 25.7 32.6001 25.5 32.6001H23.4Z" fill="#3F3F3F"/>
<path d="M17.8 32.6001C17.8 32.6001 17.6 32.6001 17.6 32.8001V34.9001C17.6 34.9001 17.6 35.1001 17.8 35.1001H21.6C21.6 35.1001 21.8 35.1001 21.8 34.9001V32.8001C21.8 32.8001 21.8 32.6001 21.6 32.6001H17.8Z" fill="#3F3F3F"/>
<path d="M31.1 32.6001C31.1 32.6001 30.9 32.6001 30.9 32.8001V34.9001C30.9 34.9001 30.9 35.1001 31.1 35.1001H33.2C33.2 35.1001 33.4 35.1001 33.4 34.9001V32.8001C33.4 32.8001 33.4 32.6001 33.2 32.6001H31.1Z" fill="#3F3F3F"/>
<path d="M35 32.6001C35 32.6001 34.8 32.6001 34.8 32.8001V34.9001C34.8 34.9001 34.8 35.1001 35 35.1001H37.1C37.1 35.1001 37.3 35.1001 37.3 34.9001V32.8001C37.3 32.8001 37.3 32.6001 37.1 32.6001H35Z" fill="#3F3F3F"/>
<path d="M38.9 32.6001C38.9 32.6001 38.7 32.6001 38.7 32.8001V34.9001C38.7 34.9001 38.7 35.1001 38.9 35.1001H41C41 35.1001 41.2 35.1001 41.2 34.9001V32.8001C41.2 32.8001 41.2 32.6001 41 32.6001H38.9Z" fill="#3F3F3F"/>
<path d="M42.8 32.6001C42.8 32.6001 42.6 32.6001 42.6 32.8001V34.9001C42.6 34.9001 42.6 35.1001 42.8 35.1001H44.9C44.9 35.1001 45.1 35.1001 45.1 34.9001V32.8001C45.1 32.8001 45.1 32.6001 44.9 32.6001H42.8Z" fill="#3F3F3F"/>
<path d="M46.7 32.6001C46.7 32.6001 46.5 32.6001 46.5 32.8001V34.9001C46.5 34.9001 46.5 35.1001 46.7 35.1001H48.8C48.8 35.1001 49 35.1001 49 34.9001V32.8001C49 32.8001 49 32.6001 48.8 32.6001H46.7Z" fill="#3F3F3F"/>
<path d="M50.6 32.6001C50.6 32.6001 50.4 32.6001 50.4 32.8001V34.9001C50.4 34.9001 50.4 35.1001 50.6 35.1001H54C54 35.1001 54.2 35.1001 54.2 34.9001V32.8001C54.2 32.8001 54.2 32.6001 54 32.6001H50.6Z" fill="#3F3F3F"/>
<path d="M36.7 28.7C36.7 28.7 36.5 28.7 36.5 28.9V31C36.5 31 36.5 31.2 36.7 31.2H38.8C38.8 31.2 39 31.2 39 31V28.9C39 28.9 39 28.7 38.8 28.7H36.7V28.7Z" fill="#3F3F3F"/>
<path d="M32.9 28.7C32.9 28.7 32.7 28.7 32.7 28.9V31C32.7 31 32.7 31.2 32.9 31.2H35C35 31.2 35.2 31.2 35.2 31V28.9C35.2 28.9 35.2 28.7 35 28.7H32.9V28.7Z" fill="#3F3F3F"/>
<path d="M29.1 28.7C29.1 28.7 28.9 28.7 28.9 28.9V31C28.9 31 28.9 31.2 29.1 31.2H31.2C31.2 31.2 31.4 31.2 31.4 31V28.9C31.4 28.9 31.4 28.7 31.2 28.7H29.1V28.7Z" fill="#3F3F3F"/>
<path d="M25.3 28.7C25.3 28.7 25.1 28.7 25.1 28.9V31C25.1 31 25.1 31.2 25.3 31.2H27.4C27.4 31.2 27.6 31.2 27.6 31V28.9C27.6 28.9 27.6 28.7 27.4 28.7H25.3V28.7Z" fill="#3F3F3F"/>
<path d="M21.5 28.7C21.5 28.7 21.3 28.7 21.3 28.9V31C21.3 31 21.3 31.2 21.5 31.2H23.6C23.6 31.2 23.8 31.2 23.8 31V28.9C23.8 28.9 23.8 28.7 23.6 28.7C23.7 28.7 21.5 28.7 21.5 28.7Z" fill="#3F3F3F"/>
<path d="M17.8 28.7C17.8 28.7 17.6 28.7 17.6 28.9V31C17.6 31 17.6 31.2 17.8 31.2H19.9C19.9 31.2 20.1 31.2 20.1 31V28.9C20.1 28.9 20.1 28.7 19.9 28.7H17.8V28.7Z" fill="#3F3F3F"/>
<path d="M40.4 28.7C40.4 28.7 40.2 28.7 40.2 28.9V31C40.2 31 40.2 31.2 40.4 31.2H42.5C42.5 31.2 42.7 31.2 42.7 31V28.9C42.7 28.9 42.7 28.7 42.5 28.7H40.4V28.7Z" fill="#3F3F3F"/>
<path d="M44.2 28.7C44.2 28.7 44 28.7 44 28.9V31C44 31 44 31.2 44.2 31.2H46.3C46.3 31.2 46.5 31.2 46.5 31V28.9C46.5 28.9 46.5 28.7 46.3 28.7H44.2V28.7Z" fill="#3F3F3F"/>
<path d="M48 28.7C48 28.7 47.8 28.7 47.8 28.9V31C47.8 31 47.8 31.2 48 31.2H50.1C50.1 31.2 50.3 31.2 50.3 31V28.9C50.3 28.9 50.3 28.7 50.1 28.7H48V28.7Z" fill="#3F3F3F"/>
<path d="M51.8 28.7C51.8 28.7 51.6 28.7 51.6 28.9V31C51.6 31 51.6 31.2 51.8 31.2H53.9C53.9 31.2 54.1 31.2 54.1 31V28.9C54.1 28.9 54.1 28.7 53.9 28.7H51.8V28.7Z" fill="#3F3F3F"/>
</svg>
