<svg width="102" height="26" viewBox="0 0 102 26" fill="none" xmlns="http://www.w3.org/2000/svg">
<g clip-path="url(#clip0)">
<path d="M3.32745 13.7173C3.33567 13.668 3.33978 13.6147 3.33156 13.5696C3.30691 13.4055 3.23297 13.2373 3.09329 13.1348C2.95361 13.0322 2.76874 12.9543 2.58798 12.9871C2.35381 13.0281 2.16894 13.0937 1.96353 13.2086C1.91013 13.2373 1.86083 13.2742 1.81564 13.3153C1.73348 13.385 1.6472 13.4547 1.58147 13.5409C1.29801 13.906 1.18709 14.3613 1.2939 14.8043C1.3966 15.2269 1.6965 15.5796 2.13197 15.7109C2.46884 15.8135 2.8468 15.7478 3.08507 15.4771C3.25351 15.2843 3.27405 15.0587 3.28637 14.8207" fill="#3A0C93"/>
</g>
<g clip-path="url(#clip1)">
<g opacity="0.8">
<path opacity="0.8" d="M16.2177 10.9273C17.3033 9.74513 18.8805 8.98404 20.5237 8.85467C21.2194 8.80063 22.0323 8.91004 22.4085 9.47509C22.6708 9.86792 22.6388 10.3871 22.4691 10.8219C22.0672 11.858 20.9409 12.5511 19.7868 12.6285C18.6328 12.706 17.4821 12.2278 16.6272 11.4816" fill="#ECEAE9" fill-opacity="0.8"/>
</g>
<g opacity="0.8">
<path opacity="0.8" d="M16.4589 10.943C17.9913 10.3636 19.2676 9.19959 19.9458 7.76469C20.2349 7.15644 20.3947 6.3873 19.9633 5.86182C19.6613 5.49429 19.1426 5.35019 18.6549 5.35784C17.4969 5.37307 16.4365 6.15406 15.9756 7.16456C15.5148 8.17507 15.6013 9.36903 16.0493 10.3916" fill="#ECEAE9" fill-opacity="0.8"/>
</g>
<path d="M17.5332 18.3994H28.8357" stroke="white" stroke-miterlimit="10" stroke-linecap="round"/>
<path d="M15.5918 16.4033H27.1113" stroke="white" stroke-miterlimit="10" stroke-linecap="round"/>
<path d="M13.668 14.4072H25.1875" stroke="white" stroke-miterlimit="10" stroke-linecap="round"/>
<path d="M16.4332 2.16338C15.9153 2.40791 15.2818 2.19925 15.0146 1.6939C14.7474 1.18855 14.9486 0.582137 15.4666 0.337614C15.9845 0.0930915 16.618 0.301751 16.8852 0.807098C17.1491 1.31244 16.9479 1.91886 16.4332 2.16338Z" fill="#3A0C93"/>
<path d="M15.6318 1.0977C14.421 1.44003 13.3158 2.11165 12.468 3.03106C12.336 3.17125 12.3261 3.39295 12.468 3.53315C12.5999 3.66356 12.8441 3.6766 12.976 3.53315C13.7414 2.70177 14.7246 2.09209 15.8199 1.78236C16.2653 1.65521 16.0772 0.970549 15.6318 1.0977Z" fill="#3A0C93"/>
<path d="M13.3854 21.5037C13.2535 21.9569 13.1974 22.4459 13.2502 22.9154C13.3062 23.424 13.4514 23.9522 13.8506 24.3108C14.296 24.7086 14.87 24.8064 15.454 24.7771C15.9324 24.7542 16.414 24.6662 16.8594 24.4869C17.0904 24.3923 17.2784 24.2913 17.4071 24.0696C17.5225 23.874 17.572 23.587 17.4994 23.3686C17.4269 23.1502 17.2883 22.9382 17.0772 22.8274C16.8726 22.7198 16.5922 22.6448 16.3678 22.7361C16.0874 22.8502 15.8004 22.9252 15.5002 22.9676C15.5826 22.9578 15.6618 22.9448 15.7443 22.935C15.4804 22.9676 15.2065 22.9806 14.9426 22.948C15.0251 22.9578 15.1043 22.9709 15.1868 22.9806C15.101 22.9676 15.0185 22.948 14.9393 22.9154C15.0119 22.9448 15.0845 22.9774 15.1604 23.0067C15.1043 22.9806 15.0548 22.9513 15.0053 22.9154C15.068 22.9643 15.1307 23.01 15.1901 23.0589C15.1373 23.0165 15.0911 22.9676 15.0482 22.9154C15.0977 22.9774 15.1439 23.0393 15.1934 23.098C15.1472 23.0328 15.1076 22.9643 15.0746 22.8926C15.1043 22.9643 15.1373 23.0361 15.167 23.111C15.1142 22.9806 15.0812 22.847 15.0614 22.71C15.0713 22.7915 15.0845 22.8698 15.0944 22.9513C15.0614 22.697 15.0647 22.4459 15.0944 22.1916C15.0845 22.2731 15.0713 22.3514 15.0614 22.4329C15.0845 22.2829 15.1142 22.133 15.1571 21.9895C15.289 21.5331 14.9954 20.9821 14.5137 20.8712C14.0222 20.7604 13.5273 21.0179 13.3854 21.5037Z" fill="#3A0C93"/>
<path d="M15.4995 24.001C15.4929 24.0955 15.5094 24.1901 15.5259 24.2814C15.5325 24.3303 15.5457 24.3759 15.5655 24.4216C15.6348 24.6041 15.7239 24.7639 15.8657 24.9008C16.0076 25.0378 16.1726 25.1323 16.3606 25.191C16.6047 25.266 16.8687 25.2366 17.0963 25.1258C17.1194 25.116 17.1359 25.103 17.1557 25.0899C17.2118 25.0475 17.2745 25.0084 17.324 24.953C17.4361 24.8258 17.4889 24.7215 17.5516 24.5683C17.611 24.4183 17.6341 24.2488 17.6374 24.089C17.6407 23.9293 17.6143 23.763 17.5813 23.6065C17.5516 23.463 17.5021 23.3163 17.4229 23.1924C17.2712 22.9544 17.0468 22.7947 16.7664 22.7588C16.7202 22.7523 16.6707 22.7425 16.6245 22.7458C16.552 22.749 16.4695 22.7588 16.4002 22.7784C16.3342 22.8012 16.2583 22.8273 16.2023 22.8697C16.0835 22.9512 16.034 23.0098 15.9449 23.1272C15.8987 23.1989 15.8723 23.2772 15.869 23.362C15.8492 23.4467 15.8525 23.5282 15.8789 23.613C15.9185 23.7597 16.034 23.9162 16.1726 23.9879C16.321 24.0662 16.4992 24.1053 16.6641 24.0499C16.7136 24.0303 16.7664 24.0075 16.8159 23.9879C16.9116 23.9325 16.9874 23.8575 17.0435 23.763C17.0468 23.7597 17.0501 23.7565 17.0534 23.7532C17.0204 23.7956 16.9874 23.838 16.9545 23.8803C16.9611 23.8738 16.9677 23.8673 16.9742 23.8608C16.9314 23.8934 16.8885 23.926 16.8456 23.9586C16.8555 23.9488 16.8687 23.9423 16.8786 23.9358C16.8291 23.9553 16.7763 23.9782 16.7268 23.9977C16.7433 23.9912 16.7598 23.9847 16.7796 23.9814C16.7235 23.9879 16.6674 23.9977 16.6113 24.0042C16.6344 24.001 16.6575 24.001 16.6839 24.0042C16.6278 23.9977 16.5718 23.9879 16.5157 23.9814C16.5355 23.9847 16.552 23.9912 16.5718 23.9977C16.5223 23.9782 16.4695 23.9553 16.42 23.9358C16.4431 23.9456 16.4629 23.9586 16.4827 23.9716C16.4398 23.939 16.3969 23.9064 16.354 23.8738C16.3705 23.8901 16.387 23.9032 16.4002 23.9227C16.3672 23.8804 16.3342 23.838 16.3012 23.7956C16.3243 23.8282 16.3441 23.8608 16.3606 23.8967C16.3408 23.8477 16.3177 23.7956 16.2979 23.7467C16.3375 23.8445 16.3606 23.9488 16.3738 24.0531C16.3672 23.9977 16.3573 23.9423 16.3507 23.8869C16.3639 23.9879 16.3672 24.089 16.354 24.1901C16.3606 24.1347 16.3705 24.0792 16.3771 24.0238C16.3672 24.0955 16.3507 24.1673 16.321 24.2357C16.3408 24.1868 16.3639 24.1347 16.3837 24.0857C16.3705 24.1184 16.3507 24.1477 16.3309 24.177C16.3639 24.1347 16.3969 24.0923 16.4299 24.0499C16.4134 24.0694 16.4002 24.0857 16.3804 24.102C16.4233 24.0694 16.4662 24.0368 16.5091 24.0042C16.4893 24.0173 16.4695 24.0303 16.4497 24.0401C16.4992 24.0205 16.552 23.9977 16.6014 23.9782C16.5784 23.9879 16.5586 23.9912 16.5355 23.9977C16.5915 23.9912 16.6476 23.9814 16.7037 23.9749C16.6674 23.9782 16.6344 23.9782 16.5981 23.9749C16.6542 23.9814 16.7103 23.9912 16.7664 23.9977C16.7301 23.9912 16.6971 23.9814 16.6608 23.9684C16.7103 23.9879 16.7631 24.0108 16.8126 24.0303C16.7664 24.0108 16.7235 23.9847 16.6839 23.9553C16.7268 23.9879 16.7697 24.0205 16.8126 24.0531C16.773 24.0238 16.74 23.9879 16.707 23.9488C16.74 23.9912 16.773 24.0336 16.806 24.076C16.773 24.0336 16.7466 23.9847 16.7235 23.9358C16.7433 23.9847 16.7664 24.0368 16.7862 24.0857C16.7664 24.0401 16.7565 23.9945 16.7466 23.9456C16.7532 24.001 16.7631 24.0564 16.7697 24.1118C16.7664 24.0727 16.7631 24.0368 16.7664 23.9977C16.7763 23.8445 16.6872 23.6587 16.5784 23.5511C16.4695 23.4435 16.288 23.3587 16.1264 23.3652C15.9614 23.3717 15.7899 23.4272 15.6744 23.5511C15.6414 23.5934 15.6084 23.6358 15.5754 23.6782C15.5292 23.7825 15.4995 23.8869 15.4995 24.001Z" fill="#3A0C93"/>
<path d="M10.4732 21.2199C8.16048 19.8669 6.06553 18.1063 4.6634 15.8893C3.25797 13.6755 2.55195 10.4283 3.11281 7.89503C3.67366 5.36177 4.71948 3.86529 7.28291 3.01761C9.84304 2.16994 13.8713 2.71767 15.3988 4.85642C16.7415 6.7311 16.7184 9.20241 17.6917 11.2727C18.7474 13.519 21.0106 15.5633 20.486 17.9726C20.3409 18.6345 19.9879 19.2409 19.5524 19.7756C18.2525 21.3633 16.1741 22.3447 14.0659 22.3643C11.9578 22.3838 10.6348 21.3438 8.62896 20.0136" fill="#FFB701"/>
<path d="M8.6886 20.0331L8.82717 20.1244C14.0926 19.9581 17.6853 16.362 19.4273 14.1091C19.0281 13.4701 18.5893 12.8311 18.2033 12.1855C14.6732 17.8487 9.23296 18.015 5.81836 17.4183C6.65634 18.3932 7.63288 19.2637 8.6886 20.0331Z" fill="#3A0C93"/>
<path d="M7.63504 19.5051C7.43379 19.4986 7.23255 19.492 7.0313 19.4855C6.94882 19.4823 6.87294 19.4855 6.79046 19.5018C6.69809 19.5214 6.60571 19.5735 6.53973 19.6387C6.50344 19.6746 6.50014 19.6648 6.45395 19.7463C6.43416 19.7822 6.40446 19.8409 6.39457 19.8833C6.36158 20.0235 6.37147 20.1245 6.39127 20.2647C6.40446 20.3528 6.44405 20.4343 6.48034 20.5158C6.50344 20.5679 6.52983 20.6136 6.56282 20.6592C6.68489 20.8222 6.82016 20.9592 7.00161 21.0602C7.20945 21.1776 7.45029 21.2363 7.68783 21.2396C7.81649 21.2396 7.95176 21.1841 8.04083 21.0961C8.12661 21.0113 8.19259 20.8711 8.186 20.7472C8.1794 20.6201 8.13651 20.4864 8.04083 20.3984C7.94186 20.3104 7.82309 20.2549 7.68783 20.2549C7.64824 20.2549 7.60865 20.2517 7.56576 20.2484C7.60865 20.2549 7.65483 20.2615 7.69772 20.2647C7.61854 20.2549 7.54267 20.2321 7.47008 20.2028C7.50967 20.2191 7.54926 20.2354 7.58885 20.2517C7.52287 20.2223 7.46019 20.1865 7.4008 20.1408C7.43379 20.1669 7.46678 20.193 7.50308 20.2191C7.44699 20.1767 7.3975 20.1245 7.35132 20.0691C7.37771 20.1017 7.4041 20.1343 7.43049 20.1702C7.3942 20.1245 7.36451 20.0724 7.34142 20.0202C7.35791 20.0593 7.37441 20.0984 7.39091 20.1376C7.37111 20.0952 7.35791 20.0495 7.35132 20.0006C7.35791 20.043 7.36451 20.0887 7.36781 20.1311C7.36451 20.0984 7.36451 20.0658 7.36781 20.03C7.36121 20.0724 7.35461 20.118 7.35132 20.1604C7.35132 20.1506 7.35461 20.1441 7.35791 20.1343C7.34142 20.1734 7.32492 20.2126 7.30843 20.2517C7.31173 20.2484 7.31173 20.2452 7.31502 20.2419C7.28863 20.2745 7.26224 20.3071 7.23585 20.343C7.23914 20.3397 7.24244 20.3364 7.24574 20.3364C7.21275 20.3625 7.17976 20.3886 7.14347 20.4147C7.14677 20.4147 7.15007 20.4114 7.15337 20.4114C7.11378 20.4277 7.07419 20.444 7.0346 20.4603C7.0412 20.4571 7.0478 20.4571 7.05439 20.4538C7.01151 20.4603 6.96532 20.4669 6.92243 20.4701C6.97521 20.4669 7.0313 20.4701 7.08739 20.4734C7.15007 20.4766 7.20945 20.4766 7.27214 20.4799C7.3942 20.4832 7.51297 20.4864 7.63504 20.4897C7.76041 20.4929 7.90227 20.431 7.98805 20.3462C8.07382 20.2615 8.13981 20.1213 8.13321 19.9974C8.12661 19.8702 8.08372 19.7366 7.98805 19.6485C7.88907 19.5572 7.7736 19.5083 7.63504 19.5051Z" fill="#3A0C93"/>
<path d="M3.56744 12.4753L6.04508 13.0067L4.61986 19.5958L2.08613 18.6796C1.85519 18.5949 1.72652 18.3634 1.7826 18.1319L3.10886 12.7492C3.15504 12.5535 3.35959 12.4296 3.56744 12.4753Z" fill="#B394FF"/>
<path d="M6.04437 13.0068L11.9135 14.2294C12.1643 14.2816 12.3226 14.5164 12.2698 14.7544L11.2273 19.5861C11.1679 19.8567 10.9073 20.0458 10.617 20.0263L4.61914 19.5959" fill="#886CE0"/>
<path d="M4.86987 13.8711L5.77384 14.0308L8.00405 14.396L7.69063 15.7555L5.55609 15.3121L4.61914 15.0481L4.86987 13.8711Z" fill="#3A0C93"/>
<path d="M5.81673 14.0429L5.55609 15.3372L4.61914 15.0601L4.86987 13.8994L5.81673 14.0429Z" fill="#6549DB"/>
<path d="M20.1325 19.1206C20.7659 19.9422 21.5445 20.6139 22.4716 21.0996C23.5966 21.6898 22.7817 23.4797 21.6501 22.8863C20.4063 22.231 19.3572 21.3637 18.506 20.2618C17.7373 19.2576 19.3638 18.1165 20.1325 19.1206Z" fill="#3A0C93"/>
<path d="M21.0673 22.0807C21.0508 22.1231 21.0376 22.1655 21.031 22.2078C21.0145 22.3024 20.9947 22.41 21.0046 22.5078C21.0211 22.7067 21.0607 22.8697 21.1564 23.049C21.2454 23.2185 21.3906 23.3587 21.5523 23.4663C21.7106 23.5706 21.9284 23.6359 22.1197 23.6163C22.2715 23.6033 22.41 23.5739 22.542 23.4924C22.6278 23.437 22.7103 23.375 22.7762 23.2968C22.8389 23.2218 22.9016 23.1436 22.9511 23.0588C23.0006 22.9708 23.0402 22.8729 23.0765 22.7784C23.1326 22.6317 23.1523 22.4752 23.1721 22.322C23.1919 22.1622 23.1853 22.0187 23.1556 21.8623C23.1358 21.7612 23.093 21.6569 23.0336 21.5721C22.9511 21.4547 22.8554 21.3471 22.7235 21.2787C22.4661 21.145 22.123 21.1091 21.8723 21.2819C21.7337 21.3765 21.6248 21.4938 21.5787 21.6569C21.5358 21.8068 21.5556 22.009 21.6413 22.1426C21.7304 22.2763 21.8591 22.3969 22.0207 22.4328C22.1791 22.4687 22.3737 22.4654 22.5123 22.3709C22.5255 22.3611 22.5354 22.3546 22.5486 22.348C22.4991 22.3676 22.4463 22.3904 22.3968 22.41C22.41 22.4067 22.4232 22.4035 22.4397 22.4002C22.3836 22.4067 22.3276 22.4165 22.2715 22.423C22.288 22.423 22.3012 22.423 22.3144 22.423C22.2583 22.4165 22.2022 22.4067 22.1461 22.4002C22.1659 22.4035 22.1857 22.4067 22.2022 22.4132C22.1527 22.3937 22.0999 22.3709 22.0504 22.3513C22.0735 22.3611 22.0966 22.3741 22.1164 22.3872C22.0735 22.3546 22.0306 22.322 21.9877 22.2894C22.0042 22.3024 22.0174 22.3154 22.0306 22.3317C21.9976 22.2893 21.9647 22.247 21.9317 22.2046C21.9449 22.2241 21.9581 22.2437 21.968 22.2665C21.9482 22.2176 21.9251 22.1655 21.9053 22.1166C21.9185 22.1524 21.9284 22.1883 21.9317 22.2241C21.9251 22.1687 21.9152 22.1133 21.9086 22.0579C21.9185 22.1459 21.9086 22.2372 21.8987 22.3252C21.9053 22.2698 21.9152 22.2144 21.9218 22.1589C21.9053 22.2665 21.8822 22.3741 21.8393 22.4752C21.8591 22.4263 21.8822 22.3741 21.902 22.3252C21.8723 22.3969 21.8327 22.4621 21.7865 22.5241C21.8195 22.4817 21.8525 22.4393 21.8855 22.3969C21.8591 22.4295 21.8294 22.4621 21.7964 22.4882C21.8393 22.4556 21.8822 22.423 21.9251 22.3904C21.902 22.41 21.8756 22.423 21.8492 22.4361C21.8987 22.4165 21.9515 22.3937 22.0009 22.3741C21.9844 22.3806 21.968 22.3839 21.9482 22.3872C22.0042 22.3806 22.0603 22.3709 22.1164 22.3643C22.0933 22.3676 22.0669 22.3676 22.0438 22.3676C22.0999 22.3741 22.156 22.3839 22.2121 22.3904C22.1824 22.3872 22.1527 22.3774 22.123 22.3676C22.1725 22.3872 22.2253 22.41 22.2748 22.4295C22.2385 22.4132 22.2088 22.3969 22.1758 22.3741C22.2187 22.4067 22.2616 22.4393 22.3045 22.4719C22.2682 22.4426 22.2352 22.4132 22.2055 22.3774C22.2385 22.4198 22.2715 22.4621 22.3045 22.5045C22.2748 22.4654 22.2484 22.423 22.2286 22.3741C22.2484 22.423 22.2715 22.4752 22.2913 22.5241C22.2715 22.4784 22.2583 22.4295 22.2517 22.3806C22.2583 22.4361 22.2682 22.4915 22.2748 22.5469C22.2682 22.4915 22.2682 22.4361 22.2748 22.3806C22.2682 22.4361 22.2583 22.4915 22.2517 22.5469C22.2583 22.5013 22.2715 22.4589 22.288 22.4198C22.3441 22.2796 22.2979 22.0611 22.2253 21.934C22.1494 21.8036 21.9976 21.6797 21.8459 21.6438C21.6842 21.6079 21.4995 21.6145 21.3543 21.7058C21.3114 21.7384 21.2685 21.771 21.2256 21.8036C21.1498 21.8818 21.097 21.9731 21.0673 22.0807Z" fill="#3A0C93"/>
<path d="M4.33571 10.9988C4.76789 11.9052 5.79722 12.4822 6.77707 12.5246C7.29503 12.5474 10.2544 12.5214 10.6305 12.479C11.2738 12.4073 11.4387 12.2866 11.8973 11.9704C12.6594 11.4455 13.0091 10.4152 13.1312 9.53493C13.2533 8.63183 13.2566 7.63417 12.8046 6.80606C11.9006 5.14656 9.75288 4.81727 8.05383 4.83357C7.17626 4.84335 6.18322 5.10418 5.45411 5.64539C4.67882 6.22246 4.33571 6.97233 4.18065 7.88196C4.11467 8.3873 4.08167 8.88939 4.09157 9.398C4.10147 9.92291 4.10807 10.5195 4.33571 10.9988Z" fill="#FEFDFF"/>
<path d="M12.5112 16.5448C11.3433 18.1228 9.86196 19.9975 7.68453 19.8605C7.30183 19.8377 6.97852 20.1996 6.97852 20.5582C6.97852 20.956 7.30183 21.2331 7.68453 21.2559C8.98109 21.3374 10.2249 20.8158 11.2344 20.0398C12.2373 19.2704 12.9895 18.2532 13.7318 17.249C13.9562 16.9458 13.7846 16.4698 13.4778 16.2938C13.1215 16.0884 12.7388 16.2383 12.5112 16.5448Z" fill="#3A0C93"/>
<path d="M7.69135 20.7044C7.86291 20.7044 8.01467 20.662 8.16973 20.5903C8.21591 20.5708 8.2588 20.5447 8.30169 20.5121C8.36767 20.4632 8.43366 20.4175 8.48314 20.3556C8.58872 20.2284 8.67449 20.0915 8.71408 19.9285C8.75367 19.7622 8.75367 19.5959 8.71078 19.4296C8.68439 19.3286 8.60521 19.2308 8.51613 19.1786C8.42376 19.1264 8.29179 19.1036 8.18952 19.1362C8.08725 19.1688 7.98827 19.2308 7.93549 19.3286C7.8827 19.4296 7.86621 19.5372 7.8926 19.6513C7.8992 19.6742 7.9025 19.697 7.9058 19.7198C7.8992 19.684 7.8959 19.6448 7.8893 19.609C7.8959 19.6611 7.8959 19.71 7.8893 19.7622C7.8959 19.7263 7.8992 19.6872 7.9058 19.6513C7.8992 19.7035 7.8827 19.7524 7.86621 19.7981C7.8794 19.7655 7.8959 19.7329 7.90909 19.697C7.8893 19.7459 7.86291 19.7883 7.82992 19.8307C7.85301 19.8013 7.8728 19.7752 7.8959 19.7459C7.86291 19.785 7.82992 19.8209 7.78703 19.8502C7.81672 19.8274 7.84311 19.8078 7.8728 19.785C7.82992 19.8176 7.78043 19.8437 7.73094 19.8665C7.76393 19.8535 7.79692 19.8372 7.83321 19.8241C7.77713 19.847 7.72104 19.8633 7.66166 19.8698C7.69795 19.8633 7.73754 19.86 7.77383 19.8535C7.74744 19.8567 7.71774 19.86 7.69135 19.86C7.58248 19.86 7.47031 19.9057 7.39113 19.9839C7.31855 20.0556 7.26246 20.1763 7.26576 20.2806C7.26906 20.3882 7.30535 20.5023 7.39113 20.5773C7.47361 20.6588 7.57588 20.7044 7.69135 20.7044Z" fill="#3A0C93"/>
<path d="M19.5624 19.7785C19.9979 19.2439 20.3542 18.6374 20.4961 17.9756C20.6544 17.2518 20.5554 16.5606 20.3179 15.8857C17.6852 20.1763 13.9605 21.3533 10.8164 21.425C11.8292 22.0086 12.8124 22.377 14.0759 22.3672C16.1841 22.3477 18.2625 21.3663 19.5624 19.7785Z" fill="#3A0C93"/>
<path d="M11.3979 20.164C11.3979 20.164 14.898 17.4859 13.7003 16.2038" stroke="#FFB701" stroke-width="0.4" stroke-miterlimit="10" stroke-linecap="round"/>
<path d="M18.8595 3.9953C18.1535 3.68557 17.3419 3.79316 16.6128 3.96921C15.9464 4.13223 15.27 4.37349 14.6828 4.7256C14.2869 4.96361 14.6498 5.57654 15.0457 5.33854C15.5538 5.03533 16.1212 4.82993 16.692 4.67996C16.9625 4.60823 17.2363 4.55281 17.5135 4.52673C17.8368 4.49412 18.1931 4.4713 18.4999 4.60497C18.678 4.68322 18.8859 4.65714 18.9915 4.47782C19.0805 4.33111 19.0409 4.07354 18.8595 3.9953Z" fill="#3A0C93"/>
<path d="M19.4642 4.96015C18.9957 5.28944 18.3359 5.18837 17.9862 4.73519C17.6365 4.28201 17.7321 3.65277 18.1973 3.32348C18.6658 2.99419 19.3256 3.09526 19.6753 3.54844C20.025 3.99836 19.9327 4.63086 19.4642 4.96015Z" fill="#3A0C93"/>
<path d="M8.4867 8.01532C8.47351 8.30875 8.81002 8.56631 9.2389 8.58588C9.66779 8.60544 10.0307 8.387 10.0439 8.09031C10.0604 7.79688 9.72058 7.53932 9.29169 7.51976C8.8628 7.50019 8.5032 7.72189 8.4867 8.01532Z" fill="#221F20"/>
<path d="M5.02971 8.07731C5.01651 8.34792 5.32333 8.58592 5.71593 8.60548C6.10852 8.62505 6.43844 8.41965 6.45163 8.14904C6.46483 7.87844 6.15801 7.64043 5.76541 7.62087C5.37282 7.59805 5.0429 7.80345 5.02971 8.07731Z" fill="#221F20"/>
<path d="M8.75734 9.75586C8.41093 10.1536 7.93585 10.4079 7.40469 10.4242C6.87353 10.4405 6.38196 10.2156 6.00586 9.83737" stroke="#221F20" stroke-width="0.5" stroke-miterlimit="10" stroke-linecap="round"/>
<path d="M11.9341 9.63531C11.9176 9.98742 11.5019 10.2548 11.0038 10.2287C10.5089 10.2059 10.1196 9.89939 10.1394 9.54728C10.1559 9.19517 10.5716 8.92782 11.0697 8.95391C11.5646 8.97999 11.9539 9.2832 11.9341 9.63531Z" fill="#FFB701"/>
<path d="M5.21775 9.55117C5.20455 9.80874 4.97032 10.0109 4.68989 9.99458C4.41276 9.98153 4.19832 9.75983 4.21152 9.49901C4.22471 9.24145 4.45895 9.03931 4.73938 9.05561C5.0165 9.06865 5.23095 9.29035 5.21775 9.55117Z" fill="#FFB701"/>
<path d="M85.507 9.28668C85.2794 9.28668 85.1243 9.29972 85.1243 9.55076C85.1243 10.493 86.3219 11.057 87.8626 11.057C89.2219 11.057 89.532 10.6299 90.1093 10.6299C90.5712 10.6299 90.8681 10.8842 90.8681 11.432C90.8681 13.0491 88.4598 14.05 86.4407 14.05C83.1284 14.05 80.8223 12.1688 80.8223 9.16605C80.8223 6.05572 82.7094 3.93652 86.4407 3.93652C89.3472 3.93652 90.8681 5.7949 90.8681 7.86845C90.8681 8.99325 90.4656 9.28342 89.6837 9.28342H85.507V9.28668ZM87.1005 7.01099C87.1005 6.33285 86.8234 5.70035 86.1174 5.70035C85.3685 5.70035 85.065 6.29698 85.065 7.32724C85.065 7.64023 85.2629 7.68587 85.6489 7.68587C85.7776 7.68587 86.2065 7.68261 86.3318 7.68261C86.8399 7.68587 87.1005 7.60762 87.1005 7.01099Z" fill="white"/>
<path d="M96.343 9.28668C96.1153 9.28668 95.9603 9.29972 95.9603 9.55076C95.9603 10.493 97.1579 11.057 98.6986 11.057C100.058 11.057 100.368 10.6299 100.945 10.6299C101.407 10.6299 101.704 10.8842 101.704 11.432C101.704 13.0491 99.2957 14.05 97.2766 14.05C93.9643 14.05 91.6582 12.1688 91.6582 9.16605C91.6582 6.05572 93.5453 3.93652 97.2766 3.93652C100.183 3.93652 101.704 5.7949 101.704 7.86845C101.704 8.99325 101.302 9.28342 100.52 9.28342H96.343V9.28668ZM97.9365 7.01099C97.9365 6.33285 97.6593 5.70035 96.9533 5.70035C96.2044 5.70035 95.9009 6.29698 95.9009 7.32724C95.9009 7.64023 96.0988 7.68587 96.4848 7.68587C96.6135 7.68587 97.0424 7.68261 97.1678 7.68261C97.6758 7.68587 97.9365 7.60762 97.9365 7.01099Z" fill="white"/>
<path d="M52.4928 9.28668C52.2651 9.28668 52.1101 9.29972 52.1101 9.55076C52.1101 10.493 53.3076 11.057 54.8483 11.057C56.2076 11.057 56.5177 10.6299 57.095 10.6299C57.5569 10.6299 57.8539 10.8842 57.8539 11.432C57.8539 13.0491 55.4455 14.05 53.4264 14.05C50.1141 14.05 47.8047 12.1688 47.8047 9.16605C47.8047 6.05572 49.6918 3.93652 53.4264 3.93652C56.333 3.93652 57.8539 5.7949 57.8539 7.86845C57.8539 8.99325 57.4514 9.28342 56.6695 9.28342H52.4928V9.28668ZM54.0862 7.01099C54.0862 6.33285 53.8091 5.70035 53.1031 5.70035C52.3542 5.70035 52.0507 6.29698 52.0507 7.32724C52.0507 7.64023 52.2486 7.68587 52.6346 7.68587C52.7633 7.68587 53.1922 7.68261 53.3175 7.68261C53.8256 7.68587 54.0862 7.60762 54.0862 7.01099Z" fill="white"/>
<path d="M76.1976 3.98568C74.7493 3.98568 74.2775 4.77141 73.9542 5.28002C73.8849 5.38761 73.8123 5.5278 73.7232 5.5278C73.6408 5.5278 73.6441 5.34848 73.6441 5.34848C73.6441 5.34848 73.6144 0.986198 73.6144 0.868827C73.6144 0.656907 73.5979 0.236328 72.9776 0.236328C72.4762 0.236328 71.4105 0.562358 70.6154 0.888389C69.8204 1.21442 68.3984 1.87952 68.3984 2.60657C68.3984 3.07279 68.7415 3.28145 68.9263 3.44773C69.0847 3.59118 69.4146 3.88461 69.4146 4.57905C69.4146 5.3061 69.4146 13.3493 69.4146 13.3493C69.4146 13.3493 69.3783 14.2328 70.2591 14.2328C71.14 14.2328 71.3479 13.4699 71.9252 13.4699C72.4993 13.4699 73.0997 14.0144 75.1683 14.0144C77.3985 14.0144 80.1565 12.6776 80.1565 9.04893C80.1565 5.42347 77.6162 3.98568 76.1976 3.98568ZM75.0792 12.0354C73.8288 12.0354 73.6441 10.49 73.6441 9.27389C73.6441 8.62183 73.6441 8.11322 73.6441 7.36335C73.6441 6.6526 73.9377 6.49285 74.1422 6.49285C75.5806 6.49285 76.0722 9.08479 76.0722 10.428C76.0689 10.7345 76.0689 12.0354 75.0792 12.0354Z" fill="white"/>
<path d="M47.637 4.2373C47.1686 4.2373 46.4592 4.25687 45.6839 4.25687C44.9086 4.25687 44.3313 4.2373 43.7012 4.2373C43.1535 4.2373 42.9721 4.53725 42.9721 4.87958C42.9721 5.31646 43.1667 5.41753 43.523 5.57729C43.6616 5.63923 43.8694 5.69466 43.8694 5.90984C43.8694 6.01417 43.8034 6.20979 43.6781 6.53256C43.4603 7.08355 43.1205 7.83994 43.0776 7.92797C43.0017 8.0812 42.9094 8.3029 42.7114 8.3029C42.5036 8.3029 42.4112 8.06164 42.3452 7.92797C42.2561 7.74213 41.8372 6.7673 41.7481 6.5456C41.6689 6.34672 41.5501 6.04677 41.5501 5.90006C41.5501 5.73378 41.6821 5.66532 42.0252 5.5186C42.3914 5.36211 42.4541 5.2806 42.4442 4.87958C42.4442 4.52747 42.2495 4.2373 41.6557 4.2373C41.3522 4.2373 39.3859 4.25687 39.056 4.25687C38.7294 4.25687 37.1128 4.2373 36.3837 4.2373C36.0274 4.2373 35.4863 4.45901 35.4863 5.08824C35.4863 5.5186 35.6711 5.61967 35.8492 5.68814C36.0505 5.76639 36.4299 5.90006 36.7334 6.17066C37.0666 6.46083 37.3338 6.99552 37.3338 6.99552C37.3338 6.99552 39.6597 11.4719 40.1216 12.3294C40.3031 12.6652 40.3657 12.9619 40.3657 13.3368C40.3657 13.9139 39.9962 14.6246 39.2638 14.6246C38.2048 14.6246 38.8514 12.8999 37.2217 12.8999C36.2088 12.8999 35.5391 13.6661 35.5391 14.5822C35.5391 16.2124 36.8555 17.2981 38.4687 17.2981C41.5171 17.2981 42.9688 13.8389 43.5032 12.7597C44.041 11.6806 46.2052 7.40632 46.3471 7.11615C46.4889 6.82598 46.6704 6.3076 47.0894 6.13806C47.4853 5.97831 47.7327 5.90332 48.0263 5.78595C48.2474 5.69792 48.4453 5.54143 48.4453 5.10128C48.4453 4.79156 48.1583 4.2373 47.637 4.2373Z" fill="white"/>
<path d="M67.6456 6.33022C67.6456 5.58361 67.253 4.09039 66.4909 4.09039C66.2435 4.09039 66.1016 4.25014 65.5672 4.25014C65.0327 4.25014 64.4224 3.9502 63.2116 3.9502C60.3216 3.9502 58.8732 5.66838 58.8732 7.31157C58.8732 8.88303 59.9323 9.53835 61.0144 9.92959C62.1229 10.3306 62.7035 10.4512 63.04 10.5556C63.2974 10.6371 64.0298 10.9272 64.0298 11.4032C64.0298 11.8988 63.3963 11.9119 63.106 11.9119C62.4726 11.9119 61.8227 11.713 61.4894 11.4913C61.209 11.3054 60.7438 10.9207 60.569 10.7708C60.3974 10.6208 59.9685 10.1806 59.4968 10.1806C58.9491 10.1806 58.8105 10.7447 58.8105 11.0935C58.8105 11.4424 58.8138 11.7945 58.8435 12.1075C58.8699 12.3879 58.9491 12.9193 59.2724 13.1801C59.6023 13.4475 60.2985 13.555 60.7504 13.6561C61.1133 13.7376 62.1757 14.0311 63.2611 14.0311C66.8439 14.0311 68.2692 11.9771 68.2692 10.5132C68.2692 8.9352 67.0188 8.27988 65.7618 7.86908C65.4847 7.77779 64.1914 7.38655 63.9605 7.30179C63.7263 7.21702 63.1918 6.93663 63.1918 6.51279C63.1918 6.23893 63.4194 6.00093 63.8912 6.00093C64.198 6.00093 64.6335 6.12482 64.8645 6.24871C65.0624 6.35304 65.4913 6.60082 65.9664 6.86165C66.326 7.06052 66.613 7.16485 66.9627 7.16485C67.672 7.16811 67.6456 6.55518 67.6456 6.33022Z" fill="white"/>
<path d="M56.5145 23.198C56.3594 23.198 56.2307 23.1459 56.1252 23.0415C56.0196 22.9372 55.9668 22.8101 55.9668 22.6568V17.6164C55.9668 17.4697 56.0196 17.3425 56.1252 17.2349C56.2307 17.1274 56.3594 17.0752 56.5145 17.0752C56.6629 17.0752 56.7916 17.1274 56.9005 17.2349C57.0093 17.3425 57.0621 17.4697 57.0621 17.6164V19.3704C57.1875 19.1944 57.3524 19.0542 57.557 18.9433C57.7582 18.8325 57.9793 18.7803 58.2168 18.7803C58.4115 18.7803 58.5929 18.8162 58.7612 18.8912C58.9294 18.9662 59.0779 19.064 59.2033 19.1911C59.3319 19.3183 59.4309 19.4617 59.5068 19.628C59.5827 19.7943 59.619 19.9736 59.619 20.166V22.6568C59.619 22.8101 59.5662 22.9372 59.4573 23.0415C59.3484 23.1459 59.2198 23.198 59.0713 23.198C58.9162 23.198 58.7876 23.1459 58.682 23.0415C58.5764 22.9372 58.5236 22.8101 58.5236 22.6568V20.3942C58.5236 20.2996 58.5071 20.2116 58.4708 20.1268C58.4346 20.0421 58.3851 19.9671 58.3158 19.9051C58.2498 19.8432 58.1739 19.791 58.0882 19.7552C58.0024 19.716 57.91 19.6965 57.811 19.6965C57.712 19.6965 57.6164 19.716 57.524 19.7552C57.4316 19.7943 57.3524 19.8465 57.2832 19.9149C57.2139 19.9834 57.1611 20.0616 57.1215 20.1529C57.0819 20.2442 57.0621 20.3388 57.0621 20.4431V22.6568C57.0621 22.8101 57.0093 22.9372 56.9005 23.0415C56.7916 23.1459 56.6629 23.198 56.5145 23.198Z" fill="white" fill-opacity="0.6"/>
<path d="M61.2687 18.2985C61.0938 18.2985 60.9454 18.2398 60.8266 18.1224C60.7078 18.005 60.6484 17.8583 60.6484 17.6855C60.6484 17.516 60.7078 17.3725 60.8266 17.2552C60.9454 17.1378 61.0905 17.0791 61.2687 17.0791C61.4402 17.0791 61.5821 17.1378 61.7009 17.2552C61.8196 17.3725 61.879 17.516 61.879 17.6855C61.879 17.8616 61.8196 18.005 61.7009 18.1224C61.5854 18.2398 61.4402 18.2985 61.2687 18.2985ZM61.2687 23.1987C61.1103 23.1987 60.9751 23.1465 60.8695 23.0389C60.7639 22.9313 60.7078 22.8009 60.7078 22.6412V19.3385C60.7078 19.1787 60.7606 19.0483 60.8695 18.9407C60.9751 18.8331 61.1103 18.781 61.2687 18.781C61.4237 18.781 61.5524 18.8331 61.658 18.9407C61.7668 19.0483 61.8196 19.1787 61.8196 19.3385V22.6412C61.8196 22.8009 61.7668 22.9313 61.658 23.0389C61.5524 23.1433 61.4237 23.1987 61.2687 23.1987Z" fill="white" fill-opacity="0.6"/>
<path d="M62.7264 19.478C62.7033 19.4291 62.6934 19.3704 62.6934 19.3052C62.6934 19.1617 62.7428 19.0411 62.8418 18.9368C62.9408 18.8324 63.0629 18.7803 63.208 18.7803C63.3169 18.7803 63.4192 18.8129 63.5115 18.8748C63.6039 18.9368 63.6633 19.0215 63.6996 19.1259L64.5937 21.8384L65.4811 19.1259C65.5141 19.0215 65.5768 18.94 65.6692 18.8748C65.7616 18.8129 65.8605 18.7803 65.9727 18.7803C66.1212 18.7803 66.2465 18.8324 66.3422 18.9302C66.4379 19.0313 66.4874 19.1519 66.4874 19.2954C66.4874 19.3671 66.4775 19.4258 66.4544 19.4747L65.237 22.7611C65.1875 22.8915 65.105 22.9991 64.9896 23.0773C64.8741 23.1556 64.7421 23.198 64.6003 23.198C64.4551 23.198 64.3264 23.1589 64.2077 23.0773C64.0889 22.9991 64.0031 22.8915 63.9536 22.7611L62.7264 19.478Z" fill="white" fill-opacity="0.6"/>
<path d="M70.0303 21.9428C70.1524 21.9428 70.2613 21.9884 70.3537 22.0797C70.4493 22.171 70.4955 22.2786 70.4955 22.4025C70.4955 22.4677 70.479 22.5361 70.4427 22.6079C70.4064 22.6796 70.3405 22.7513 70.2481 22.8296C70.1095 22.9404 69.938 23.0284 69.7301 23.0969C69.5223 23.1654 69.288 23.198 69.0307 23.198C68.7272 23.198 68.4501 23.1458 68.196 23.0415C67.9453 22.9371 67.7276 22.7904 67.5461 22.5981C67.3646 22.4057 67.2228 22.1775 67.1205 21.9102C67.0182 21.6428 66.9688 21.3461 66.9688 21.0266C66.9688 20.681 67.0248 20.3713 67.1337 20.0974C67.2426 19.8203 67.3943 19.5856 67.5824 19.3932C67.7704 19.2008 67.9882 19.0509 68.2389 18.9465C68.4863 18.8422 68.7536 18.79 69.034 18.79C69.3441 18.79 69.6278 18.8487 69.8885 18.9694C70.1491 19.09 70.3702 19.2465 70.5549 19.4356C70.7397 19.6279 70.8848 19.8399 70.9871 20.0779C71.0894 20.3159 71.1422 20.5506 71.1422 20.7853C71.1422 21.0201 71.096 21.1896 71.0003 21.2972C70.9046 21.4048 70.7957 21.457 70.6671 21.457H68.0971C68.1234 21.6982 68.2257 21.8938 68.3973 22.0471C68.5688 22.2003 68.7965 22.2753 69.0769 22.2753C69.3243 22.2753 69.5388 22.2068 69.7169 22.0699C69.8192 21.9884 69.9248 21.9428 70.0303 21.9428ZM70.0567 20.7625C70.0567 20.6093 70.0303 20.4691 69.9743 20.3419C69.9182 20.2148 69.8423 20.1039 69.7466 20.0094C69.6509 19.9148 69.5388 19.8431 69.4167 19.7877C69.2913 19.7323 69.1627 19.7062 69.0307 19.7062C68.8921 19.7062 68.7635 19.7323 68.6447 19.7877C68.5259 19.8431 68.4237 19.9148 68.3346 20.0094C68.2455 20.1039 68.1762 20.2115 68.1234 20.3419C68.0707 20.4691 68.0443 20.6125 68.0443 20.7625H70.0567Z" fill="white" fill-opacity="0.6"/>
<path d="M74.3586 20.042C74.3586 19.8823 74.3916 19.729 74.4609 19.5758C74.5302 19.4226 74.6324 19.2889 74.7677 19.1715C74.903 19.0541 75.0745 18.9596 75.2791 18.8879C75.4836 18.8161 75.7211 18.7803 75.9917 18.7803C76.3744 18.7803 76.6845 18.8487 76.9286 18.9889C77.1728 19.1291 77.3443 19.3084 77.4499 19.5269C77.4763 19.5823 77.4928 19.6247 77.4994 19.654C77.506 19.6834 77.5093 19.7127 77.5093 19.7388C77.5093 19.8627 77.4664 19.9735 77.3773 20.0714C77.2882 20.1659 77.1827 20.2148 77.054 20.2148C76.9583 20.2148 76.8758 20.1887 76.8 20.1398C76.7241 20.0909 76.6647 20.0224 76.6218 19.9344C76.5096 19.716 76.2886 19.6084 75.9587 19.6084C75.731 19.6084 75.576 19.6508 75.4902 19.7388C75.4044 19.8268 75.3615 19.9181 75.3615 20.0159C75.3615 20.0974 75.3879 20.1692 75.4374 20.2278C75.4869 20.2865 75.5529 20.3387 75.6354 20.3778C75.7178 20.4202 75.8135 20.4561 75.9224 20.4854C76.0313 20.5148 76.1434 20.5474 76.2655 20.58C76.4305 20.6223 76.5987 20.6745 76.7703 20.7267C76.9418 20.7821 77.0969 20.8538 77.2387 20.9451C77.3806 21.0364 77.4961 21.1505 77.5884 21.294C77.6808 21.4374 77.7237 21.6167 77.7237 21.8352C77.7237 21.9069 77.7105 22.0178 77.6874 22.1677C77.661 22.3177 77.5917 22.4709 77.4796 22.6242C77.3674 22.7774 77.1958 22.9111 76.9649 23.0252C76.734 23.1393 76.4173 23.198 76.0148 23.198C75.7673 23.198 75.5463 23.1752 75.3582 23.1295C75.1702 23.0839 75.0085 23.0219 74.8766 22.9502C74.7446 22.8752 74.6357 22.7937 74.55 22.7057C74.4642 22.6144 74.3949 22.5231 74.3454 22.4318C74.319 22.3731 74.2992 22.321 74.286 22.2851C74.2761 22.246 74.2695 22.2101 74.2695 22.171C74.2695 22.0471 74.3124 21.9362 74.4015 21.845C74.4906 21.7504 74.606 21.7048 74.7512 21.7048C74.9459 21.7048 75.0877 21.7993 75.1834 21.9819C75.2263 22.0634 75.3121 22.1514 75.4407 22.2395C75.5661 22.3307 75.7706 22.3764 76.0445 22.3764C76.1995 22.3764 76.3216 22.3601 76.414 22.3275C76.5063 22.2949 76.5756 22.2558 76.6218 22.2134C76.668 22.171 76.6977 22.1253 76.7076 22.0764C76.7175 22.0308 76.7241 21.9917 76.7241 21.9591C76.7241 21.8776 76.701 21.8091 76.6548 21.7504C76.6086 21.6917 76.5459 21.6428 76.4667 21.6037C76.3909 21.5613 76.2985 21.5254 76.1896 21.4961C76.0807 21.4668 75.9686 21.4374 75.8531 21.4113C75.6816 21.3722 75.5067 21.3266 75.3318 21.2711C75.1537 21.2157 74.992 21.1407 74.8469 21.0429C74.7017 20.9451 74.5829 20.8147 74.4906 20.6582C74.4048 20.4887 74.3586 20.2865 74.3586 20.042Z" fill="white" fill-opacity="0.6"/>
<path d="M78.1737 19.4842C78.1572 19.4516 78.1474 19.4157 78.1408 19.3831C78.1342 19.3472 78.1309 19.3146 78.1309 19.2885C78.1309 19.1516 78.177 19.0342 78.2727 18.9332C78.3684 18.8321 78.4839 18.7832 78.629 18.7832C78.7346 18.7832 78.827 18.8125 78.9095 18.868C78.9919 18.9267 79.0546 19.0016 79.0909 19.0929L80.2357 21.8642L81.0407 19.1614C81.0737 19.0538 81.1364 18.9625 81.232 18.8908C81.3277 18.8191 81.4333 18.7832 81.5554 18.7832C81.7038 18.7832 81.8292 18.8354 81.9282 18.9332C82.0271 19.0342 82.0766 19.1549 82.0766 19.2983C82.0766 19.3538 82.07 19.4092 82.0502 19.4613L80.7636 23.5009C80.6349 23.8954 80.4468 24.1757 80.1895 24.3485C79.9355 24.5213 79.6353 24.6061 79.2856 24.6061H78.7973C78.6653 24.6061 78.5531 24.5637 78.4674 24.4757C78.3783 24.3877 78.3354 24.2833 78.3354 24.1627C78.3354 24.0355 78.3783 23.9247 78.4674 23.8302C78.5564 23.7356 78.6653 23.6867 78.7973 23.6867H79.1701C79.3185 23.6867 79.4439 23.6411 79.5462 23.5465C79.6485 23.452 79.7309 23.2889 79.7903 23.0542L78.1737 19.4842Z" fill="white" fill-opacity="0.6"/>
<path d="M82.6203 20.042C82.6203 19.8823 82.6533 19.729 82.7226 19.5758C82.7919 19.4226 82.8942 19.2889 83.0294 19.1715C83.1647 19.0541 83.3362 18.9596 83.5408 18.8879C83.7453 18.8161 83.9829 18.7803 84.2534 18.7803C84.6361 18.7803 84.9462 18.8487 85.1904 18.9889C85.4345 19.1291 85.606 19.3084 85.7116 19.5269C85.738 19.5823 85.7545 19.6247 85.7611 19.654C85.7677 19.6834 85.771 19.7127 85.771 19.7388C85.771 19.8627 85.7281 19.9735 85.639 20.0714C85.55 20.1659 85.4444 20.2148 85.3157 20.2148C85.2201 20.2148 85.1376 20.1887 85.0617 20.1398C84.9858 20.0909 84.9264 20.0224 84.8835 19.9344C84.7714 19.716 84.5503 19.6084 84.2204 19.6084C83.9928 19.6084 83.8377 19.6508 83.7519 19.7388C83.6662 19.8268 83.6233 19.9181 83.6233 20.0159C83.6233 20.0974 83.6497 20.1692 83.6991 20.2278C83.7486 20.2865 83.8146 20.3387 83.8971 20.3778C83.9796 20.4202 84.0752 20.4561 84.1841 20.4854C84.293 20.5148 84.4052 20.5474 84.5272 20.58C84.6922 20.6223 84.8604 20.6745 85.032 20.7267C85.2036 20.7821 85.3586 20.8538 85.5005 20.9451C85.6423 21.0364 85.7578 21.1505 85.8502 21.294C85.9426 21.4374 85.9855 21.6167 85.9855 21.8352C85.9855 21.9069 85.9723 22.0178 85.9492 22.1677C85.9228 22.3177 85.8535 22.4709 85.7413 22.6242C85.6291 22.7774 85.4576 22.9111 85.2266 23.0252C84.9957 23.1393 84.679 23.198 84.2765 23.198C84.0291 23.198 83.808 23.1752 83.62 23.1295C83.4319 23.0839 83.2703 23.0219 83.1383 22.9502C83.0063 22.8752 82.8975 22.7937 82.8117 22.7057C82.7259 22.6144 82.6566 22.5231 82.6071 22.4318C82.5807 22.3731 82.5609 22.321 82.5477 22.2851C82.5378 22.246 82.5312 22.2101 82.5312 22.171C82.5312 22.0471 82.5741 21.9362 82.6632 21.845C82.7523 21.7504 82.8678 21.7048 83.0129 21.7048C83.2076 21.7048 83.3494 21.7993 83.4451 21.9819C83.488 22.0634 83.5738 22.1514 83.7024 22.2395C83.8278 22.3307 84.0324 22.3764 84.3062 22.3764C84.4612 22.3764 84.5833 22.3601 84.6757 22.3275C84.7681 22.2949 84.8373 22.2558 84.8835 22.2134C84.9297 22.171 84.9594 22.1253 84.9693 22.0764C84.9792 22.0308 84.9858 21.9917 84.9858 21.9591C84.9858 21.8776 84.9627 21.8091 84.9165 21.7504C84.8703 21.6917 84.8077 21.6428 84.7285 21.6037C84.6526 21.5613 84.5602 21.5254 84.4513 21.4961C84.3425 21.4668 84.2303 21.4374 84.1148 21.4113C83.9433 21.3722 83.7684 21.3266 83.5936 21.2711C83.4154 21.2157 83.2538 21.1407 83.1086 21.0429C82.9634 20.9451 82.8447 20.8147 82.7523 20.6582C82.6665 20.4887 82.6203 20.2865 82.6203 20.042Z" fill="white" fill-opacity="0.6"/>
<path d="M86.7483 19.729C86.6362 19.729 86.5405 19.6899 86.458 19.6116C86.3755 19.5334 86.3359 19.4388 86.3359 19.328C86.3359 19.2171 86.3755 19.1258 86.458 19.0443C86.5405 18.9661 86.6362 18.9237 86.7483 18.9237H86.9661V18.0956C86.9661 17.9423 87.0189 17.8119 87.1277 17.7076C87.2333 17.6 87.3686 17.5479 87.5269 17.5479C87.682 17.5479 87.8107 17.6 87.9162 17.7076C88.0251 17.8152 88.0779 17.9423 88.0779 18.0956V18.9237H88.7905C88.8994 18.9237 88.9951 18.9628 89.0775 19.0443C89.1567 19.1226 89.1996 19.2171 89.1996 19.328C89.1996 19.4356 89.16 19.5301 89.0775 19.6116C88.9984 19.6899 88.9027 19.729 88.7905 19.729H88.0779V21.9264C88.0779 22.0568 88.101 22.1481 88.1439 22.197C88.1868 22.2459 88.2857 22.272 88.4342 22.272H88.6322C88.7608 22.272 88.8697 22.3177 88.9588 22.409C89.0511 22.5003 89.0973 22.6078 89.0973 22.7317C89.0973 22.8589 89.0511 22.9665 88.9588 23.0545C88.8664 23.1458 88.7575 23.1914 88.6322 23.1914H88.0779C87.7249 23.1914 87.4544 23.1067 87.2597 22.9339C87.0651 22.7611 86.9661 22.4774 86.9661 22.0862V19.7355H86.7483V19.729Z" fill="white" fill-opacity="0.6"/>
<path d="M92.7686 21.9428C92.8907 21.9428 92.9996 21.9884 93.0919 22.0797C93.1876 22.171 93.2338 22.2786 93.2338 22.4025C93.2338 22.4677 93.2173 22.5361 93.181 22.6079C93.1447 22.6796 93.0787 22.7513 92.9864 22.8296C92.8478 22.9404 92.6763 23.0284 92.4684 23.0969C92.2606 23.1654 92.0263 23.198 91.769 23.198C91.4655 23.198 91.1883 23.1458 90.9343 23.0415C90.6836 22.9371 90.4658 22.7904 90.2844 22.5981C90.1029 22.4057 89.9611 22.1775 89.8588 21.9102C89.7565 21.6428 89.707 21.3461 89.707 21.0266C89.707 20.681 89.7631 20.3713 89.872 20.0974C89.9809 19.8203 90.1326 19.5856 90.3207 19.3932C90.5087 19.2008 90.7265 19.0509 90.9772 18.9465C91.2246 18.8422 91.4919 18.79 91.7723 18.79C92.0824 18.79 92.3661 18.8487 92.6268 18.9694C92.8874 19.09 93.1084 19.2465 93.2932 19.4356C93.4779 19.6279 93.6231 19.8399 93.7254 20.0779C93.8277 20.3159 93.8804 20.5506 93.8804 20.7853C93.8804 21.0201 93.8342 21.1896 93.7386 21.2972C93.6429 21.4048 93.534 21.457 93.4054 21.457H90.8353C90.8617 21.6982 90.964 21.8938 91.1356 22.0471C91.3071 22.2003 91.5348 22.2753 91.8152 22.2753C92.0626 22.2753 92.2771 22.2068 92.4552 22.0699C92.5575 21.9884 92.6664 21.9428 92.7686 21.9428ZM92.795 20.7625C92.795 20.6093 92.7686 20.4691 92.7125 20.3419C92.6565 20.2148 92.5806 20.1039 92.4849 20.0094C92.3892 19.9148 92.2771 19.8431 92.155 19.7877C92.0296 19.7323 91.901 19.7062 91.769 19.7062C91.6304 19.7062 91.5018 19.7323 91.383 19.7877C91.2642 19.8431 91.162 19.9148 91.0729 20.0094C90.9838 20.1039 90.9145 20.2115 90.8617 20.3419C90.8089 20.4691 90.7826 20.6125 90.7826 20.7625H92.795Z" fill="white" fill-opacity="0.6"/>
<path d="M98.7656 22.647C98.7656 22.8002 98.7128 22.9306 98.6039 23.035C98.495 23.1426 98.3631 23.1947 98.2113 23.1947C98.0563 23.1947 97.9243 23.1426 97.8187 23.035C97.7099 22.9274 97.6571 22.8002 97.6571 22.647V20.5408C97.6571 20.2507 97.5845 20.0387 97.436 19.9018C97.2876 19.7649 97.0962 19.6964 96.8587 19.6964C96.7102 19.6964 96.5683 19.7225 96.443 19.7747C96.3143 19.8268 96.2054 19.8953 96.1131 19.9801C96.0207 20.0648 95.9514 20.1659 95.9019 20.28C95.8524 20.3941 95.826 20.518 95.826 20.6484V22.6405C95.826 22.8002 95.7733 22.9306 95.6644 23.0382C95.5588 23.1458 95.4269 23.198 95.2718 23.198C95.1134 23.198 94.9815 23.1458 94.8726 23.0382C94.767 22.9306 94.7109 22.8002 94.7109 22.6405V19.2954C94.7109 19.1519 94.7604 19.0313 94.8594 18.9302C94.9584 18.8292 95.0804 18.7803 95.2223 18.7803C95.3543 18.7803 95.4697 18.8227 95.572 18.9107C95.6743 18.9987 95.7304 19.103 95.7403 19.2302L95.7733 19.6247C95.9184 19.3736 96.1164 19.1715 96.3704 19.015C96.6244 18.8585 96.9082 18.7803 97.2183 18.7803C97.5515 18.7803 97.8451 18.8683 98.0991 19.0476C98.3532 19.2237 98.5379 19.4519 98.6468 19.7323C98.7854 19.4552 98.9899 19.2269 99.2571 19.0476C99.5244 18.8716 99.8213 18.7803 100.148 18.7803C100.362 18.7803 100.567 18.8227 100.752 18.9042C100.94 18.9857 101.105 19.0965 101.247 19.2367C101.388 19.3769 101.497 19.5367 101.576 19.7192C101.656 19.9018 101.695 20.0974 101.695 20.3061V22.6503C101.695 22.8035 101.642 22.9339 101.534 23.0382C101.425 23.1458 101.293 23.198 101.141 23.198C100.986 23.198 100.854 23.1458 100.748 23.0382C100.639 22.9306 100.587 22.8035 100.587 22.6503V20.5441C100.587 20.267 100.511 20.0551 100.362 19.9116C100.214 19.7681 100.016 19.6997 99.7751 19.6997C99.6266 19.6997 99.4914 19.7258 99.3693 19.7779C99.2472 19.8301 99.1417 19.8986 99.0493 19.9833C98.9569 20.0681 98.8876 20.1692 98.8382 20.2833C98.7887 20.3974 98.7623 20.5213 98.7623 20.6517V22.647H98.7656Z" fill="white" fill-opacity="0.6"/>
</g>
<defs>
<clipPath id="clip0">
<rect width="3" height="4" fill="white" transform="translate(0.878906 12.8955)"/>
</clipPath>
<clipPath id="clip1">
<rect width="100" height="25" fill="white" transform="translate(1.76953 0.236328)"/>
</clipPath>
</defs>
</svg>
