<svg width="180" height="21" viewBox="0 0 180 21" fill="none" xmlns="http://www.w3.org/2000/svg">
<path d="M38.7553 11.2218C38.5818 11.2218 38.4637 11.2317 38.4637 11.423C38.4637 12.141 39.3762 12.5708 40.5502 12.5708C41.586 12.5708 41.8223 12.2453 42.2622 12.2453C42.6141 12.2453 42.8404 12.4391 42.8404 12.8565C42.8404 14.0887 41.0052 14.8514 39.4667 14.8514C36.9428 14.8514 35.1855 13.4179 35.1855 11.1299C35.1855 8.75983 36.6235 7.14502 39.4667 7.14502C41.6815 7.14502 42.8404 8.56108 42.8404 10.1411C42.8404 10.9982 42.5337 11.2193 41.9379 11.2193H38.7553V11.2218ZM39.9695 9.48773C39.9695 8.97099 39.7583 8.48904 39.2204 8.48904C38.6497 8.48904 38.4184 8.94367 38.4184 9.72871C38.4184 9.96721 38.5693 10.002 38.8634 10.002C38.9614 10.002 39.2882 9.9995 39.3838 9.9995C39.7709 10.002 39.9695 9.94236 39.9695 9.48773Z" fill="white"/>
<path d="M47.0131 11.2218C46.8397 11.2218 46.7215 11.2317 46.7215 11.423C46.7215 12.141 47.634 12.5708 48.808 12.5708C49.8438 12.5708 50.0801 12.2453 50.52 12.2453C50.872 12.2453 51.0982 12.4391 51.0982 12.8565C51.0982 14.0887 49.2631 14.8514 47.7245 14.8514C45.2006 14.8514 43.4434 13.4179 43.4434 11.1299C43.4434 8.75983 44.8813 7.14502 47.7245 7.14502C49.9393 7.14502 51.0982 8.56108 51.0982 10.1411C51.0982 10.9982 50.7915 11.2193 50.1957 11.2193H47.0131V11.2218ZM48.2273 9.48773C48.2273 8.97099 48.0162 8.48904 47.4782 8.48904C46.9075 8.48904 46.6763 8.94367 46.6763 9.72871C46.6763 9.96721 46.8271 10.002 47.1212 10.002C47.2193 10.002 47.5461 9.9995 47.6416 9.9995C48.0287 10.002 48.2273 9.94236 48.2273 9.48773Z" fill="white"/>
<path d="M13.6016 11.2218C13.4281 11.2218 13.3099 11.2317 13.3099 11.423C13.3099 12.141 14.2225 12.5708 15.3965 12.5708C16.4322 12.5708 16.6685 12.2453 17.1085 12.2453C17.4604 12.2453 17.6867 12.4391 17.6867 12.8565C17.6867 14.0887 15.8515 14.8514 14.313 14.8514C11.789 14.8514 10.0293 13.4179 10.0293 11.1299C10.0293 8.75983 11.4673 7.14502 14.313 7.14502C16.5278 7.14502 17.6867 8.56108 17.6867 10.1411C17.6867 10.9982 17.38 11.2193 16.7842 11.2193H13.6016V11.2218ZM14.8158 9.48773C14.8158 8.97099 14.6046 8.48904 14.0666 8.48904C13.496 8.48904 13.2647 8.94367 13.2647 9.72871C13.2647 9.96721 13.4155 10.002 13.7097 10.002C13.8077 10.002 14.1345 9.9995 14.23 9.9995C14.6172 10.002 14.8158 9.94236 14.8158 9.48773Z" fill="white"/>
<path d="M31.6636 7.18216C30.56 7.18216 30.2005 7.78088 29.9541 8.16844C29.9013 8.25042 29.846 8.35725 29.7781 8.35725C29.7153 8.35725 29.7178 8.22061 29.7178 8.22061C29.7178 8.22061 29.6952 4.89659 29.6952 4.80715C29.6952 4.64567 29.6826 4.3252 29.21 4.3252C28.8279 4.3252 28.0159 4.57363 27.41 4.82206C26.8042 5.07049 25.7207 5.57729 25.7207 6.1313C25.7207 6.48655 25.9821 6.64555 26.1229 6.77225C26.2436 6.88156 26.495 7.10515 26.495 7.63431C26.495 8.18831 26.495 14.3171 26.495 14.3171C26.495 14.3171 26.4673 14.9904 27.1385 14.9904C27.8098 14.9904 27.9681 14.409 28.4081 14.409C28.8455 14.409 29.303 14.8239 30.8792 14.8239C32.5786 14.8239 34.6803 13.8054 34.6803 11.0403C34.6803 8.27775 32.7446 7.18216 31.6636 7.18216ZM30.8114 13.3159C29.8586 13.3159 29.7178 12.1384 29.7178 11.2117C29.7178 10.7149 29.7178 10.3273 29.7178 9.75592C29.7178 9.21434 29.9415 9.0926 30.0974 9.0926C31.1935 9.0926 31.568 11.0676 31.568 12.0912C31.5655 12.3247 31.5655 13.3159 30.8114 13.3159Z" fill="white"/>
<path d="M9.89935 7.37305C9.54237 7.37305 9.00188 7.38795 8.41111 7.38795C7.82035 7.38795 7.38041 7.37305 6.90026 7.37305C6.48295 7.37305 6.34468 7.6016 6.34468 7.86246C6.34468 8.19536 6.493 8.27237 6.7645 8.3941C6.87009 8.4413 7.02846 8.48354 7.02846 8.6475C7.02846 8.727 6.97819 8.87606 6.88266 9.12201C6.71674 9.54186 6.45781 10.1182 6.42513 10.1853C6.36731 10.3021 6.29692 10.471 6.14608 10.471C5.98771 10.471 5.91732 10.2872 5.86704 10.1853C5.79916 10.0437 5.4799 9.30088 5.41202 9.13195C5.35169 8.9804 5.26119 8.75184 5.26119 8.64005C5.26119 8.51335 5.36174 8.46118 5.62319 8.34938C5.90223 8.23014 5.95 8.16803 5.94246 7.86246C5.94246 7.59415 5.79414 7.37305 5.34163 7.37305C5.11035 7.37305 3.61206 7.38795 3.36067 7.38795C3.1118 7.38795 1.87998 7.37305 1.32441 7.37305C1.05291 7.37305 0.640625 7.54198 0.640625 8.02145C0.640625 8.34938 0.781405 8.4264 0.917156 8.47857C1.0705 8.53819 1.3596 8.64005 1.59088 8.84625C1.84479 9.06735 2.04841 9.47478 2.04841 9.47478C2.04841 9.47478 3.82072 12.8858 4.17267 13.5391C4.31093 13.795 4.35869 14.0211 4.35869 14.3068C4.35869 14.7465 4.07714 15.2881 3.51905 15.2881C2.71209 15.2881 3.20481 13.9739 1.96294 13.9739C1.19117 13.9739 0.680848 14.5577 0.680848 15.2558C0.680848 16.498 1.6839 17.3252 2.9132 17.3252C5.23605 17.3252 6.34217 14.6894 6.74942 13.8671C7.15919 13.0447 8.80831 9.78781 8.91641 9.5667C9.02451 9.3456 9.16277 8.95059 9.48204 8.82141C9.78371 8.69967 9.97225 8.64253 10.196 8.5531C10.3644 8.48602 10.5153 8.36677 10.5153 8.03139C10.5153 7.79538 10.2965 7.37305 9.89935 7.37305Z" fill="white"/>
<path d="M25.1463 8.96883C25.1463 8.39992 24.8472 7.2621 24.2664 7.2621C24.0779 7.2621 23.9698 7.38383 23.5626 7.38383C23.1553 7.38383 22.6902 7.15527 21.7676 7.15527C19.5654 7.15527 18.4618 8.46451 18.4618 9.71661C18.4618 10.9141 19.2688 11.4134 20.0934 11.7115C20.938 12.0171 21.3805 12.109 21.6369 12.1885C21.833 12.2506 22.3911 12.4717 22.3911 12.8344C22.3911 13.212 21.9084 13.222 21.6872 13.222C21.2045 13.222 20.7093 13.0704 20.4554 12.9015C20.2417 12.7599 19.8872 12.4668 19.754 12.3525C19.6233 12.2382 19.2964 11.9028 18.937 11.9028C18.5196 11.9028 18.4141 12.3326 18.4141 12.5984C18.4141 12.8642 18.4166 13.1325 18.4392 13.371C18.4593 13.5847 18.5196 13.9896 18.766 14.1884C19.0174 14.3921 19.5478 14.4741 19.8922 14.5511C20.1688 14.6132 20.9783 14.8368 21.8053 14.8368C24.5354 14.8368 25.6214 13.2717 25.6214 12.1562C25.6214 10.9538 24.6687 10.4545 23.7109 10.1414C23.4997 10.0719 22.5143 9.77375 22.3383 9.70915C22.1598 9.64456 21.7525 9.43091 21.7525 9.10795C21.7525 8.89927 21.926 8.71791 22.2855 8.71791C22.5193 8.71791 22.8511 8.81232 23.0271 8.90672C23.1779 8.98622 23.5047 9.17503 23.8667 9.37377C24.1408 9.52532 24.3595 9.60481 24.6259 9.60481C25.1664 9.6073 25.1463 9.14025 25.1463 8.96883Z" fill="white"/>
<path d="M60.2571 15.7272C59.9166 15.7272 59.6443 15.5911 59.44 15.3868C59.2358 15.1826 59.0996 14.9102 59.0996 14.5698V4.08469C59.0996 3.74427 59.2358 3.54001 59.44 3.26767C59.6443 3.06342 59.9166 2.92725 60.2571 2.92725C60.5975 2.92725 60.8017 3.06342 61.0741 3.26767C61.2783 3.47193 61.3464 3.74427 61.3464 4.08469V7.76129C61.6188 7.42086 61.9592 7.08044 62.3677 6.87618C62.7762 6.67193 63.2528 6.53576 63.7294 6.53576C64.1379 6.53576 64.4783 6.60384 64.8188 6.74001C65.2273 6.87618 65.4996 7.08044 65.772 7.35278C66.0443 7.62512 66.2485 7.89746 66.3847 8.23788C66.5209 8.57831 66.589 8.98682 66.589 9.32725V14.5017C66.589 14.8421 66.4528 15.1145 66.2485 15.3187C66.0443 15.523 65.772 15.6592 65.4315 15.6592C65.0911 15.6592 64.8188 15.523 64.6145 15.3187C64.4102 15.1145 64.2741 14.8421 64.2741 14.5017V9.80384C64.2741 9.59959 64.206 9.39533 64.1379 9.25916C64.206 9.12299 64.0698 8.98682 63.9337 8.85065C63.7975 8.71448 63.6613 8.57831 63.4571 8.51022C63.3209 8.44214 63.1166 8.37405 62.9124 8.37405C62.7081 8.37405 62.5039 8.44214 62.2996 8.51022C62.0954 8.57831 61.9592 8.71448 61.823 8.85065C61.6868 8.98682 61.5507 9.19107 61.4826 9.32725C61.4145 9.5315 61.3464 9.73576 61.3464 9.94001V14.5698C61.3464 14.9102 61.2102 15.1826 61.006 15.3868C60.8017 15.5911 60.5294 15.7272 60.2571 15.7272Z" fill="#60D2CD" stroke="#60D2CD" stroke-width="0.4" stroke-miterlimit="10"/>
<path d="M70.0615 5.44618C69.721 5.44618 69.3806 5.31001 69.1764 5.10576C68.904 4.83342 68.8359 4.56107 68.8359 4.22065C68.8359 3.88022 68.9721 3.5398 69.1764 3.33554C69.4487 3.0632 69.721 2.99512 70.0615 2.99512C70.4019 2.99512 70.7423 3.13129 70.9466 3.33554C71.2189 3.60788 71.287 3.88022 71.287 4.22065C71.287 4.56107 71.1508 4.9015 70.9466 5.10576C70.6742 5.3781 70.4019 5.44618 70.0615 5.44618ZM70.0615 15.727C69.721 15.727 69.4487 15.5909 69.2444 15.3866C69.0402 15.1824 68.904 14.91 68.904 14.5696V7.6249C68.904 7.28448 69.0402 7.01214 69.2444 6.80788C69.4487 6.60363 69.721 6.46746 70.0615 6.46746C70.4019 6.46746 70.6742 6.60363 70.8785 6.80788C71.0827 7.01214 71.2189 7.28448 71.2189 7.6249V14.5015C71.2189 14.8419 71.0827 15.1143 70.8785 15.3185C70.6061 15.5909 70.3338 15.727 70.0615 15.727Z" fill="#60D2CD" stroke="#60D2CD" stroke-width="0.4" stroke-miterlimit="10"/>
<path d="M73.0564 7.96565C72.9883 7.82948 72.9883 7.76139 72.9883 7.62522C72.9883 7.35288 73.1245 7.08054 73.3287 6.87628C73.533 6.67203 73.8053 6.53586 74.0776 6.53586C74.2819 6.53586 74.4862 6.60394 74.6904 6.74011C74.8947 6.87628 75.0308 7.01245 75.0989 7.28479L76.9372 12.9359L78.7074 7.21671C78.7755 7.01245 78.9117 6.8082 79.1159 6.67203C79.3202 6.53586 79.5244 6.46777 79.7287 6.46777C80.0691 6.46777 80.2734 6.60394 80.4776 6.8082C80.6819 7.01245 80.75 7.28479 80.75 7.55713C80.75 7.69331 80.75 7.82948 80.6819 7.96565L78.1627 14.8422C78.0266 15.1146 77.8904 15.3188 77.6181 15.5231C77.3457 15.6593 77.1415 15.7954 76.801 15.7954C76.5287 15.7954 76.2564 15.7273 75.984 15.5231C75.7117 15.3869 75.5755 15.1146 75.4393 14.8422L73.0564 7.96565Z" fill="#60D2CD" stroke="#60D2CD" stroke-width="0.4" stroke-miterlimit="10"/>
<path d="M88.1031 13.072C88.3755 13.072 88.5797 13.1401 88.784 13.3443C88.9882 13.5486 89.0563 13.7528 89.0563 14.0252C89.0563 14.1613 88.9882 14.2975 88.9201 14.4337C88.8521 14.5698 88.7159 14.706 88.5116 14.9103C88.2393 15.1145 87.8989 15.3188 87.4223 15.4549C87.0138 15.5911 86.5372 15.6592 85.9925 15.6592C85.3797 15.6592 84.767 15.523 84.2904 15.3188C83.7457 15.1145 83.3372 14.7741 82.9287 14.3656C82.5201 13.9571 82.2478 13.4805 82.0436 12.9358C81.8393 12.3911 81.7031 11.7784 81.7031 11.0975C81.7031 10.3486 81.8393 9.7358 82.0436 9.12303C82.2478 8.57835 82.5882 8.03367 82.9967 7.62516C83.4053 7.21665 83.8138 6.87622 84.3584 6.67197C84.9031 6.46771 85.4478 6.33154 85.9925 6.33154C86.6052 6.33154 87.218 6.46771 87.7627 6.74005C88.3074 7.01239 88.784 7.28473 89.1244 7.69324C89.5329 8.10176 89.8052 8.51027 90.0095 9.05495C90.2138 9.53154 90.3499 10.0762 90.3499 10.5528C90.3499 11.0294 90.2818 11.3698 90.0776 11.6422C89.8733 11.8464 89.6691 11.9826 89.3967 11.9826H84.0861C84.1542 12.4592 84.3584 12.8677 84.6989 13.2081C85.0393 13.5486 85.5159 13.6847 86.1287 13.6847C86.6733 13.6847 87.0818 13.5486 87.4223 13.2762C87.6946 13.2081 87.8989 13.072 88.1031 13.072ZM88.1712 10.6209C88.1712 10.2805 88.1031 10.0081 87.9669 9.7358C87.8308 9.46346 87.6946 9.2592 87.4904 9.05495C87.2861 8.85069 87.0818 8.71452 86.8095 8.57835C86.5372 8.44218 86.2648 8.3741 85.9925 8.3741C85.7201 8.3741 85.4478 8.44218 85.1755 8.57835C84.9031 8.71452 84.6989 8.85069 84.5627 9.05495C84.3584 9.2592 84.2223 9.46346 84.1542 9.7358C84.018 10.0081 84.018 10.2805 84.018 10.6209H88.1712Z" fill="#60D2CD" stroke="#60D2CD" stroke-width="0.4" stroke-miterlimit="10"/>
<path d="M94.0907 9.12288C94.0907 8.78245 94.1588 8.44203 94.295 8.16969C94.4311 7.82926 94.6354 7.55692 94.9077 7.35267C95.1801 7.08033 95.5205 6.94416 95.929 6.7399C96.3375 6.60373 96.8141 6.53564 97.4269 6.53564C98.2439 6.53564 98.8567 6.67181 99.3333 6.94416C99.8099 7.2165 100.218 7.62501 100.423 8.03352C100.491 8.16969 100.491 8.23777 100.559 8.30586C100.559 8.37394 100.559 8.44203 100.559 8.51011C100.559 8.78245 100.491 8.98671 100.286 9.19096C100.082 9.39522 99.8779 9.4633 99.6056 9.4633C99.4013 9.4633 99.2652 9.39522 99.0609 9.32713C98.9247 9.19096 98.7886 9.05479 98.7205 8.91862C98.5162 8.44203 98.0396 8.23777 97.3588 8.23777C96.8822 8.23777 96.5418 8.30586 96.4056 8.51011C96.2013 8.64628 96.1333 8.85054 96.1333 9.05479C96.1333 9.25905 96.2013 9.39522 96.2694 9.53139C96.4056 9.66756 96.5418 9.73564 96.6779 9.87181C96.8822 9.9399 97.0184 10.008 97.2907 10.0761C97.495 10.1442 97.7673 10.2122 97.9716 10.2803C98.312 10.3484 98.6524 10.4846 98.9928 10.6208C99.3333 10.7569 99.6737 10.8931 99.946 11.0973C100.218 11.3016 100.491 11.5059 100.695 11.8463C100.899 12.1186 100.967 12.5271 100.967 13.0037C100.967 13.1399 100.967 13.4122 100.899 13.6846C100.831 14.025 100.695 14.2973 100.491 14.6378C100.286 14.9782 99.8779 15.2505 99.4013 15.4548C98.9928 15.591 98.312 15.7271 97.495 15.7271C96.9503 15.7271 96.5418 15.659 96.1333 15.591C95.7247 15.5229 95.3843 15.3867 95.112 15.1825C94.8396 15.0463 94.6354 14.842 94.4311 14.6378C94.2269 14.4335 94.0907 14.2293 94.0226 14.0931C93.9545 13.9569 93.9545 13.8888 93.8864 13.7527C93.8864 13.6846 93.8184 13.6165 93.8184 13.4803C93.8184 13.208 93.8864 13.0037 94.0907 12.7995C94.295 12.5952 94.4992 12.5271 94.8396 12.5271C95.2481 12.5271 95.5205 12.7314 95.7247 13.1399C95.7928 13.3442 95.9971 13.4803 96.2694 13.6846C96.5418 13.8888 96.9503 13.9569 97.495 13.9569C97.8354 13.9569 98.0396 13.8888 98.2439 13.8208C98.4481 13.7527 98.5843 13.6846 98.6524 13.5484C98.7205 13.4803 98.7886 13.3442 98.8567 13.2761C98.8567 13.208 98.8567 13.0718 98.8567 13.0037C98.8567 12.7995 98.7886 12.6633 98.7205 12.5952C98.6524 12.459 98.5162 12.391 98.312 12.2548C98.1758 12.1867 97.9716 12.1186 97.7673 12.0505C97.563 11.9825 97.2907 11.9144 97.0864 11.8463C96.746 11.7782 96.4056 11.642 95.9971 11.5739C95.6567 11.4378 95.3162 11.3016 94.9758 11.0973C94.7035 10.8931 94.4311 10.6208 94.2269 10.2803C94.1588 10.0761 94.0907 9.66756 94.0907 9.12288Z" fill="#60D2CD" stroke="#60D2CD" stroke-width="0.4" stroke-miterlimit="10"/>
<path d="M101.922 7.96565C101.922 7.89756 101.854 7.82948 101.854 7.76139C101.854 7.69331 101.854 7.62522 101.854 7.55714C101.854 7.28479 101.922 7.01245 102.126 6.8082C102.33 6.60394 102.534 6.46777 102.875 6.46777C103.079 6.46777 103.283 6.53586 103.488 6.67203C103.692 6.8082 103.76 6.94437 103.896 7.14862L106.279 12.9359L107.913 7.28479C107.981 7.08054 108.117 6.87628 108.322 6.74011C108.526 6.60394 108.73 6.53586 109.002 6.53586C109.343 6.53586 109.547 6.67203 109.751 6.87628C109.956 7.08054 110.092 7.35288 110.092 7.62522C110.092 7.76139 110.092 7.82948 110.024 7.96565L107.368 16.4082C107.096 17.2252 106.688 17.838 106.211 18.1784C105.666 18.5188 105.054 18.7231 104.373 18.7231H103.351C103.079 18.7231 102.875 18.655 102.671 18.4508C102.466 18.2465 102.398 18.0422 102.398 17.7699C102.398 17.4976 102.466 17.2933 102.671 17.0891C102.875 16.8848 103.079 16.8167 103.351 16.8167H104.1C104.441 16.8167 104.645 16.7486 104.849 16.5444C105.054 16.3401 105.258 15.9997 105.326 15.5231L101.922 7.96565Z" fill="#60D2CD" stroke="#60D2CD" stroke-width="0.4" stroke-miterlimit="10"/>
<path d="M111.112 9.12288C111.112 8.78245 111.18 8.44203 111.316 8.16969C111.453 7.82926 111.657 7.55692 111.929 7.35267C112.202 7.08033 112.542 6.94416 112.95 6.7399C113.359 6.60373 113.836 6.53564 114.448 6.53564C115.265 6.53564 115.878 6.67181 116.355 6.94416C116.831 7.2165 117.24 7.62501 117.444 8.03352C117.512 8.16969 117.512 8.23777 117.58 8.30586C117.58 8.37394 117.58 8.44203 117.58 8.51011C117.58 8.78245 117.512 8.98671 117.308 9.19096C117.104 9.39522 116.899 9.4633 116.627 9.4633C116.423 9.4633 116.287 9.39522 116.082 9.32713C116.014 9.19096 115.878 9.05479 115.81 8.91862C115.606 8.44203 115.129 8.23777 114.448 8.23777C113.972 8.23777 113.631 8.30586 113.495 8.51011C113.291 8.64628 113.155 8.85054 113.155 9.05479C113.155 9.25905 113.223 9.39522 113.291 9.53139C113.427 9.66756 113.563 9.73564 113.699 9.87181C113.904 9.9399 114.04 10.008 114.312 10.0761C114.516 10.1442 114.789 10.2122 114.993 10.2803C115.333 10.3484 115.674 10.4846 116.014 10.6208C116.355 10.7569 116.695 10.8931 116.968 11.0973C117.24 11.3016 117.512 11.5059 117.716 11.8463C117.921 12.1186 117.989 12.5271 117.989 13.0037C117.989 13.1399 117.989 13.4122 117.921 13.6846C117.853 14.025 117.716 14.2973 117.512 14.6378C117.308 14.9782 116.899 15.2505 116.423 15.4548C116.014 15.591 115.333 15.7271 114.516 15.7271C113.972 15.7271 113.563 15.659 113.155 15.591C112.746 15.5229 112.406 15.3867 112.133 15.1825C111.861 15.0463 111.657 14.842 111.453 14.6378C111.248 14.4335 111.112 14.2293 111.044 14.0931C110.976 13.9569 110.976 13.8888 110.908 13.7527C110.908 13.6846 110.84 13.6165 110.84 13.4803C110.84 13.208 110.908 13.0037 111.112 12.7995C111.316 12.5952 111.521 12.5271 111.861 12.5271C112.27 12.5271 112.542 12.7314 112.746 13.1399C112.814 13.3442 113.019 13.4803 113.291 13.6846C113.563 13.8888 113.972 13.9569 114.516 13.9569C114.857 13.9569 115.061 13.8888 115.265 13.8208C115.47 13.7527 115.606 13.6846 115.674 13.5484C115.742 13.4803 115.81 13.3442 115.878 13.2761C115.878 13.208 115.878 13.0718 115.878 13.0037C115.878 12.7995 115.81 12.6633 115.742 12.5952C115.674 12.459 115.538 12.391 115.333 12.2548C115.197 12.1867 114.993 12.1186 114.789 12.0505C114.585 11.9825 114.312 11.9144 114.108 11.8463C113.768 11.7782 113.427 11.642 113.019 11.5739C112.678 11.4378 112.338 11.3016 111.997 11.0973C111.725 10.8931 111.453 10.6208 111.248 10.2803C111.18 10.0761 111.112 9.66756 111.112 9.12288Z" fill="#60D2CD" stroke="#60D2CD" stroke-width="0.4" stroke-miterlimit="10"/>
<path d="M119.623 8.44207C119.419 8.44207 119.215 8.37399 119.011 8.16973C118.874 8.03356 118.738 7.82931 118.738 7.55697C118.738 7.35271 118.806 7.14846 119.011 6.9442C119.147 6.80803 119.351 6.67186 119.623 6.67186H120.1V5.03782C120.1 4.69739 120.236 4.42505 120.44 4.2208C120.645 4.01654 120.917 3.88037 121.257 3.88037C121.598 3.88037 121.87 4.01654 122.074 4.2208C122.279 4.42505 122.415 4.69739 122.415 5.03782V6.73995H123.913C124.117 6.73995 124.321 6.80803 124.526 7.01229C124.662 7.14846 124.798 7.35271 124.798 7.62505C124.798 7.82931 124.73 8.03356 124.526 8.23782C124.389 8.37399 124.185 8.51016 123.913 8.51016H122.415V13.0719C122.415 13.3442 122.483 13.5485 122.551 13.6165C122.619 13.7527 122.823 13.7527 123.164 13.7527H123.572C123.845 13.7527 124.049 13.8208 124.253 14.0251C124.457 14.2293 124.526 14.4336 124.526 14.7059C124.526 14.9782 124.457 15.1825 124.253 15.3868C124.049 15.591 123.845 15.6591 123.572 15.6591H122.415C121.666 15.6591 121.121 15.4548 120.713 15.1144C120.304 14.774 120.1 14.1612 120.1 13.3442V8.44207H119.623Z" fill="#60D2CD" stroke="#60D2CD" stroke-width="0.4" stroke-miterlimit="10"/>
<path d="M132.084 13.072C132.356 13.072 132.56 13.1401 132.764 13.3443C132.969 13.5486 133.037 13.7528 133.037 14.0252C133.037 14.1613 132.969 14.2975 132.901 14.4337C132.833 14.5698 132.696 14.706 132.492 14.9103C132.22 15.1145 131.879 15.3188 131.403 15.4549C130.994 15.5911 130.518 15.6592 129.973 15.6592C129.36 15.6592 128.747 15.523 128.271 15.3188C127.726 15.1145 127.318 14.7741 126.909 14.3656C126.501 13.9571 126.228 13.4805 126.024 12.9358C125.82 12.3911 125.684 11.7784 125.684 11.0975C125.684 10.3486 125.82 9.7358 126.024 9.12303C126.228 8.57835 126.569 8.03367 126.977 7.62516C127.386 7.21665 127.794 6.87622 128.339 6.67197C128.884 6.46771 129.428 6.33154 129.973 6.33154C130.586 6.33154 131.198 6.46771 131.743 6.74005C132.288 7.01239 132.764 7.28473 133.105 7.69324C133.513 8.10176 133.786 8.51027 133.99 9.05495C134.194 9.53154 134.33 10.0762 134.33 10.5528C134.33 11.0294 134.262 11.3698 134.058 11.6422C133.854 11.8464 133.65 11.9826 133.377 11.9826H128.067C128.135 12.4592 128.339 12.8677 128.679 13.2081C129.02 13.5486 129.496 13.6847 130.109 13.6847C130.654 13.6847 131.062 13.5486 131.403 13.2762C131.607 13.2081 131.811 13.072 132.084 13.072ZM132.084 10.6209C132.084 10.2805 132.016 10.0081 131.879 9.7358C131.743 9.46346 131.607 9.2592 131.403 9.05495C131.198 8.85069 130.994 8.71452 130.722 8.57835C130.45 8.44218 130.177 8.3741 129.905 8.3741C129.633 8.3741 129.36 8.44218 129.088 8.57835C128.816 8.71452 128.611 8.85069 128.475 9.05495C128.271 9.2592 128.135 9.46346 128.067 9.7358C127.93 10.0081 127.93 10.2805 127.93 10.6209H132.084Z" fill="#60D2CD" stroke="#60D2CD" stroke-width="0.4" stroke-miterlimit="10"/>
<path d="M144.405 14.5699C144.405 14.9103 144.269 15.1827 144.065 15.3869C143.861 15.5912 143.588 15.7273 143.248 15.7273C142.908 15.7273 142.635 15.5912 142.431 15.3869C142.227 15.1827 142.091 14.9103 142.091 14.5699V10.1444C142.091 9.5316 141.954 9.12309 141.614 8.78267C141.342 8.51033 140.933 8.37416 140.388 8.37416C140.048 8.37416 139.776 8.44224 139.503 8.51033C139.231 8.6465 139.027 8.78267 138.822 8.91884C138.618 9.12309 138.482 9.32735 138.414 9.5316C138.278 9.80394 138.278 10.0082 138.278 10.2805V14.4337C138.278 14.7742 138.142 15.0465 137.937 15.2508C137.733 15.455 137.461 15.5912 137.12 15.5912C136.78 15.5912 136.508 15.455 136.303 15.2508C136.099 15.0465 135.963 14.7742 135.963 14.4337V7.55714C135.963 7.28479 136.031 7.01245 136.235 6.8082C136.439 6.60394 136.712 6.46777 136.984 6.46777C137.257 6.46777 137.529 6.53586 137.733 6.74011C137.937 6.94437 138.074 7.14862 138.074 7.42097L138.142 8.23799C138.414 7.69331 138.822 7.28479 139.367 6.94437C139.912 6.60394 140.457 6.46777 141.137 6.46777C141.818 6.46777 142.431 6.67203 142.976 7.01245C143.52 7.35288 143.861 7.82948 144.133 8.44224C144.405 7.82948 144.814 7.35288 145.359 7.01245C145.903 6.67203 146.516 6.46777 147.197 6.46777C147.674 6.46777 148.082 6.53586 148.422 6.74011C148.831 6.94437 149.171 7.14862 149.444 7.42097C149.716 7.69331 149.988 8.03373 150.125 8.44224C150.261 8.85075 150.397 9.25926 150.397 9.66777V14.5699C150.397 14.9103 150.261 15.1827 150.057 15.3869C149.852 15.5912 149.58 15.7273 149.239 15.7273C148.899 15.7273 148.627 15.5912 148.422 15.3869C148.218 15.1827 148.082 14.9103 148.082 14.5699V10.1444C148.082 9.5316 147.946 9.12309 147.605 8.85075C147.265 8.57841 146.925 8.37416 146.38 8.37416C146.039 8.37416 145.767 8.44224 145.563 8.51033C145.291 8.6465 145.086 8.78267 144.882 8.91884C144.678 9.12309 144.542 9.32735 144.474 9.5316C144.337 9.80394 144.337 10.0082 144.337 10.2805V14.5699H144.405Z" fill="#60D2CD" stroke="#60D2CD" stroke-width="0.4" stroke-miterlimit="10"/>
<g clip-path="url(#clip0)">
<path d="M160.354 11.6123C160.361 11.5729 160.364 11.5302 160.358 11.4941C160.338 11.3628 160.279 11.2283 160.167 11.1462C160.055 11.0642 159.907 11.0018 159.763 11.0281C159.575 11.0609 159.427 11.1134 159.263 11.2053C159.22 11.2283 159.181 11.2578 159.145 11.2906C159.079 11.3464 159.01 11.4022 158.957 11.4711C158.731 11.7633 158.642 12.1276 158.727 12.482C158.809 12.8201 159.049 13.1024 159.398 13.2074C159.667 13.2894 159.97 13.2369 160.16 13.0203C160.295 12.8661 160.312 12.6855 160.322 12.4952" fill="#6753A1"/>
</g>
<g opacity="0.8">
<path opacity="0.8" d="M170.668 9.37975C171.536 8.43391 172.798 7.82496 174.113 7.72145C174.67 7.67821 175.32 7.76575 175.621 8.21785C175.831 8.53216 175.806 8.94753 175.67 9.29544C175.348 10.1244 174.447 10.679 173.524 10.7409C172.6 10.8029 171.68 10.4203 170.996 9.82326" fill="#ECEAE9" fill-opacity="0.8"/>
</g>
<g opacity="0.8">
<path opacity="0.8" d="M170.862 9.39258C172.088 8.92907 173.109 7.9977 173.652 6.84962C173.883 6.36295 174.011 5.74756 173.666 5.32712C173.424 5.03305 173.009 4.91776 172.619 4.92388C171.692 4.93607 170.844 5.56094 170.475 6.36945C170.106 7.17797 170.176 8.13327 170.534 8.95143" fill="#ECEAE9" fill-opacity="0.8"/>
</g>
<path fill-rule="evenodd" clip-rule="evenodd" d="M169.275 15.3578C169.275 15.1645 169.432 15.0078 169.625 15.0078H178.669C178.862 15.0078 179.019 15.1645 179.019 15.3578C179.019 15.5511 178.862 15.7078 178.669 15.7078H169.625C169.432 15.7078 169.275 15.5511 169.275 15.3578Z" fill="#38B2AC"/>
<path fill-rule="evenodd" clip-rule="evenodd" d="M166.957 13.7611C166.957 13.5678 167.114 13.4111 167.307 13.4111H176.524C176.717 13.4111 176.874 13.5678 176.874 13.7611C176.874 13.9544 176.717 14.1111 176.524 14.1111H167.307C167.114 14.1111 166.957 13.9544 166.957 13.7611Z" fill="#38B2AC"/>
<path fill-rule="evenodd" clip-rule="evenodd" d="M167.699 12.1645C167.699 11.9712 167.856 11.8145 168.049 11.8145H177.266C177.459 11.8145 177.616 11.9712 177.616 12.1645C177.616 12.3578 177.459 12.5145 177.266 12.5145H168.049C167.856 12.5145 167.699 12.3578 167.699 12.1645Z" fill="#38B2AC"/>
<path d="M170.843 2.36783C170.428 2.56347 169.922 2.39652 169.708 1.99219C169.494 1.58786 169.655 1.10266 170.069 0.907016C170.484 0.711372 170.991 0.878322 171.204 1.28265C171.416 1.68699 171.255 2.17218 170.843 2.36783Z" fill="#6753A1"/>
<path d="M170.202 1.51547C169.233 1.78937 168.348 2.32674 167.67 3.06236C167.564 3.17453 167.557 3.35192 167.67 3.46409C167.776 3.56843 167.971 3.57887 168.077 3.46409C168.689 2.7989 169.476 2.31109 170.352 2.06327C170.708 1.96154 170.558 1.41373 170.202 1.51547Z" fill="#6753A1"/>
<path d="M168.403 17.8414C168.298 18.204 168.253 18.5953 168.295 18.9709C168.34 19.3779 168.456 19.8005 168.775 20.0874C169.132 20.4057 169.591 20.4839 170.058 20.4605C170.441 20.4422 170.826 20.3718 171.183 20.2283C171.368 20.1526 171.518 20.0718 171.621 19.8944C171.713 19.7379 171.753 19.5083 171.695 19.3335C171.637 19.1588 171.526 18.9892 171.357 18.9005C171.193 18.8144 170.969 18.7544 170.79 18.8275C170.565 18.9188 170.336 18.9788 170.095 19.0127C170.161 19.0049 170.225 18.9944 170.291 18.9866C170.079 19.0127 169.86 19.0231 169.649 18.997C169.715 19.0049 169.779 19.0153 169.845 19.0231C169.776 19.0127 169.71 18.997 169.647 18.9709C169.705 18.9944 169.763 19.0205 169.823 19.044C169.779 19.0231 169.739 18.9996 169.699 18.9709C169.75 19.0101 169.8 19.0466 169.847 19.0857C169.805 19.0518 169.768 19.0127 169.734 18.9709C169.773 19.0205 169.81 19.0701 169.85 19.117C169.813 19.0649 169.781 19.0101 169.755 18.9527C169.779 19.0101 169.805 19.0675 169.829 19.1275C169.786 19.0231 169.76 18.9162 169.744 18.8066C169.752 18.8718 169.763 18.9344 169.771 18.9996C169.744 18.7962 169.747 18.5953 169.771 18.3918C169.763 18.457 169.752 18.5197 169.744 18.5849C169.763 18.4649 169.786 18.3449 169.821 18.2301C169.926 17.8649 169.691 17.424 169.306 17.3354C168.913 17.2467 168.517 17.4527 168.403 17.8414Z" fill="#6753A1"/>
<path d="M170.095 19.8398C170.09 19.9154 170.103 19.9911 170.116 20.0641C170.121 20.1033 170.132 20.1398 170.148 20.1763C170.203 20.3224 170.274 20.4502 170.388 20.5598C170.501 20.6693 170.633 20.745 170.784 20.7919C170.979 20.8519 171.19 20.8284 171.373 20.7398C171.391 20.7319 171.404 20.7215 171.42 20.7111C171.465 20.6771 171.515 20.6458 171.555 20.6015C171.644 20.4998 171.687 20.4163 171.737 20.2937C171.784 20.1737 171.803 20.038 171.805 19.9102C171.808 19.7824 171.787 19.6494 171.761 19.5241C171.737 19.4094 171.697 19.292 171.634 19.1929C171.512 19.0024 171.333 18.8746 171.109 18.8459C171.072 18.8407 171.032 18.8329 170.995 18.8355C170.937 18.8381 170.871 18.8459 170.816 18.8616C170.763 18.8798 170.702 18.9007 170.657 18.9346C170.562 18.9998 170.523 19.0468 170.451 19.1407C170.414 19.1981 170.393 19.2607 170.391 19.3285C170.375 19.3963 170.377 19.4615 170.399 19.5294C170.43 19.6468 170.523 19.772 170.633 19.8294C170.752 19.892 170.895 19.9233 171.027 19.8789C171.066 19.8633 171.109 19.845 171.148 19.8294C171.225 19.785 171.285 19.725 171.33 19.6494C171.333 19.6468 171.336 19.6441 171.338 19.6415C171.312 19.6754 171.285 19.7094 171.259 19.7433C171.264 19.7381 171.27 19.7328 171.275 19.7276C171.241 19.7537 171.206 19.7798 171.172 19.8059C171.18 19.7981 171.19 19.7928 171.198 19.7876C171.159 19.8033 171.116 19.8215 171.077 19.8372C171.09 19.832 171.103 19.8267 171.119 19.8241C171.074 19.8294 171.029 19.8372 170.985 19.8424C171.003 19.8398 171.021 19.8398 171.043 19.8424C170.998 19.8372 170.953 19.8294 170.908 19.8241C170.924 19.8267 170.937 19.832 170.953 19.8372C170.913 19.8215 170.871 19.8033 170.831 19.7876C170.85 19.7954 170.866 19.8059 170.882 19.8163C170.847 19.7902 170.813 19.7641 170.779 19.7381C170.792 19.7511 170.805 19.7615 170.816 19.7772C170.789 19.7433 170.763 19.7094 170.736 19.6754C170.755 19.7015 170.771 19.7276 170.784 19.7563C170.768 19.7172 170.75 19.6754 170.734 19.6363C170.765 19.7146 170.784 19.7981 170.794 19.8815C170.789 19.8372 170.781 19.7928 170.776 19.7485C170.787 19.8294 170.789 19.9102 170.779 19.9911C170.784 19.9467 170.792 19.9024 170.797 19.858C170.789 19.9154 170.776 19.9728 170.752 20.0276C170.768 19.9885 170.787 19.9467 170.802 19.9076C170.792 19.9337 170.776 19.9572 170.76 19.9807C170.787 19.9467 170.813 19.9128 170.839 19.8789C170.826 19.8946 170.816 19.9076 170.8 19.9207C170.834 19.8946 170.868 19.8685 170.903 19.8424C170.887 19.8528 170.871 19.8633 170.855 19.8711C170.895 19.8554 170.937 19.8372 170.977 19.8215C170.958 19.8294 170.942 19.832 170.924 19.8372C170.969 19.832 171.014 19.8241 171.058 19.8189C171.029 19.8215 171.003 19.8215 170.974 19.8189C171.019 19.8241 171.064 19.832 171.109 19.8372C171.08 19.832 171.053 19.8241 171.024 19.8137C171.064 19.8294 171.106 19.8476 171.146 19.8633C171.109 19.8476 171.074 19.8267 171.043 19.8033C171.077 19.8294 171.111 19.8554 171.146 19.8815C171.114 19.858 171.087 19.8294 171.061 19.7981C171.087 19.832 171.114 19.8659 171.14 19.8998C171.114 19.8659 171.093 19.8267 171.074 19.7876C171.09 19.8267 171.109 19.8685 171.124 19.9076C171.109 19.8711 171.101 19.8346 171.093 19.7954C171.098 19.8398 171.106 19.8841 171.111 19.9285C171.109 19.8972 171.106 19.8685 171.109 19.8372C171.116 19.7146 171.045 19.5659 170.958 19.4798C170.871 19.3937 170.726 19.3259 170.596 19.3311C170.464 19.3363 170.327 19.3807 170.235 19.4798C170.208 19.5137 170.182 19.5476 170.156 19.5815C170.119 19.665 170.095 19.7485 170.095 19.8398Z" fill="#6753A1"/>
<path d="M166.073 17.6151C164.222 16.5326 162.546 15.1239 161.424 13.3501C160.3 11.5788 159.735 8.98067 160.184 6.9538C160.632 4.92692 161.469 3.72957 163.52 3.05134C165.569 2.3731 168.792 2.81135 170.014 4.52259C171.088 6.02253 171.07 7.99984 171.848 9.6563C172.693 11.4536 174.504 13.0892 174.084 15.017C173.968 15.5465 173.686 16.0317 173.337 16.4595C172.297 17.7299 170.634 18.5151 168.947 18.5307C167.261 18.5464 166.202 17.7142 164.597 16.6499" fill="#FFB701"/>
<path d="M164.644 16.6656L164.755 16.7386C168.968 16.6056 171.843 13.7283 173.236 11.9258C172.917 11.4145 172.566 10.9032 172.257 10.3867C169.433 14.9178 165.08 15.0509 162.348 14.5735C163.018 15.3535 163.799 16.05 164.644 16.6656Z" fill="#6753A1"/>
<path d="M163.803 16.2426C163.642 16.2374 163.481 16.2322 163.32 16.227C163.254 16.2244 163.193 16.227 163.127 16.24C163.053 16.2557 162.979 16.2974 162.926 16.3496C162.897 16.3783 162.895 16.3705 162.858 16.4357C162.842 16.4644 162.818 16.5113 162.81 16.5452C162.784 16.6574 162.792 16.7383 162.808 16.8504C162.818 16.9209 162.85 16.9861 162.879 17.0513C162.897 17.093 162.918 17.1296 162.945 17.1661C163.042 17.2965 163.151 17.4061 163.296 17.4869C163.462 17.5808 163.655 17.6278 163.845 17.6304C163.948 17.6304 164.056 17.5861 164.127 17.5156C164.196 17.4478 164.249 17.3356 164.244 17.2365C164.238 17.1348 164.204 17.0278 164.127 16.9574C164.048 16.887 163.953 16.8426 163.845 16.8426C163.813 16.8426 163.782 16.84 163.747 16.8374C163.782 16.8426 163.819 16.8478 163.853 16.8504C163.79 16.8426 163.729 16.8244 163.671 16.8009C163.702 16.8139 163.734 16.827 163.766 16.84C163.713 16.8165 163.663 16.7878 163.615 16.7513C163.642 16.7722 163.668 16.793 163.697 16.8139C163.652 16.78 163.613 16.7383 163.576 16.6939C163.597 16.72 163.618 16.7461 163.639 16.7748C163.61 16.7383 163.586 16.6965 163.568 16.6548C163.581 16.6861 163.594 16.7174 163.607 16.7487C163.592 16.7148 163.581 16.6783 163.576 16.6391C163.581 16.6731 163.586 16.7096 163.589 16.7435C163.586 16.7174 163.586 16.6913 163.589 16.6626C163.584 16.6965 163.578 16.733 163.576 16.767C163.576 16.7591 163.578 16.7539 163.581 16.7461C163.568 16.7774 163.555 16.8087 163.541 16.84C163.544 16.8374 163.544 16.8348 163.547 16.8322C163.526 16.8583 163.504 16.8843 163.483 16.913C163.486 16.9104 163.489 16.9078 163.491 16.9078C163.465 16.9287 163.438 16.9496 163.409 16.9704C163.412 16.9704 163.415 16.9678 163.417 16.9678C163.386 16.9809 163.354 16.9939 163.322 17.007C163.328 17.0043 163.333 17.0043 163.338 17.0017C163.304 17.007 163.267 17.0122 163.233 17.0148C163.275 17.0122 163.32 17.0148 163.365 17.0174C163.415 17.02 163.462 17.02 163.512 17.0226C163.61 17.0252 163.705 17.0278 163.803 17.0304C163.903 17.033 164.017 16.9835 164.085 16.9157C164.154 16.8478 164.207 16.7357 164.201 16.6365C164.196 16.5348 164.162 16.4278 164.085 16.3574C164.006 16.2844 163.914 16.2452 163.803 16.2426Z" fill="#6753A1"/>
<path d="M160.548 10.6189L162.53 11.0441L161.39 16.3161L159.363 15.5831C159.178 15.5152 159.075 15.33 159.12 15.1448L160.181 10.838C160.218 10.6815 160.382 10.5824 160.548 10.6189Z" fill="#F9F7FF"/>
<path d="M162.529 11.0439L167.225 12.0222C167.426 12.0639 167.552 12.2517 167.51 12.4422L166.676 16.3081C166.628 16.5246 166.42 16.6759 166.188 16.6602L161.389 16.3159" fill="#E4E4E4"/>
<path d="M161.589 11.7354L162.313 11.8632L164.097 12.1553L163.846 13.2431L162.138 12.8884L161.389 12.6771L161.589 11.7354Z" fill="#5F46A7"/>
<path d="M162.347 11.8736L162.138 12.9092L161.389 12.6874L161.589 11.7588L162.347 11.8736Z" fill="#8468D5"/>
<path d="M173.798 15.9349C174.305 16.5923 174.928 17.1297 175.67 17.5184C176.57 17.9905 175.918 19.4226 175.013 18.9479C174.017 18.4235 173.178 17.7296 172.497 16.8479C171.882 16.0445 173.183 15.1315 173.798 15.9349Z" fill="#6753A1"/>
<path d="M174.548 18.3039C174.535 18.3378 174.525 18.3717 174.519 18.4056C174.506 18.4813 174.49 18.5674 174.498 18.6456C174.511 18.8048 174.543 18.9352 174.62 19.0787C174.691 19.2143 174.807 19.3265 174.936 19.4126C175.063 19.496 175.237 19.5482 175.39 19.5326C175.512 19.5221 175.623 19.4986 175.728 19.4334C175.797 19.3891 175.863 19.3395 175.916 19.2769C175.966 19.2169 176.016 19.1543 176.056 19.0865C176.095 19.0161 176.127 18.9378 176.156 18.8621C176.201 18.7448 176.217 18.6195 176.232 18.4969C176.248 18.3691 176.243 18.2543 176.219 18.1291C176.203 18.0483 176.169 17.9648 176.122 17.897C176.056 17.8031 175.979 17.717 175.873 17.6622C175.668 17.5552 175.393 17.5265 175.192 17.6648C175.082 17.7405 174.994 17.8344 174.958 17.9648C174.923 18.0848 174.939 18.2465 175.008 18.3535C175.079 18.4604 175.182 18.5569 175.311 18.5856C175.438 18.6143 175.594 18.6117 175.705 18.5361C175.715 18.5282 175.723 18.523 175.734 18.5178C175.694 18.5335 175.652 18.5517 175.612 18.5674C175.623 18.5648 175.633 18.5622 175.646 18.5596C175.602 18.5648 175.557 18.5726 175.512 18.5778C175.525 18.5778 175.536 18.5778 175.546 18.5778C175.501 18.5726 175.456 18.5648 175.412 18.5596C175.427 18.5622 175.443 18.5648 175.456 18.57C175.417 18.5543 175.375 18.5361 175.335 18.5204C175.353 18.5282 175.372 18.5387 175.388 18.5491C175.353 18.523 175.319 18.4969 175.285 18.4709C175.298 18.4813 175.309 18.4917 175.319 18.5048C175.293 18.4709 175.266 18.4369 175.24 18.403C175.251 18.4187 175.261 18.4343 175.269 18.4526C175.253 18.4135 175.235 18.3717 175.219 18.3326C175.229 18.3613 175.237 18.39 175.24 18.4187C175.235 18.3743 175.227 18.33 175.221 18.2856C175.229 18.3561 175.221 18.4291 175.214 18.4996C175.219 18.4552 175.227 18.4109 175.232 18.3665C175.219 18.4526 175.2 18.5387 175.166 18.6195C175.182 18.5804 175.2 18.5387 175.216 18.4996C175.192 18.5569 175.161 18.6091 175.124 18.6587C175.15 18.6248 175.177 18.5909 175.203 18.5569C175.182 18.583 175.158 18.6091 175.132 18.63C175.166 18.6039 175.2 18.5778 175.235 18.5517C175.216 18.5674 175.195 18.5778 175.174 18.5882C175.214 18.5726 175.256 18.5543 175.295 18.5387C175.282 18.5439 175.269 18.5465 175.253 18.5491C175.298 18.5439 175.343 18.5361 175.388 18.5309C175.369 18.5335 175.348 18.5335 175.33 18.5335C175.375 18.5387 175.419 18.5465 175.464 18.5517C175.441 18.5491 175.417 18.5413 175.393 18.5335C175.433 18.5491 175.475 18.5674 175.514 18.583C175.485 18.57 175.462 18.5569 175.435 18.5387C175.47 18.5648 175.504 18.5909 175.538 18.6169C175.509 18.5935 175.483 18.57 175.459 18.5413C175.485 18.5752 175.512 18.6091 175.538 18.643C175.514 18.6117 175.493 18.5778 175.478 18.5387C175.493 18.5778 175.512 18.6195 175.528 18.6587C175.512 18.6222 175.501 18.583 175.496 18.5439C175.501 18.5882 175.509 18.6326 175.514 18.6769C175.509 18.6326 175.509 18.5882 175.514 18.5439C175.509 18.5882 175.501 18.6326 175.496 18.6769C175.501 18.6404 175.512 18.6065 175.525 18.5752C175.57 18.463 175.533 18.2883 175.475 18.1865C175.414 18.0822 175.293 17.9831 175.171 17.9544C175.042 17.9257 174.894 17.9309 174.778 18.0039C174.744 18.03 174.709 18.0561 174.675 18.0822C174.614 18.1448 174.572 18.2178 174.548 18.3039Z" fill="#6753A1"/>
<path d="M161.162 9.43672C161.507 10.1619 162.331 10.6236 163.115 10.6575C163.529 10.6758 165.897 10.6549 166.198 10.621C166.713 10.5636 166.845 10.4671 167.212 10.2141C167.821 9.7941 168.101 8.96978 168.199 8.26546C168.297 7.54288 168.299 6.74465 167.938 6.08207C167.214 4.75429 165.496 4.49083 164.136 4.50387C163.434 4.5117 162.64 4.72038 162.056 5.15341C161.436 5.61513 161.162 6.21511 161.037 6.94291C160.985 7.34724 160.958 7.74896 160.966 8.1559C160.974 8.57589 160.979 9.05326 161.162 9.43672Z" fill="#FEFDFF"/>
<path d="M167.704 13.8742C166.77 15.1367 165.584 16.6367 163.842 16.5271C163.536 16.5088 163.277 16.7984 163.277 17.0853C163.277 17.4036 163.536 17.6253 163.842 17.6436C164.88 17.7088 165.875 17.2914 166.683 16.6706C167.485 16.0549 168.087 15.2411 168.681 14.4376C168.86 14.195 168.723 13.8142 168.477 13.6733C168.192 13.509 167.886 13.6289 167.704 13.8742Z" fill="#6753A1"/>
<path d="M163.846 17.2024C163.984 17.2024 164.105 17.1685 164.229 17.1111C164.266 17.0954 164.301 17.0746 164.335 17.0485C164.388 17.0093 164.44 16.9728 164.48 16.9233C164.564 16.8215 164.633 16.712 164.665 16.5815C164.696 16.4485 164.696 16.3155 164.662 16.1824C164.641 16.1016 164.578 16.0233 164.506 15.9816C164.432 15.9398 164.327 15.9216 164.245 15.9477C164.163 15.9737 164.084 16.0233 164.042 16.1016C164 16.1824 163.986 16.2685 164.008 16.3598C164.013 16.3781 164.015 16.3963 164.018 16.4146C164.013 16.3859 164.01 16.3546 164.005 16.3259C164.01 16.3676 164.01 16.4068 164.005 16.4485C164.01 16.4198 164.013 16.3885 164.018 16.3598C164.013 16.4015 164 16.4407 163.986 16.4772C163.997 16.4511 164.01 16.425 164.021 16.3963C164.005 16.4355 163.984 16.4694 163.957 16.5033C163.976 16.4798 163.992 16.4589 164.01 16.4355C163.984 16.4668 163.957 16.4955 163.923 16.5189C163.947 16.5007 163.968 16.485 163.992 16.4668C163.957 16.4928 163.918 16.5137 163.878 16.532C163.905 16.5215 163.931 16.5085 163.96 16.4981C163.915 16.5163 163.87 16.5294 163.823 16.5346C163.852 16.5294 163.883 16.5268 163.912 16.5215C163.891 16.5241 163.868 16.5268 163.846 16.5268C163.759 16.5268 163.67 16.5633 163.606 16.6259C163.548 16.6833 163.503 16.7798 163.506 16.8633C163.509 16.9494 163.538 17.0407 163.606 17.1007C163.672 17.1659 163.754 17.2024 163.846 17.2024Z" fill="#6753A1"/>
<path d="M173.345 16.4623C173.694 16.0345 173.979 15.5493 174.092 15.0198C174.219 14.4407 174.14 13.8876 173.95 13.3477C171.843 16.7806 168.863 17.7223 166.348 17.7797C167.158 18.2466 167.945 18.5414 168.956 18.5335C170.642 18.5179 172.305 17.7327 173.345 16.4623Z" fill="#6753A1"/>
<path d="M166.813 16.77C166.813 16.77 169.613 14.6272 168.655 13.6014" stroke="#FFB701" stroke-width="0.4" stroke-miterlimit="10" stroke-linecap="round"/>
<path d="M172.781 3.83395C172.217 3.58614 171.567 3.67222 170.984 3.81308C170.451 3.94351 169.909 4.13655 169.44 4.41828C169.123 4.60871 169.413 5.09912 169.73 4.90869C170.136 4.6661 170.591 4.50175 171.047 4.38176C171.264 4.32437 171.483 4.28002 171.704 4.25915C171.963 4.23307 172.248 4.21481 172.494 4.32176C172.636 4.38437 172.803 4.3635 172.887 4.22003C172.958 4.10264 172.927 3.89656 172.781 3.83395Z" fill="#6753A1"/>
<path d="M173.265 4.60601C172.89 4.86948 172.363 4.78861 172.083 4.42602C171.803 4.06343 171.879 3.55997 172.252 3.2965C172.626 3.03303 173.154 3.1139 173.434 3.47649C173.714 3.83648 173.64 4.34255 173.265 4.60601Z" fill="#6753A1"/>
<path d="M164.485 7.05079C164.474 7.28556 164.743 7.49164 165.087 7.50729C165.43 7.52294 165.72 7.34817 165.731 7.11079C165.744 6.87601 165.472 6.66993 165.129 6.65428C164.786 6.63863 164.498 6.81601 164.485 7.05079Z" fill="#221F20"/>
<path d="M161.719 7.10048C161.709 7.31699 161.954 7.50742 162.268 7.52307C162.582 7.53872 162.846 7.37438 162.857 7.15787C162.867 6.94135 162.622 6.75092 162.308 6.73527C161.994 6.71701 161.73 6.88135 161.719 7.10048Z" fill="#221F20"/>
<path d="M164.701 8.44385C164.424 8.7621 164.044 8.96557 163.619 8.97861C163.194 8.99165 162.801 8.81166 162.5 8.50906" stroke="#221F20" stroke-width="0.5" stroke-miterlimit="10" stroke-linecap="round"/>
<path d="M167.243 8.34787C167.23 8.6296 166.897 8.84351 166.499 8.82264C166.103 8.80438 165.791 8.55917 165.807 8.27744C165.82 7.99571 166.153 7.78181 166.552 7.80268C166.948 7.82354 167.259 8.06614 167.243 8.34787Z" fill="#FFB701"/>
<path d="M161.87 8.27908C161.859 8.48516 161.672 8.64689 161.448 8.63385C161.226 8.62341 161.054 8.44603 161.065 8.23734C161.075 8.03126 161.263 7.86953 161.487 7.88257C161.709 7.89301 161.881 8.07039 161.87 8.27908Z" fill="#FFB701"/>
<defs>
<clipPath id="clip0">
<rect width="2.40032" height="3.20043" fill="white" transform="translate(158.396 10.9551)"/>
</clipPath>
</defs>
</svg>
