<svg width="354" height="127" viewBox="0 0 354 127" fill="none" xmlns="http://www.w3.org/2000/svg">
<g clip-path="url(#clip0_229_16511)">
<path d="M152.491 33.4715C152.511 33.3553 152.52 33.2295 152.501 33.1231C152.443 32.736 152.268 32.3392 151.939 32.0973C151.609 31.8553 151.173 31.6715 150.747 31.7489C150.194 31.8457 149.758 32.0005 149.274 32.2715C149.148 32.3392 149.031 32.4263 148.925 32.5231C148.731 32.6876 148.527 32.8521 148.372 33.0553C147.704 33.9166 147.442 34.9908 147.694 36.036C147.936 37.0328 148.644 37.865 149.671 38.1747C150.466 38.4167 151.357 38.2618 151.92 37.6231C152.317 37.1683 152.365 36.636 152.394 36.0747" fill="#7851C4"/>
</g>
<g opacity="0.8">
<path opacity="0.8" d="M181.802 24.6534C184.848 22.4049 188.843 21.353 192.707 21.7936C194.342 21.9819 196.175 22.6015 196.792 24.0795C197.222 25.1073 196.914 26.2951 196.325 27.2256C194.928 29.4438 192.008 30.5415 189.3 30.2009C186.593 29.8603 184.144 28.2347 182.5 26.1215" fill="white" fill-opacity="0.5"/>
</g>
<g opacity="0.8">
<path opacity="0.8" d="M182.352 24.7982C186.162 24.147 189.642 22.0264 191.859 19.009C192.802 17.7307 193.519 16.0216 192.757 14.6104C192.223 13.6233 191.087 13.0559 189.954 12.8539C187.265 12.3675 184.458 13.6984 182.936 15.8308C181.413 17.9633 181.076 20.7671 181.652 23.3369" fill="white" fill-opacity="0.5"/>
</g>
<path fill-rule="evenodd" clip-rule="evenodd" d="M183.734 46.144C183.734 45.6012 184.174 45.1611 184.717 45.1611H206.041C206.584 45.1611 207.024 45.6012 207.024 46.144C207.024 46.6868 206.584 47.1269 206.041 47.1269H184.717C184.174 47.1269 183.734 46.6868 183.734 46.144Z" fill="#CDB6FF"/>
<path fill-rule="evenodd" clip-rule="evenodd" d="M183.473 46.1439C183.473 45.4563 184.03 44.8989 184.718 44.8989H206.042C206.729 44.8989 207.287 45.4563 207.287 46.1439C207.287 46.8315 206.729 47.3888 206.042 47.3888H184.718C184.03 47.3888 183.473 46.8315 183.473 46.1439ZM184.718 45.4231C184.32 45.4231 183.997 45.7458 183.997 46.1439C183.997 46.542 184.32 46.8647 184.718 46.8647H206.042C206.44 46.8647 206.763 46.542 206.763 46.1439C206.763 45.7458 206.44 45.4231 206.042 45.4231H184.718Z" fill="#CDB6FF"/>
<path fill-rule="evenodd" clip-rule="evenodd" d="M178.391 40.3215C178.391 39.7787 178.831 39.3386 179.373 39.3386H201.107C201.65 39.3386 202.09 39.7787 202.09 40.3215C202.09 40.8643 201.65 41.3043 201.107 41.3043H179.373C178.831 41.3043 178.391 40.8643 178.391 40.3215Z" fill="#CDB6FF"/>
<path fill-rule="evenodd" clip-rule="evenodd" d="M178.127 40.3216C178.127 39.634 178.684 39.0767 179.372 39.0767H201.105C201.793 39.0767 202.35 39.634 202.35 40.3216C202.35 41.0092 201.793 41.5666 201.105 41.5666H179.372C178.684 41.5666 178.127 41.0092 178.127 40.3216ZM179.372 39.6009C178.974 39.6009 178.651 39.9236 178.651 40.3216C178.651 40.7197 178.974 41.0424 179.372 41.0424H201.105C201.504 41.0424 201.826 40.7197 201.826 40.3216C201.826 39.9236 201.504 39.6009 201.105 39.6009H179.372Z" fill="#CDB6FF"/>
<path fill-rule="evenodd" clip-rule="evenodd" d="M179.951 34.499C179.951 33.9562 180.391 33.5161 180.934 33.5161H202.668C203.21 33.5161 203.65 33.9562 203.65 34.499C203.65 35.0418 203.21 35.4818 202.668 35.4818H180.934C180.391 35.4818 179.951 35.0418 179.951 34.499Z" fill="#CDB6FF"/>
<path fill-rule="evenodd" clip-rule="evenodd" d="M179.688 34.4991C179.688 33.8115 180.245 33.2542 180.932 33.2542H202.666C203.354 33.2542 203.911 33.8115 203.911 34.4991C203.911 35.1867 203.354 35.7441 202.666 35.7441H180.932C180.245 35.7441 179.688 35.1867 179.688 34.4991ZM180.932 33.7783C180.534 33.7783 180.212 34.101 180.212 34.4991C180.212 34.8972 180.534 35.2199 180.932 35.2199H202.666C203.064 35.2199 203.387 34.8972 203.387 34.4991C203.387 34.101 203.064 33.7783 202.666 33.7783H180.932Z" fill="#CDB6FF"/>
<path fill-rule="evenodd" clip-rule="evenodd" d="M178.06 4.75143C178.805 5.43317 179.928 5.63681 180.885 5.1852C182.099 4.60834 182.574 3.17772 181.951 1.98554C181.321 0.793364 179.827 0.301108 178.605 0.87797C177.654 1.32679 177.155 2.29242 177.278 3.26046C175.098 4.14925 173.121 5.50517 171.529 7.23132C171.218 7.56205 171.195 8.08507 171.529 8.41581C171.841 8.72347 172.417 8.75423 172.728 8.41581C174.206 6.80997 176.029 5.55474 178.06 4.75143Z" fill="#7851C4"/>
<path d="M176.223 51.8395C175.912 52.9086 175.779 54.0623 175.904 55.1699C176.036 56.3697 176.379 57.6158 177.32 58.4618C178.371 59.4002 179.725 59.6309 181.103 59.5617C182.232 59.5079 183.368 59.3002 184.419 58.8772C184.963 58.6541 185.407 58.4157 185.711 57.8926C185.983 57.4312 186.1 56.7543 185.929 56.239C185.757 55.7236 185.43 55.2237 184.932 54.9622C184.45 54.7084 183.788 54.5315 183.259 54.7468C182.597 55.016 181.92 55.1929 181.212 55.2929C181.407 55.2699 181.593 55.2391 181.788 55.216C181.165 55.2929 180.519 55.3237 179.897 55.2468C180.091 55.2699 180.278 55.3006 180.473 55.3237C180.27 55.2929 180.076 55.2468 179.889 55.1699C180.06 55.2391 180.231 55.316 180.41 55.3852C180.278 55.3237 180.161 55.2545 180.044 55.1699C180.192 55.2852 180.34 55.3929 180.48 55.5083C180.356 55.4083 180.247 55.2929 180.146 55.1699C180.262 55.316 180.371 55.4621 180.488 55.6006C180.379 55.4468 180.286 55.2852 180.208 55.116C180.278 55.2852 180.356 55.4545 180.426 55.6314C180.301 55.3237 180.223 55.0083 180.177 54.6853C180.2 54.8776 180.231 55.0622 180.255 55.2545C180.177 54.6545 180.185 54.0623 180.255 53.4623C180.231 53.6546 180.2 53.8392 180.177 54.0315C180.231 53.6777 180.301 53.3239 180.403 52.9855C180.714 51.9087 180.021 50.6088 178.885 50.3473C177.725 50.0858 176.558 50.6934 176.223 51.8395Z" fill="#7851C4"/>
<path d="M181.212 57.7313C181.197 57.9544 181.236 58.1774 181.275 58.3928C181.29 58.5081 181.321 58.6158 181.368 58.7235C181.532 59.1542 181.742 59.5311 182.076 59.8542C182.411 60.1772 182.8 60.4003 183.244 60.5387C183.82 60.7156 184.442 60.6464 184.98 60.3849C185.034 60.3618 185.073 60.331 185.12 60.3003C185.252 60.2003 185.4 60.108 185.517 59.9772C185.781 59.6773 185.906 59.4311 186.054 59.0696C186.194 58.7158 186.248 58.3159 186.256 57.939C186.264 57.5621 186.201 57.1698 186.124 56.8006C186.054 56.4622 185.937 56.1161 185.75 55.8238C185.392 55.2623 184.863 54.8855 184.201 54.8008C184.092 54.7855 183.975 54.7624 183.867 54.7701C183.695 54.7778 183.501 54.8008 183.337 54.847C183.182 54.9008 183.003 54.9624 182.87 55.0624C182.59 55.2546 182.473 55.3931 182.263 55.67C182.154 55.8392 182.092 56.0238 182.084 56.2238C182.038 56.4238 182.045 56.616 182.108 56.816C182.201 57.1621 182.473 57.5313 182.8 57.7005C183.15 57.8851 183.571 57.9774 183.96 57.8467C184.077 57.8005 184.201 57.7467 184.318 57.7005C184.544 57.5698 184.723 57.3929 184.855 57.1698C184.863 57.1621 184.871 57.1544 184.878 57.1468C184.801 57.2467 184.723 57.3467 184.645 57.4467C184.66 57.4313 184.676 57.416 184.692 57.4006C184.59 57.4775 184.489 57.5544 184.388 57.6313C184.411 57.6082 184.442 57.5929 184.466 57.5775C184.349 57.6236 184.225 57.6775 184.108 57.7236C184.147 57.7082 184.186 57.6928 184.232 57.6852C184.1 57.7005 183.968 57.7236 183.835 57.739C183.89 57.7313 183.944 57.7313 184.007 57.739C183.874 57.7236 183.742 57.7005 183.61 57.6852C183.656 57.6928 183.695 57.7082 183.742 57.7236C183.625 57.6775 183.501 57.6236 183.384 57.5775C183.438 57.6006 183.485 57.6313 183.532 57.6621C183.431 57.5852 183.33 57.5083 183.228 57.4313C183.267 57.4698 183.306 57.5006 183.337 57.5467C183.259 57.4467 183.182 57.3467 183.104 57.2467C183.158 57.3237 183.205 57.4006 183.244 57.4852C183.197 57.3698 183.143 57.2467 183.096 57.1314C183.189 57.3621 183.244 57.6082 183.275 57.8544C183.259 57.7236 183.236 57.5929 183.221 57.4621C183.252 57.7005 183.259 57.939 183.228 58.1774C183.244 58.0467 183.267 57.9159 183.283 57.7851C183.259 57.9544 183.221 58.1236 183.15 58.2851C183.197 58.1697 183.252 58.0467 183.298 57.9313C183.267 58.0082 183.221 58.0774 183.174 58.1466C183.252 58.0467 183.33 57.9467 183.407 57.8467C183.368 57.8928 183.337 57.9313 183.291 57.9697C183.392 57.8928 183.493 57.8159 183.594 57.739C183.547 57.7698 183.501 57.8005 183.454 57.8236C183.571 57.7775 183.695 57.7236 183.812 57.6775C183.758 57.7005 183.711 57.7082 183.656 57.7236C183.789 57.7082 183.921 57.6852 184.053 57.6698C183.968 57.6775 183.89 57.6775 183.804 57.6698C183.937 57.6852 184.069 57.7082 184.201 57.7236C184.116 57.7082 184.038 57.6852 183.952 57.6544C184.069 57.7005 184.193 57.7544 184.31 57.8005C184.201 57.7544 184.1 57.6928 184.007 57.6236C184.108 57.7005 184.209 57.7775 184.31 57.8544C184.217 57.7851 184.139 57.7005 184.061 57.6082C184.139 57.7082 184.217 57.8082 184.295 57.9082C184.217 57.8082 184.155 57.6929 184.1 57.5775C184.147 57.6929 184.201 57.8159 184.248 57.9313C184.201 57.8236 184.178 57.7159 184.155 57.6006C184.17 57.7313 184.193 57.8621 184.209 57.9928C184.201 57.9005 184.193 57.8159 184.201 57.7236C184.225 57.3621 184.014 56.9237 183.758 56.6699C183.501 56.4161 183.073 56.2161 182.691 56.2315C182.302 56.2468 181.897 56.3776 181.625 56.6699C181.547 56.7699 181.469 56.8699 181.392 56.9698C181.283 57.216 181.212 57.4621 181.212 57.7313Z" fill="#7851C4"/>
<path d="M169.35 51.1707C163.894 47.9788 158.952 43.8254 155.644 38.5951C152.329 33.3726 150.663 25.7119 151.986 19.7356C153.309 13.7593 155.777 10.2289 161.824 8.22915C167.864 6.22936 177.367 7.52153 180.971 12.5671C184.138 16.9898 184.084 22.8199 186.38 27.704C188.87 33.0034 194.21 37.826 192.972 43.51C192.63 45.0714 191.797 46.502 190.769 47.7634C187.703 51.5092 182.8 53.8243 177.826 53.8704C172.853 53.9166 169.732 51.463 165 48.3249" fill="#FFCE50"/>
<path d="M165.14 48.3706L165.467 48.586C177.889 48.1937 186.365 39.71 190.474 34.3952C189.533 32.8876 188.497 31.3801 187.587 29.8572C179.259 43.2173 166.425 43.6096 158.369 42.202C160.346 44.5018 162.65 46.5554 165.14 48.3706Z" fill="#7851C4"/>
<path d="M162.657 47.125C162.182 47.1096 161.707 47.0942 161.233 47.0789C161.038 47.0712 160.859 47.0789 160.664 47.1173C160.447 47.1635 160.229 47.2865 160.073 47.4403C159.987 47.525 159.98 47.5019 159.871 47.6942C159.824 47.7788 159.754 47.9172 159.73 48.0172C159.653 48.3479 159.676 48.5864 159.723 48.9171C159.754 49.1248 159.847 49.3171 159.933 49.5094C159.987 49.6324 160.05 49.7401 160.127 49.8478C160.415 50.2324 160.734 50.5554 161.163 50.7938C161.653 51.0707 162.221 51.2092 162.781 51.2169C163.085 51.2169 163.404 51.0861 163.614 50.8784C163.817 50.6785 163.972 50.3477 163.957 50.0555C163.941 49.7555 163.84 49.4401 163.614 49.2325C163.381 49.0248 163.101 48.894 162.781 48.894C162.688 48.894 162.595 48.8864 162.493 48.8787C162.595 48.894 162.704 48.9094 162.805 48.9171C162.618 48.894 162.439 48.8402 162.268 48.771C162.361 48.8094 162.455 48.8479 162.548 48.8863C162.392 48.8171 162.244 48.7325 162.104 48.6248C162.182 48.6864 162.26 48.7479 162.346 48.8094C162.213 48.7094 162.097 48.5864 161.988 48.4556C162.05 48.5325 162.112 48.6095 162.174 48.6941C162.089 48.5864 162.019 48.4633 161.964 48.3403C162.003 48.4326 162.042 48.5249 162.081 48.6171C162.034 48.5172 162.003 48.4095 161.988 48.2941C162.003 48.3941 162.019 48.5018 162.026 48.6018C162.019 48.5249 162.019 48.4479 162.026 48.3633C162.011 48.4633 161.995 48.571 161.988 48.671C161.988 48.6479 161.995 48.6325 162.003 48.6095C161.964 48.7018 161.925 48.7941 161.886 48.8863C161.894 48.8787 161.894 48.871 161.902 48.8633C161.84 48.9402 161.777 49.0171 161.715 49.1017C161.723 49.094 161.731 49.0863 161.738 49.0863C161.661 49.1479 161.583 49.2094 161.497 49.2709C161.505 49.2709 161.513 49.2632 161.521 49.2632C161.427 49.3017 161.334 49.3401 161.24 49.3786C161.256 49.3709 161.272 49.3709 161.287 49.3632C161.186 49.3786 161.077 49.394 160.976 49.4017C161.1 49.394 161.233 49.4017 161.365 49.4094C161.513 49.4171 161.653 49.4171 161.801 49.4248C162.089 49.4324 162.369 49.4401 162.657 49.4478C162.953 49.4555 163.287 49.3094 163.49 49.1094C163.692 48.9094 163.848 48.5787 163.832 48.2864C163.817 47.9864 163.715 47.6711 163.49 47.4634C163.256 47.2481 162.984 47.1327 162.657 47.125Z" fill="#7851C4"/>
<path d="M153.06 30.5416L158.905 31.7953L155.543 47.3398L149.565 45.1785C149.02 44.9786 148.717 44.4325 148.849 43.8864L151.978 31.1877C152.087 30.7262 152.57 30.4339 153.06 30.5416Z" fill="#D7D0FF"/>
<path d="M158.905 31.7952L172.751 34.6795C173.343 34.8025 173.716 35.3563 173.592 35.9178L171.133 47.3166C170.992 47.955 170.378 48.4011 169.693 48.3549L155.543 47.3397" fill="#CDBDFF"/>
<path d="M156.134 33.834L158.267 34.2109L163.528 35.0723L162.789 38.2797L157.753 37.2336L155.543 36.6106L156.134 33.834Z" fill="#9260E6"/>
<path d="M158.368 34.241L157.753 37.2945L155.543 36.6408L156.134 33.9026L158.368 34.241Z" fill="#A880FF"/>
<path d="M192.14 46.2175C193.634 48.1557 195.471 49.7402 197.658 50.8862C200.312 52.2784 198.39 56.501 195.72 55.1012C192.786 53.5552 190.311 51.5092 188.303 48.9095C186.49 46.5405 190.327 43.8485 192.14 46.2175Z" fill="#7851C4"/>
<path d="M194.342 53.2007C194.303 53.3007 194.272 53.4007 194.256 53.5006C194.217 53.7237 194.17 53.9775 194.194 54.2083C194.233 54.6774 194.326 55.062 194.552 55.485C194.762 55.885 195.104 56.2157 195.486 56.4696C195.859 56.7157 196.373 56.8695 196.824 56.8234C197.182 56.7926 197.509 56.7234 197.821 56.5311C198.023 56.4003 198.218 56.2542 198.373 56.0696C198.521 55.8927 198.669 55.7081 198.786 55.5081C198.903 55.3004 198.996 55.0697 199.082 54.8467C199.214 54.5005 199.261 54.1313 199.307 53.7698C199.354 53.393 199.338 53.0545 199.268 52.6853C199.222 52.4469 199.12 52.2008 198.98 52.0008C198.786 51.7239 198.56 51.4701 198.249 51.3086C197.642 50.9932 196.832 50.9086 196.241 51.3163C195.914 51.5393 195.657 51.8162 195.548 52.2008C195.447 52.5546 195.494 53.0315 195.696 53.3468C195.906 53.6622 196.21 53.9467 196.591 54.0314C196.965 54.116 197.424 54.1083 197.751 53.8852C197.782 53.8621 197.805 53.8468 197.836 53.8314C197.72 53.8775 197.595 53.9314 197.478 53.9775C197.509 53.9698 197.54 53.9621 197.579 53.9544C197.447 53.9698 197.315 53.9929 197.182 54.0083C197.221 54.0083 197.253 54.0083 197.284 54.0083C197.151 53.9929 197.019 53.9698 196.887 53.9544C196.933 53.9621 196.98 53.9698 197.019 53.9852C196.902 53.9391 196.778 53.8852 196.661 53.8391C196.715 53.8621 196.77 53.8929 196.817 53.9237C196.715 53.8468 196.614 53.7698 196.513 53.6929C196.552 53.7237 196.583 53.7545 196.614 53.7929C196.536 53.6929 196.459 53.5929 196.381 53.4929C196.412 53.5391 196.443 53.5852 196.466 53.6391C196.42 53.5237 196.365 53.4007 196.319 53.2853C196.35 53.3699 196.373 53.4545 196.381 53.5391C196.365 53.4083 196.342 53.2776 196.326 53.1468C196.35 53.3545 196.326 53.5699 196.303 53.7775C196.319 53.6468 196.342 53.516 196.357 53.3853C196.319 53.6391 196.264 53.8929 196.163 54.1313C196.21 54.016 196.264 53.8929 196.311 53.7775C196.241 53.9467 196.147 54.1006 196.038 54.2467C196.116 54.1467 196.194 54.0467 196.272 53.9467C196.21 54.0237 196.14 54.1006 196.062 54.1621C196.163 54.0852 196.264 54.0083 196.365 53.9314C196.311 53.9775 196.248 54.0083 196.186 54.039C196.303 53.9929 196.428 53.9391 196.544 53.8929C196.505 53.9083 196.466 53.916 196.42 53.9237C196.552 53.9083 196.684 53.8852 196.817 53.8698C196.762 53.8775 196.7 53.8775 196.645 53.8775C196.778 53.8929 196.91 53.916 197.042 53.9314C196.972 53.9237 196.902 53.9006 196.832 53.8775C196.949 53.9237 197.074 53.9775 197.19 54.0237C197.105 53.9852 197.035 53.9467 196.957 53.8929C197.058 53.9698 197.159 54.0467 197.26 54.1236C197.175 54.0544 197.097 53.9852 197.027 53.9006C197.105 54.0006 197.182 54.1006 197.26 54.2006C197.19 54.1083 197.128 54.0083 197.081 53.8929C197.128 54.0083 197.182 54.1313 197.229 54.2467C197.182 54.139 197.151 54.0237 197.136 53.9083C197.151 54.039 197.175 54.1698 197.19 54.3006C197.175 54.1698 197.175 54.039 197.19 53.9083C197.175 54.039 197.151 54.1698 197.136 54.3006C197.151 54.1929 197.182 54.0929 197.221 54.0006C197.354 53.6699 197.245 53.1545 197.074 52.8546C196.894 52.5469 196.536 52.2546 196.178 52.17C195.797 52.0854 195.361 52.1008 195.019 52.3162C194.918 52.3931 194.816 52.47 194.715 52.5469C194.536 52.7315 194.412 52.9469 194.342 53.2007Z" fill="#7851C4"/>
<path d="M154.875 27.0577C155.895 29.1959 158.323 30.5573 160.634 30.6573C161.856 30.7111 168.838 30.6496 169.725 30.5496C171.243 30.3804 171.632 30.0958 172.714 29.3497C174.512 28.1114 175.337 25.6809 175.625 23.6042C175.913 21.4736 175.92 19.12 174.854 17.1664C172.722 13.2514 167.655 12.4746 163.646 12.5131C161.576 12.5361 159.233 13.1514 157.513 14.4282C155.684 15.7896 154.875 17.5587 154.509 19.7046C154.353 20.8968 154.276 22.0813 154.299 23.2811C154.322 24.5195 154.338 25.927 154.875 27.0577Z" fill="#FEFDFF"/>
<path d="M174.16 40.1407C171.404 43.8634 167.91 48.286 162.773 47.963C161.87 47.9091 161.107 48.7629 161.107 49.6089C161.107 50.5473 161.87 51.2011 162.773 51.2549C165.832 51.4472 168.766 50.2166 171.148 48.386C173.514 46.5708 175.288 44.1711 177.039 41.8021C177.569 41.0868 177.164 39.9638 176.44 39.5485C175.6 39.0639 174.697 39.4177 174.16 40.1407Z" fill="#7851C4"/>
<path d="M162.79 49.9548C163.194 49.9548 163.552 49.8548 163.918 49.6856C164.027 49.6394 164.128 49.5779 164.229 49.501C164.385 49.3856 164.541 49.2779 164.657 49.1318C164.907 48.8318 165.109 48.5088 165.202 48.1242C165.296 47.7319 165.296 47.3397 165.194 46.9474C165.132 46.709 164.945 46.4782 164.735 46.3552C164.517 46.2321 164.206 46.1783 163.965 46.2552C163.723 46.3321 163.49 46.4782 163.365 46.709C163.241 46.9474 163.202 47.2012 163.264 47.4704C163.28 47.5243 163.288 47.5781 163.295 47.6319C163.28 47.5473 163.272 47.455 163.256 47.3704C163.272 47.4935 163.272 47.6089 163.256 47.7319C163.272 47.6473 163.28 47.555 163.295 47.4704C163.28 47.5935 163.241 47.7089 163.202 47.8165C163.233 47.7396 163.272 47.6627 163.303 47.5781C163.256 47.6935 163.194 47.7935 163.116 47.8935C163.171 47.8242 163.218 47.7627 163.272 47.6935C163.194 47.7858 163.116 47.8704 163.015 47.9396C163.085 47.8858 163.148 47.8396 163.218 47.7858C163.116 47.8627 163 47.9242 162.883 47.9781C162.961 47.9473 163.039 47.9088 163.124 47.8781C162.992 47.9319 162.86 47.9704 162.719 47.9858C162.805 47.9704 162.898 47.9627 162.984 47.9473C162.922 47.955 162.852 47.9627 162.79 47.9627C162.533 47.9627 162.268 48.0704 162.081 48.255C161.91 48.4242 161.778 48.7088 161.785 48.9549C161.793 49.2087 161.879 49.4779 162.081 49.6548C162.276 49.8471 162.517 49.9548 162.79 49.9548Z" fill="#7851C4"/>
<path d="M190.793 47.7706C191.821 46.5092 192.661 45.0785 192.996 43.5172C193.369 41.8097 193.136 40.1791 192.575 38.5869C186.365 48.7089 177.577 51.4855 170.16 51.6548C172.55 53.0315 174.869 53.9007 177.85 53.8776C182.823 53.8315 187.727 51.5163 190.793 47.7706Z" fill="#7851C4"/>
<path fill-rule="evenodd" clip-rule="evenodd" d="M176.793 38.8637C177.057 38.6167 177.472 38.6308 177.719 38.8953C178.66 39.9027 178.621 41.162 178.198 42.3059C177.78 43.4356 176.95 44.5806 176.077 45.5794C175.196 46.5879 174.228 47.4932 173.486 48.1436C173.114 48.4697 172.796 48.7337 172.57 48.9167C172.457 49.0083 172.368 49.0797 172.305 49.1286C172.274 49.1531 172.25 49.1719 172.233 49.1849L172.214 49.1998L172.209 49.2039L172.207 49.205C172.207 49.2052 172.206 49.2056 171.83 48.7137L172.206 49.2056C171.919 49.4255 171.508 49.3708 171.288 49.0834C171.068 48.7961 171.123 48.3849 171.41 48.1649L171.414 48.1615L171.43 48.1492C171.445 48.138 171.467 48.121 171.495 48.0985C171.553 48.0534 171.637 47.9861 171.745 47.899C171.96 47.7247 172.265 47.4715 172.623 47.158C173.34 46.5292 174.261 45.666 175.09 44.7169C175.928 43.7581 176.634 42.7564 176.969 41.8509C177.299 40.9594 177.233 40.2947 176.761 39.7899C176.514 39.5254 176.528 39.1108 176.793 38.8637Z" fill="#FFCE50"/>
<path fill-rule="evenodd" clip-rule="evenodd" d="M184.542 10.2257C185.367 11.2948 186.924 11.5332 188.029 10.7564C189.134 9.97953 189.352 8.48738 188.527 7.42596C187.702 6.35684 186.145 6.1184 185.04 6.89524C184.626 7.18829 184.336 7.58203 184.18 8.01618C183.211 8.01801 182.23 8.1947 181.304 8.41812C179.732 8.8027 178.137 9.37187 176.751 10.2026C175.817 10.764 176.673 12.21 177.607 11.6486C178.806 10.9332 180.145 10.4487 181.491 10.0949C182.129 9.92566 182.775 9.7949 183.429 9.73337C183.687 9.70735 183.954 9.68397 184.223 9.67663C184.302 9.86739 184.408 10.052 184.542 10.2257Z" fill="#7851C4"/>
<path d="M165.27 20.0203C165.239 20.7126 166.033 21.3202 167.045 21.3663C168.057 21.4125 168.913 20.8972 168.944 20.1972C168.983 19.505 168.181 18.8974 167.169 18.8512C166.158 18.8051 165.309 19.3281 165.27 20.0203Z" fill="#221F20"/>
<path d="M157.114 20.1661C157.083 20.8045 157.807 21.366 158.733 21.4121C159.659 21.4583 160.438 20.9737 160.469 20.3353C160.5 19.6969 159.776 19.1354 158.85 19.0893C157.924 19.0355 157.145 19.52 157.114 20.1661Z" fill="#221F20"/>
<path d="M165.909 24.1274C165.092 25.0658 163.971 25.6657 162.718 25.7042C161.465 25.7427 160.305 25.2119 159.418 24.3197" stroke="#221F20" stroke-width="2" stroke-miterlimit="10" stroke-linecap="round"/>
<path d="M173.404 23.8429C173.365 24.6736 172.384 25.3043 171.209 25.2427C170.041 25.1889 169.123 24.4659 169.17 23.6352C169.209 22.8045 170.189 22.1738 171.365 22.2353C172.532 22.2969 173.45 23.0122 173.404 23.8429Z" fill="#FFCE50"/>
<path d="M157.641 23.6432C157.61 24.2508 157.057 24.7277 156.396 24.6892C155.742 24.6585 155.236 24.1355 155.267 23.5201C155.298 22.9125 155.851 22.4356 156.512 22.4741C157.166 22.5049 157.672 23.0279 157.641 23.6432Z" fill="#FFCE50"/>
<path d="M209.068 93.7973C208.637 93.7973 208.343 93.822 208.343 94.298C208.343 96.0845 210.613 97.1539 213.534 97.1539C216.112 97.1539 216.7 96.3441 217.794 96.3441C218.67 96.3441 219.233 96.8263 219.233 97.8648C219.233 100.931 214.667 102.829 210.838 102.829C204.558 102.829 200.186 99.2619 200.186 93.5685C200.186 87.6712 203.764 83.6531 210.838 83.6531C216.349 83.6531 219.233 87.1767 219.233 91.1082C219.233 93.2409 218.47 93.7911 216.987 93.7911H209.068V93.7973ZM212.089 89.4824C212.089 88.1966 211.564 86.9974 210.225 86.9974C208.805 86.9974 208.23 88.1286 208.23 90.0821C208.23 90.6755 208.605 90.7621 209.337 90.7621C209.581 90.7621 210.394 90.7559 210.632 90.7559C211.595 90.7621 212.089 90.6137 212.089 89.4824Z" fill="white"/>
<path d="M229.611 93.7973C229.18 93.7973 228.885 93.822 228.885 94.298C228.885 96.0845 231.156 97.1539 234.077 97.1539C236.655 97.1539 237.243 96.3441 238.337 96.3441C239.213 96.3441 239.776 96.8263 239.776 97.8648C239.776 100.931 235.21 102.829 231.381 102.829C225.101 102.829 220.729 99.2619 220.729 93.5685C220.729 87.6712 224.307 83.6531 231.381 83.6531C236.892 83.6531 239.776 87.1767 239.776 91.1082C239.776 93.2409 239.013 93.7911 237.53 93.7911H229.611V93.7973ZM232.632 89.4824C232.632 88.1966 232.107 86.9974 230.768 86.9974C229.348 86.9974 228.773 88.1286 228.773 90.0821C228.773 90.6755 229.148 90.7621 229.88 90.7621C230.124 90.7621 230.937 90.7559 231.175 90.7559C232.138 90.7621 232.632 90.6137 232.632 89.4824Z" fill="white"/>
<path d="M146.471 93.7973C146.039 93.7973 145.745 93.822 145.745 94.298C145.745 96.0845 148.016 97.1539 150.937 97.1539C153.514 97.1539 154.102 96.3441 155.197 96.3441C156.073 96.3441 156.636 96.8263 156.636 97.8648C156.636 100.931 152.069 102.829 148.241 102.829C141.961 102.829 137.582 99.2619 137.582 93.5685C137.582 87.6712 141.16 83.6531 148.241 83.6531C153.752 83.6531 156.636 87.1767 156.636 91.1082C156.636 93.2409 155.873 93.7911 154.39 93.7911H146.471V93.7973ZM149.492 89.4824C149.492 88.1966 148.967 86.9974 147.628 86.9974C146.208 86.9974 145.633 88.1286 145.633 90.0821C145.633 90.6755 146.008 90.7621 146.74 90.7621C146.984 90.7621 147.797 90.7559 148.035 90.7559C148.998 90.7621 149.492 90.6137 149.492 89.4824Z" fill="white"/>
<path d="M191.417 83.7457C188.67 83.7457 187.776 85.2355 187.163 86.1998C187.032 86.4038 186.894 86.6696 186.725 86.6696C186.569 86.6696 186.575 86.3297 186.575 86.3297C186.575 86.3297 186.519 78.0585 186.519 77.836C186.519 77.4342 186.487 76.6367 185.311 76.6367C184.36 76.6367 182.34 77.2549 180.832 77.8731C179.325 78.4912 176.629 79.7523 176.629 81.1308C176.629 82.0148 177.279 82.4104 177.63 82.7257C177.93 82.9977 178.556 83.5541 178.556 84.8708C178.556 86.2493 178.556 101.5 178.556 101.5C178.556 101.5 178.487 103.175 180.157 103.175C181.827 103.175 182.221 101.728 183.316 101.728C184.404 101.728 185.543 102.761 189.465 102.761C193.693 102.761 198.923 100.226 198.923 93.3459C198.923 86.4718 194.106 83.7457 191.417 83.7457ZM189.296 99.0084C186.925 99.0084 186.575 96.0782 186.575 93.7724C186.575 92.5361 186.575 91.5718 186.575 90.15C186.575 88.8023 187.132 88.4994 187.519 88.4994C190.247 88.4994 191.179 93.4139 191.179 95.9608C191.173 96.5419 191.173 99.0084 189.296 99.0084Z" fill="white"/>
<path d="M137.263 84.2222C136.375 84.2222 135.03 84.2593 133.56 84.2593C132.09 84.2593 130.995 84.2222 129.8 84.2222C128.762 84.2222 128.418 84.7909 128.418 85.44C128.418 86.2683 128.787 86.4599 129.463 86.7629C129.725 86.8803 130.119 86.9854 130.119 87.3934C130.119 87.5912 129.994 87.9621 129.757 88.5741C129.344 89.6188 128.699 91.053 128.618 91.2199C128.474 91.5104 128.299 91.9308 127.924 91.9308C127.53 91.9308 127.355 91.4733 127.229 91.2199C127.061 90.8675 126.266 89.0192 126.097 88.5988C125.947 88.2217 125.722 87.653 125.722 87.3748C125.722 87.0596 125.972 86.9298 126.623 86.6516C127.317 86.3549 127.436 86.2003 127.417 85.44C127.417 84.7723 127.048 84.2222 125.922 84.2222C125.347 84.2222 121.618 84.2593 120.993 84.2593C120.374 84.2593 117.308 84.2222 115.926 84.2222C115.25 84.2222 114.225 84.6425 114.225 85.8356C114.225 86.6516 114.575 86.8432 114.913 86.973C115.294 87.1214 116.014 87.3748 116.589 87.8879C117.221 88.4381 117.728 89.4519 117.728 89.4519C117.728 89.4519 122.138 97.9394 123.013 99.5652C123.357 100.202 123.476 100.764 123.476 101.475C123.476 102.57 122.776 103.917 121.387 103.917C119.379 103.917 120.605 100.647 117.515 100.647C115.595 100.647 114.325 102.1 114.325 103.837C114.325 106.928 116.821 108.986 119.879 108.986C125.659 108.986 128.412 102.427 129.425 100.381C130.445 98.335 134.548 90.2308 134.817 89.6806C135.086 89.1305 135.43 88.1476 136.225 87.8261C136.975 87.5232 137.444 87.381 138.001 87.1585C138.42 86.9916 138.796 86.6949 138.796 85.8603C138.796 85.2731 138.251 84.2222 137.263 84.2222Z" fill="white"/>
<path d="M175.201 88.1906C175.201 86.775 174.457 83.9438 173.012 83.9438C172.543 83.9438 172.274 84.2467 171.26 84.2467C170.247 84.2467 169.09 83.678 166.794 83.678C161.314 83.678 158.568 86.9357 158.568 90.0513C158.568 93.0309 160.576 94.2734 162.628 95.0153C164.73 95.7756 165.831 96.0043 166.469 96.2021C166.956 96.3567 168.345 96.9069 168.345 97.8094C168.345 98.749 167.144 98.7737 166.594 98.7737C165.393 98.7737 164.16 98.3967 163.529 97.9763C162.997 97.6239 162.115 96.8945 161.783 96.6101C161.458 96.3258 160.645 95.4912 159.75 95.4912C158.712 95.4912 158.449 96.5607 158.449 97.2221C158.449 97.8836 158.455 98.5512 158.512 99.1446C158.562 99.6763 158.712 100.684 159.325 101.178C159.951 101.685 161.27 101.889 162.127 102.081C162.815 102.236 164.83 102.792 166.888 102.792C173.681 102.792 176.383 98.8974 176.383 96.1218C176.383 93.1298 174.013 91.8873 171.629 91.1084C171.104 90.9353 168.652 90.1935 168.214 90.0328C167.77 89.8721 166.756 89.3404 166.756 88.5368C166.756 88.0175 167.188 87.5663 168.082 87.5663C168.664 87.5663 169.49 87.8012 169.928 88.0361C170.303 88.2339 171.116 88.7037 172.017 89.1983C172.699 89.5753 173.243 89.7732 173.906 89.7732C175.251 89.7793 175.201 88.6172 175.201 88.1906Z" fill="white"/>
<path d="M134.687 123.966C134.393 123.966 134.149 123.867 133.949 123.669C133.749 123.472 133.648 123.231 133.648 122.94V113.383C133.648 113.105 133.749 112.864 133.949 112.66C134.149 112.456 134.393 112.357 134.687 112.357C134.968 112.357 135.212 112.456 135.419 112.66C135.625 112.864 135.725 113.105 135.725 113.383V116.709C135.963 116.375 136.276 116.109 136.664 115.899C137.045 115.689 137.464 115.59 137.915 115.59C138.284 115.59 138.628 115.658 138.947 115.8C139.266 115.942 139.547 116.128 139.785 116.369C140.029 116.61 140.217 116.882 140.36 117.197C140.504 117.512 140.573 117.852 140.573 118.217V122.94C140.573 123.231 140.473 123.472 140.267 123.669C140.06 123.867 139.816 123.966 139.535 123.966C139.241 123.966 138.997 123.867 138.797 123.669C138.596 123.472 138.496 123.231 138.496 122.94V118.65C138.496 118.471 138.465 118.304 138.396 118.143C138.327 117.982 138.234 117.84 138.102 117.723C137.977 117.605 137.833 117.506 137.671 117.438C137.508 117.364 137.333 117.327 137.145 117.327C136.958 117.327 136.776 117.364 136.601 117.438C136.426 117.512 136.276 117.611 136.144 117.741C136.013 117.871 135.913 118.019 135.838 118.192C135.763 118.366 135.725 118.545 135.725 118.743V122.94C135.725 123.231 135.625 123.472 135.419 123.669C135.212 123.867 134.968 123.966 134.687 123.966Z" fill="#38B2AC"/>
<path d="M143.701 114.675C143.37 114.675 143.088 114.564 142.863 114.341C142.638 114.119 142.525 113.841 142.525 113.513C142.525 113.192 142.638 112.92 142.863 112.697C143.088 112.475 143.364 112.363 143.701 112.363C144.027 112.363 144.296 112.475 144.521 112.697C144.746 112.92 144.859 113.192 144.859 113.513C144.859 113.847 144.746 114.119 144.521 114.341C144.302 114.564 144.027 114.675 143.701 114.675ZM143.701 123.966C143.401 123.966 143.145 123.867 142.944 123.663C142.744 123.459 142.638 123.212 142.638 122.909V116.647C142.638 116.344 142.738 116.097 142.944 115.893C143.145 115.689 143.401 115.59 143.701 115.59C143.995 115.59 144.239 115.689 144.44 115.893C144.646 116.097 144.746 116.344 144.746 116.647V122.909C144.746 123.212 144.646 123.459 144.44 123.663C144.239 123.861 143.995 123.966 143.701 123.966Z" fill="#38B2AC"/>
<path d="M146.467 116.913C146.423 116.82 146.404 116.709 146.404 116.585C146.404 116.313 146.498 116.084 146.686 115.887C146.873 115.689 147.105 115.59 147.38 115.59C147.587 115.59 147.78 115.652 147.956 115.769C148.131 115.887 148.243 116.047 148.312 116.245L150.007 121.388L151.69 116.245C151.753 116.047 151.871 115.893 152.047 115.769C152.222 115.652 152.409 115.59 152.622 115.59C152.904 115.59 153.141 115.689 153.323 115.874C153.504 116.066 153.598 116.295 153.598 116.567C153.598 116.703 153.579 116.814 153.535 116.907L151.227 123.138C151.133 123.385 150.977 123.589 150.758 123.737C150.539 123.886 150.289 123.966 150.02 123.966C149.745 123.966 149.501 123.892 149.275 123.737C149.05 123.589 148.888 123.385 148.794 123.138L146.467 116.913Z" fill="#38B2AC"/>
<path d="M160.315 121.586C160.546 121.586 160.753 121.673 160.928 121.846C161.109 122.019 161.197 122.223 161.197 122.458C161.197 122.582 161.165 122.711 161.097 122.847C161.028 122.983 160.903 123.119 160.728 123.268C160.465 123.478 160.14 123.645 159.745 123.775C159.351 123.905 158.907 123.966 158.419 123.966C157.844 123.966 157.318 123.867 156.837 123.67C156.361 123.472 155.948 123.194 155.604 122.829C155.26 122.464 154.991 122.031 154.798 121.525C154.604 121.018 154.51 120.455 154.51 119.849C154.51 119.194 154.616 118.607 154.823 118.088C155.029 117.562 155.317 117.117 155.673 116.752C156.03 116.388 156.443 116.103 156.918 115.905C157.387 115.708 157.894 115.609 158.426 115.609C159.014 115.609 159.552 115.72 160.046 115.949C160.54 116.177 160.959 116.474 161.309 116.833C161.66 117.197 161.935 117.599 162.129 118.05C162.323 118.502 162.423 118.947 162.423 119.392C162.423 119.837 162.335 120.158 162.154 120.362C161.972 120.566 161.766 120.665 161.522 120.665H156.649C156.699 121.123 156.893 121.494 157.218 121.784C157.544 122.075 157.975 122.217 158.507 122.217C158.976 122.217 159.383 122.087 159.72 121.827C159.914 121.673 160.115 121.586 160.315 121.586ZM160.365 119.349C160.365 119.058 160.315 118.792 160.208 118.551C160.102 118.31 159.958 118.1 159.777 117.921C159.595 117.741 159.383 117.605 159.151 117.5C158.914 117.395 158.67 117.346 158.419 117.346C158.157 117.346 157.913 117.395 157.687 117.5C157.462 117.605 157.268 117.741 157.099 117.921C156.931 118.1 156.799 118.304 156.699 118.551C156.599 118.792 156.549 119.064 156.549 119.349H160.365Z" fill="#38B2AC"/>
<path d="M168.522 117.982C168.522 117.679 168.585 117.389 168.716 117.098C168.848 116.808 169.042 116.554 169.298 116.332C169.555 116.109 169.88 115.93 170.268 115.794C170.655 115.658 171.106 115.59 171.619 115.59C172.344 115.59 172.932 115.72 173.395 115.985C173.858 116.251 174.183 116.591 174.384 117.005C174.434 117.111 174.465 117.191 174.477 117.247C174.49 117.302 174.496 117.358 174.496 117.407C174.496 117.642 174.415 117.852 174.246 118.038C174.077 118.217 173.877 118.31 173.633 118.31C173.452 118.31 173.295 118.26 173.151 118.168C173.007 118.075 172.895 117.945 172.814 117.778C172.601 117.364 172.182 117.16 171.556 117.16C171.125 117.16 170.831 117.24 170.668 117.407C170.505 117.574 170.424 117.747 170.424 117.933C170.424 118.087 170.474 118.223 170.568 118.335C170.662 118.446 170.787 118.545 170.943 118.619C171.1 118.699 171.281 118.767 171.487 118.823C171.694 118.879 171.907 118.94 172.138 119.002C172.451 119.083 172.77 119.181 173.095 119.28C173.42 119.385 173.714 119.521 173.983 119.695C174.252 119.868 174.471 120.084 174.646 120.356C174.822 120.628 174.903 120.968 174.903 121.382C174.903 121.518 174.878 121.728 174.834 122.013C174.784 122.297 174.653 122.588 174.44 122.878C174.227 123.169 173.902 123.422 173.464 123.638C173.026 123.855 172.426 123.966 171.663 123.966C171.193 123.966 170.774 123.923 170.418 123.836C170.061 123.75 169.755 123.632 169.505 123.496C169.254 123.354 169.048 123.2 168.885 123.033C168.723 122.86 168.591 122.686 168.497 122.513C168.447 122.402 168.41 122.303 168.385 122.235C168.366 122.161 168.354 122.093 168.354 122.019C168.354 121.784 168.435 121.574 168.604 121.401C168.773 121.221 168.992 121.135 169.267 121.135C169.636 121.135 169.905 121.314 170.086 121.66C170.168 121.815 170.33 121.982 170.574 122.149C170.812 122.322 171.2 122.408 171.719 122.408C172.013 122.408 172.244 122.377 172.419 122.316C172.595 122.254 172.726 122.18 172.814 122.099C172.901 122.019 172.957 121.932 172.976 121.84C172.995 121.753 173.007 121.679 173.007 121.617C173.007 121.462 172.964 121.333 172.876 121.221C172.789 121.11 172.67 121.017 172.52 120.943C172.376 120.863 172.201 120.795 171.994 120.739C171.788 120.684 171.575 120.628 171.356 120.578C171.031 120.504 170.699 120.418 170.368 120.313C170.03 120.208 169.723 120.065 169.448 119.88C169.173 119.695 168.948 119.447 168.773 119.151C168.61 118.829 168.522 118.446 168.522 117.982Z" fill="#38B2AC"/>
<path d="M175.753 116.925C175.722 116.863 175.703 116.795 175.691 116.733C175.678 116.665 175.672 116.604 175.672 116.554C175.672 116.294 175.759 116.072 175.941 115.88C176.122 115.689 176.341 115.596 176.616 115.596C176.817 115.596 176.992 115.652 177.148 115.757C177.305 115.868 177.423 116.01 177.492 116.183L179.663 121.438L181.189 116.313C181.252 116.109 181.37 115.936 181.552 115.8C181.733 115.664 181.933 115.596 182.165 115.596C182.446 115.596 182.684 115.695 182.872 115.88C183.059 116.072 183.153 116.301 183.153 116.573C183.153 116.678 183.141 116.783 183.103 116.882L180.664 124.541C180.42 125.289 180.063 125.821 179.575 126.148C179.094 126.476 178.524 126.636 177.861 126.636H176.935C176.685 126.636 176.473 126.556 176.31 126.389C176.141 126.222 176.06 126.025 176.06 125.796C176.06 125.555 176.141 125.345 176.31 125.165C176.479 124.986 176.685 124.893 176.935 124.893H177.642C177.924 124.893 178.161 124.807 178.355 124.627C178.549 124.448 178.706 124.139 178.818 123.694L175.753 116.925Z" fill="#38B2AC"/>
<path d="M184.185 117.982C184.185 117.679 184.247 117.389 184.378 117.098C184.51 116.808 184.704 116.554 184.96 116.332C185.217 116.109 185.542 115.93 185.93 115.794C186.318 115.658 186.768 115.59 187.281 115.59C188.007 115.59 188.595 115.72 189.057 115.985C189.52 116.251 189.846 116.591 190.046 117.005C190.096 117.111 190.127 117.191 190.14 117.247C190.152 117.302 190.158 117.358 190.158 117.407C190.158 117.642 190.077 117.852 189.908 118.038C189.739 118.217 189.539 118.31 189.295 118.31C189.114 118.31 188.957 118.26 188.813 118.168C188.67 118.075 188.557 117.945 188.476 117.778C188.263 117.364 187.844 117.16 187.218 117.16C186.787 117.16 186.493 117.24 186.33 117.407C186.167 117.574 186.086 117.747 186.086 117.933C186.086 118.087 186.136 118.223 186.23 118.335C186.324 118.446 186.449 118.545 186.605 118.619C186.762 118.699 186.943 118.767 187.15 118.823C187.356 118.879 187.569 118.94 187.8 119.002C188.113 119.083 188.432 119.181 188.757 119.28C189.082 119.385 189.376 119.521 189.645 119.695C189.914 119.868 190.133 120.084 190.309 120.356C190.484 120.628 190.565 120.968 190.565 121.382C190.565 121.518 190.54 121.728 190.496 122.013C190.446 122.297 190.315 122.588 190.102 122.878C189.889 123.169 189.564 123.422 189.126 123.638C188.688 123.855 188.088 123.966 187.325 123.966C186.856 123.966 186.436 123.923 186.08 123.836C185.723 123.75 185.417 123.632 185.167 123.496C184.916 123.354 184.71 123.2 184.547 123.033C184.385 122.86 184.253 122.686 184.159 122.513C184.109 122.402 184.072 122.303 184.047 122.235C184.028 122.161 184.016 122.093 184.016 122.019C184.016 121.784 184.097 121.574 184.266 121.401C184.435 121.221 184.654 121.135 184.929 121.135C185.298 121.135 185.567 121.314 185.748 121.66C185.83 121.815 185.992 121.982 186.236 122.149C186.474 122.322 186.862 122.408 187.381 122.408C187.675 122.408 187.906 122.377 188.082 122.316C188.257 122.254 188.388 122.18 188.476 122.099C188.563 122.019 188.62 121.932 188.638 121.84C188.657 121.753 188.67 121.679 188.67 121.617C188.67 121.462 188.626 121.333 188.538 121.221C188.451 121.11 188.332 121.017 188.182 120.943C188.038 120.863 187.863 120.795 187.656 120.739C187.45 120.684 187.237 120.628 187.018 120.578C186.693 120.504 186.361 120.418 186.03 120.313C185.692 120.208 185.386 120.065 185.11 119.88C184.835 119.695 184.61 119.447 184.435 119.151C184.272 118.829 184.185 118.446 184.185 117.982Z" fill="#38B2AC"/>
<path d="M192.01 117.389C191.798 117.389 191.616 117.315 191.46 117.166C191.304 117.018 191.229 116.839 191.229 116.629C191.229 116.418 191.304 116.245 191.46 116.091C191.616 115.942 191.798 115.862 192.01 115.862H192.423V114.292C192.423 114.001 192.523 113.754 192.73 113.556C192.93 113.352 193.186 113.253 193.487 113.253C193.781 113.253 194.025 113.352 194.225 113.556C194.431 113.76 194.531 114.001 194.531 114.292V115.862H195.883C196.089 115.862 196.27 115.936 196.427 116.091C196.577 116.239 196.658 116.418 196.658 116.629C196.658 116.833 196.583 117.012 196.427 117.166C196.277 117.315 196.095 117.389 195.883 117.389H194.531V121.555C194.531 121.803 194.575 121.976 194.656 122.069C194.738 122.161 194.925 122.211 195.207 122.211H195.582C195.826 122.211 196.033 122.297 196.202 122.47C196.377 122.643 196.464 122.847 196.464 123.082C196.464 123.323 196.377 123.527 196.202 123.694C196.026 123.867 195.82 123.954 195.582 123.954H194.531C193.862 123.954 193.349 123.793 192.98 123.466C192.611 123.138 192.423 122.6 192.423 121.858V117.401H192.01V117.389Z" fill="#38B2AC"/>
<path d="M203.428 121.586C203.659 121.586 203.866 121.673 204.041 121.846C204.222 122.019 204.31 122.223 204.31 122.458C204.31 122.582 204.279 122.711 204.21 122.847C204.141 122.983 204.016 123.119 203.841 123.268C203.578 123.478 203.253 123.645 202.859 123.775C202.465 123.905 202.021 123.966 201.533 123.966C200.957 123.966 200.432 123.867 199.95 123.67C199.475 123.472 199.062 123.194 198.718 122.829C198.374 122.464 198.105 122.031 197.911 121.525C197.717 121.018 197.623 120.455 197.623 119.849C197.623 119.194 197.729 118.607 197.936 118.088C198.142 117.562 198.43 117.117 198.787 116.752C199.143 116.388 199.556 116.103 200.031 115.905C200.501 115.708 201.007 115.609 201.539 115.609C202.127 115.609 202.665 115.72 203.159 115.949C203.653 116.177 204.072 116.474 204.423 116.833C204.773 117.197 205.048 117.599 205.242 118.05C205.436 118.502 205.536 118.947 205.536 119.392C205.536 119.837 205.448 120.158 205.267 120.362C205.086 120.566 204.879 120.665 204.635 120.665H199.762C199.812 121.123 200.006 121.494 200.332 121.784C200.657 122.075 201.089 122.217 201.62 122.217C202.089 122.217 202.496 122.087 202.834 121.827C203.028 121.673 203.234 121.586 203.428 121.586ZM203.478 119.349C203.478 119.058 203.428 118.792 203.322 118.551C203.215 118.31 203.071 118.1 202.89 117.921C202.709 117.741 202.496 117.605 202.265 117.5C202.027 117.395 201.783 117.346 201.533 117.346C201.27 117.346 201.026 117.395 200.801 117.5C200.576 117.605 200.382 117.741 200.213 117.921C200.044 118.1 199.913 118.304 199.812 118.551C199.712 118.792 199.662 119.064 199.662 119.349H203.478Z" fill="#38B2AC"/>
<path d="M214.799 122.921C214.799 123.212 214.699 123.459 214.493 123.657C214.286 123.861 214.036 123.96 213.748 123.96C213.454 123.96 213.204 123.861 213.004 123.657C212.797 123.453 212.697 123.212 212.697 122.921V118.928C212.697 118.378 212.56 117.976 212.278 117.716C211.997 117.457 211.634 117.327 211.184 117.327C210.902 117.327 210.633 117.376 210.395 117.475C210.151 117.574 209.945 117.704 209.77 117.865C209.595 118.025 209.463 118.217 209.369 118.433C209.276 118.65 209.226 118.885 209.226 119.132V122.909C209.226 123.212 209.126 123.459 208.919 123.663C208.719 123.867 208.469 123.966 208.175 123.966C207.874 123.966 207.624 123.867 207.418 123.663C207.218 123.459 207.111 123.212 207.111 122.909V116.567C207.111 116.295 207.205 116.066 207.393 115.874C207.58 115.683 207.812 115.59 208.081 115.59C208.331 115.59 208.55 115.67 208.744 115.837C208.938 116.004 209.044 116.202 209.063 116.443L209.126 117.191C209.401 116.715 209.776 116.332 210.258 116.035C210.739 115.738 211.277 115.59 211.865 115.59C212.497 115.59 213.054 115.757 213.536 116.097C214.017 116.431 214.368 116.863 214.574 117.395C214.837 116.869 215.225 116.437 215.731 116.097C216.238 115.763 216.801 115.59 217.42 115.59C217.827 115.59 218.215 115.67 218.565 115.825C218.921 115.979 219.234 116.189 219.503 116.455C219.772 116.721 219.979 117.024 220.129 117.37C220.279 117.716 220.354 118.087 220.354 118.483V122.928C220.354 123.218 220.254 123.465 220.047 123.663C219.841 123.867 219.591 123.966 219.303 123.966C219.009 123.966 218.759 123.867 218.559 123.663C218.352 123.459 218.252 123.218 218.252 122.928V118.934C218.252 118.409 218.108 118.007 217.827 117.735C217.545 117.463 217.17 117.333 216.713 117.333C216.432 117.333 216.175 117.383 215.944 117.481C215.712 117.58 215.512 117.71 215.337 117.871C215.162 118.032 215.031 118.223 214.937 118.44C214.843 118.656 214.793 118.891 214.793 119.138V122.921H214.799Z" fill="#38B2AC"/>
<defs>
<clipPath id="clip0_229_16511">
<rect width="7.0774" height="9.43653" fill="white" transform="translate(146.715 31.5327)"/>
</clipPath>
</defs>
</svg>
