<svg width="25" height="24" viewBox="0 0 25 24" fill="none" xmlns="http://www.w3.org/2000/svg">
<g clip-path="url(#clip0_993_6212)">
<path d="M2.35021 12.9443C2.3581 12.8971 2.36204 12.8459 2.35415 12.8026C2.33049 12.645 2.25949 12.4835 2.12538 12.3851C1.99127 12.2866 1.81378 12.2118 1.64023 12.2433C1.41541 12.2827 1.23791 12.3457 1.0407 12.456C0.989419 12.4835 0.942088 12.519 0.8987 12.5584C0.819814 12.6253 0.736983 12.6923 0.673874 12.775C0.401717 13.1255 0.29522 13.5627 0.397772 13.988C0.49638 14.3937 0.784315 14.7324 1.20241 14.8584C1.52585 14.9569 1.88872 14.8939 2.11749 14.634C2.27921 14.4488 2.29893 14.2322 2.31076 14.0038" fill="#3A0C93"/>
</g>
<g opacity="0.8">
<path opacity="0.8" d="M14.1519 8.68909C15.5071 7.95569 17.1769 7.75829 18.7089 8.15497C19.3573 8.32356 20.0609 8.67721 20.2257 9.30782C20.3409 9.74646 20.1494 10.2077 19.8593 10.5493C19.1703 11.364 17.9311 11.6407 16.8594 11.35C15.7876 11.0592 14.8927 10.2652 14.3502 9.32036" fill="white" fill-opacity="0.3"/>
</g>
<g opacity="0.8">
<path opacity="0.8" d="M13.9059 9.51861C15.4787 9.53406 17.0262 8.93718 18.1327 7.88957C18.6032 7.44608 19.0141 6.8136 18.8112 6.19319C18.669 5.75917 18.2551 5.44958 17.8161 5.28653C16.7747 4.89682 15.5539 5.22619 14.7897 5.96977C14.0254 6.71335 13.6869 7.8117 13.7315 8.88264" fill="white" fill-opacity="0.3"/>
</g>
<path fill-rule="evenodd" clip-rule="evenodd" d="M15.0664 17.5684C15.0664 17.3475 15.2455 17.1684 15.4664 17.1684H24.1448C24.3657 17.1684 24.5448 17.3475 24.5448 17.5684C24.5448 17.7893 24.3657 17.9684 24.1448 17.9684H15.4664C15.2455 17.9684 15.0664 17.7893 15.0664 17.5684Z" fill="#BFC9FF"/>
<path fill-rule="evenodd" clip-rule="evenodd" d="M14.9473 17.5684C14.9473 17.2823 15.1792 17.0504 15.4653 17.0504H24.1437C24.4299 17.0504 24.6618 17.2823 24.6618 17.5684C24.6618 17.8545 24.4299 18.0865 24.1437 18.0865H15.4653C15.1792 18.0865 14.9473 17.8545 14.9473 17.5684ZM15.4653 17.2865C15.3096 17.2865 15.1834 17.4127 15.1834 17.5684C15.1834 17.7242 15.3096 17.8504 15.4653 17.8504H24.1437C24.2995 17.8504 24.4257 17.7242 24.4257 17.5684C24.4257 17.4127 24.2995 17.2865 24.1437 17.2865H15.4653Z" fill="#BFC9FF"/>
<path fill-rule="evenodd" clip-rule="evenodd" d="M12.8906 15.1989C12.8906 14.978 13.0697 14.7989 13.2906 14.7989H22.1356C22.3566 14.7989 22.5356 14.978 22.5356 15.1989C22.5356 15.4198 22.3566 15.5989 22.1356 15.5989H13.2906C13.0697 15.5989 12.8906 15.4198 12.8906 15.1989Z" fill="#BFC9FF"/>
<path fill-rule="evenodd" clip-rule="evenodd" d="M12.7734 15.1989C12.7734 14.9128 13.0054 14.6808 13.2915 14.6808H22.1365C22.4226 14.6808 22.6546 14.9128 22.6546 15.1989C22.6546 15.485 22.4226 15.7169 22.1365 15.7169H13.2915C13.0054 15.7169 12.7734 15.485 12.7734 15.1989ZM13.2915 14.9169C13.1358 14.9169 13.0095 15.0432 13.0095 15.1989C13.0095 15.3546 13.1358 15.4808 13.2915 15.4808H22.1365C22.2922 15.4808 22.4185 15.3546 22.4185 15.1989C22.4185 15.0432 22.2922 14.9169 22.1365 14.9169H13.2915Z" fill="#BFC9FF"/>
<path fill-rule="evenodd" clip-rule="evenodd" d="M13.5254 12.8294C13.5254 12.6084 13.7045 12.4294 13.9254 12.4294H22.7704C22.9913 12.4294 23.1704 12.6084 23.1704 12.8294C23.1704 13.0503 22.9913 13.2294 22.7704 13.2294H13.9254C13.7045 13.2294 13.5254 13.0503 13.5254 12.8294Z" fill="#BFC9FF"/>
<path fill-rule="evenodd" clip-rule="evenodd" d="M13.4082 12.8293C13.4082 12.5432 13.6401 12.3113 13.9263 12.3113H22.7713C23.0574 12.3113 23.2893 12.5432 23.2893 12.8293C23.2893 13.1154 23.0574 13.3474 22.7713 13.3474H13.9263C13.6401 13.3474 13.4082 13.1154 13.4082 12.8293ZM13.9263 12.5474C13.7705 12.5474 13.6443 12.6736 13.6443 12.8293C13.6443 12.985 13.7705 13.1113 13.9263 13.1113H22.7713C22.927 13.1113 23.0532 12.985 23.0532 12.8293C23.0532 12.6736 22.927 12.5474 22.7713 12.5474H13.9263Z" fill="#BFC9FF"/>
<path d="M14.9364 1.85112C14.4391 2.08589 13.8309 1.88555 13.5743 1.40037C13.3178 0.915177 13.511 0.332952 14.0083 0.0981833C14.5056 -0.136585 15.1138 0.0637506 15.3703 0.548939C15.6237 1.03413 15.4305 1.61635 14.9364 1.85112Z" fill="#3A0C93"/>
<path d="M14.1656 0.827636C13.0031 1.15631 11.942 1.80114 11.1279 2.68387C11.0012 2.81847 10.9917 3.03133 11.1279 3.16593C11.2546 3.29114 11.489 3.30366 11.6157 3.16593C12.3506 2.36772 13.2945 1.78236 14.3461 1.48499C14.7737 1.36291 14.5932 0.705556 14.1656 0.827636Z" fill="#3A0C93"/>
<path d="M12.0082 20.4197C11.8814 20.8548 11.8276 21.3243 11.8783 21.7751C11.9321 22.2634 12.0715 22.7705 12.4548 23.1148C12.8824 23.4967 13.4335 23.5906 13.9942 23.5625C14.4535 23.5406 14.9159 23.456 15.3436 23.2839C15.5653 23.1931 15.7458 23.0961 15.8694 22.8832C15.9802 22.6954 16.0277 22.4199 15.9581 22.2102C15.8884 22.0005 15.7553 21.797 15.5526 21.6906C15.3562 21.5873 15.087 21.5153 14.8716 21.6029C14.6024 21.7125 14.3268 21.7845 14.0385 21.8252C14.1177 21.8158 14.1937 21.8033 14.2729 21.7939C14.0195 21.8252 13.7566 21.8377 13.5032 21.8064C13.5824 21.8158 13.6584 21.8283 13.7376 21.8377C13.6553 21.8252 13.5761 21.8064 13.5001 21.7751C13.5697 21.8033 13.6394 21.8346 13.7123 21.8627C13.6584 21.8377 13.6109 21.8095 13.5634 21.7751C13.6236 21.822 13.6838 21.8659 13.7408 21.9128C13.6901 21.8721 13.6458 21.8252 13.6046 21.7751C13.6521 21.8346 13.6964 21.894 13.744 21.9504C13.6996 21.8878 13.6616 21.822 13.6299 21.7532C13.6584 21.822 13.6901 21.8909 13.7186 21.9629C13.6679 21.8377 13.6363 21.7094 13.6173 21.5779C13.6268 21.6561 13.6394 21.7313 13.6489 21.8095C13.6173 21.5654 13.6204 21.3243 13.6489 21.0802C13.6394 21.1584 13.6268 21.2336 13.6173 21.3118C13.6394 21.1678 13.6679 21.0238 13.7091 20.8861C13.8358 20.4479 13.5539 19.9189 13.0914 19.8124C12.6195 19.706 12.1444 19.9533 12.0082 20.4197Z" fill="#3A0C93"/>
<path d="M14.0385 22.8176C14.0322 22.9083 14.048 22.9991 14.0639 23.0868C14.0702 23.1337 14.0829 23.1775 14.1019 23.2214C14.1684 23.3966 14.2539 23.55 14.3901 23.6815C14.5263 23.813 14.6847 23.9037 14.8653 23.9601C15.0997 24.0321 15.3531 24.0039 15.5716 23.8975C15.5938 23.8881 15.6096 23.8756 15.6286 23.8631C15.6825 23.8224 15.7427 23.7848 15.7902 23.7316C15.8979 23.6095 15.9486 23.5093 16.0087 23.3622C16.0658 23.2182 16.0879 23.0555 16.0911 22.9021C16.0943 22.7487 16.0689 22.589 16.0373 22.4388C16.0087 22.3011 15.9612 22.1602 15.8852 22.0413C15.7395 21.8127 15.5241 21.6594 15.2549 21.6249C15.2105 21.6187 15.163 21.6093 15.1187 21.6124C15.049 21.6155 14.9698 21.6249 14.9033 21.6437C14.8399 21.6656 14.7671 21.6907 14.7132 21.7314C14.5992 21.8096 14.5517 21.866 14.4662 21.9786C14.4218 22.0475 14.3965 22.1226 14.3933 22.204C14.3743 22.2854 14.3775 22.3637 14.4028 22.4451C14.4408 22.5859 14.5517 22.7362 14.6847 22.805C14.8273 22.8802 14.9983 22.9177 15.1567 22.8645C15.2042 22.8457 15.2549 22.8238 15.3024 22.805C15.3942 22.7518 15.4671 22.6798 15.5209 22.589C15.5241 22.5859 15.5273 22.5828 15.5304 22.5797C15.4988 22.6203 15.4671 22.661 15.4354 22.7017C15.4418 22.6955 15.4481 22.6892 15.4544 22.683C15.4132 22.7143 15.3721 22.7456 15.3309 22.7769C15.3404 22.7675 15.3531 22.7612 15.3626 22.7549C15.3151 22.7737 15.2644 22.7956 15.2169 22.8144C15.2327 22.8082 15.2485 22.8019 15.2675 22.7988C15.2137 22.805 15.1598 22.8144 15.106 22.8207C15.1282 22.8176 15.1503 22.8176 15.1757 22.8207C15.1218 22.8144 15.068 22.805 15.0141 22.7988C15.0331 22.8019 15.049 22.8082 15.068 22.8144C15.0205 22.7956 14.9698 22.7737 14.9223 22.7549C14.9445 22.7643 14.9635 22.7769 14.9825 22.7894C14.9413 22.7581 14.9001 22.7268 14.8589 22.6955C14.8748 22.7111 14.8906 22.7236 14.9033 22.7424C14.8716 22.7017 14.8399 22.661 14.8082 22.6203C14.8304 22.6517 14.8494 22.683 14.8653 22.7174C14.8463 22.6704 14.8241 22.6203 14.8051 22.5734C14.8431 22.6673 14.8653 22.7675 14.8779 22.8676C14.8716 22.8144 14.8621 22.7612 14.8558 22.708C14.8684 22.805 14.8716 22.9021 14.8589 22.9991C14.8653 22.9459 14.8748 22.8927 14.8811 22.8395C14.8716 22.9083 14.8558 22.9772 14.8273 23.0429C14.8463 22.996 14.8684 22.9459 14.8874 22.8989C14.8748 22.9302 14.8558 22.9584 14.8368 22.9866C14.8684 22.9459 14.9001 22.9052 14.9318 22.8645C14.9159 22.8833 14.9033 22.8989 14.8843 22.9146C14.9254 22.8833 14.9666 22.852 15.0078 22.8207C14.9888 22.8332 14.9698 22.8457 14.9508 22.8551C14.9983 22.8363 15.049 22.8144 15.0965 22.7956C15.0743 22.805 15.0553 22.8082 15.0331 22.8144C15.087 22.8082 15.1408 22.7988 15.1947 22.7925C15.1598 22.7956 15.1282 22.7956 15.0933 22.7925C15.1472 22.7988 15.201 22.8082 15.2549 22.8144C15.22 22.8082 15.1884 22.7988 15.1535 22.7863C15.201 22.805 15.2517 22.8269 15.2992 22.8457C15.2549 22.8269 15.2137 22.8019 15.1757 22.7737C15.2169 22.805 15.258 22.8363 15.2992 22.8676C15.2612 22.8395 15.2295 22.805 15.1979 22.7675C15.2295 22.8082 15.2612 22.8489 15.2929 22.8895C15.2612 22.8489 15.2359 22.8019 15.2137 22.7549C15.2327 22.8019 15.2549 22.852 15.2739 22.8989C15.2549 22.8551 15.2454 22.8113 15.2359 22.7643C15.2422 22.8176 15.2517 22.8708 15.258 22.924C15.2549 22.8864 15.2517 22.852 15.2549 22.8144C15.2644 22.6673 15.1788 22.4889 15.0743 22.3856C14.9698 22.2823 14.7956 22.2009 14.6404 22.2072C14.482 22.2134 14.3173 22.2666 14.2064 22.3856C14.1747 22.4263 14.1431 22.467 14.1114 22.5077C14.067 22.6078 14.0385 22.708 14.0385 22.8176Z" fill="#3A0C93"/>
<path d="M9.21288 20.1476C6.99244 18.8485 4.98106 17.1582 3.63487 15.0296C2.2855 12.9042 1.60765 9.78647 2.14613 7.35427C2.68461 4.92207 3.68871 3.48529 6.14988 2.67143C8.60788 1.85756 12.4754 2.38344 13.942 4.43688C15.2312 6.23678 15.209 8.6095 16.1434 10.5972C17.157 12.7539 19.33 14.7166 18.8263 17.0299C18.687 17.6653 18.348 18.2475 17.9299 18.7609C16.6819 20.2853 14.6864 21.2275 12.6623 21.2463C10.6383 21.2651 9.36809 20.2665 7.44223 18.9894" fill="#FFB701"/>
<path d="M7.49794 19.0081L7.63097 19.0957C12.6863 18.9361 16.1358 15.4834 17.8082 13.3204C17.425 12.7069 17.0037 12.0934 16.6331 11.4736C13.2438 16.9108 8.02058 17.0705 4.74219 16.4976C5.54674 17.4336 6.48433 18.2693 7.49794 19.0081Z" fill="#3A0C93"/>
<path d="M6.489 18.5011C6.29578 18.4948 6.10256 18.4886 5.90934 18.4823C5.83015 18.4792 5.7573 18.4823 5.67811 18.4979C5.58942 18.5167 5.50073 18.5668 5.43738 18.6294C5.40253 18.6638 5.39937 18.6545 5.35502 18.7327C5.33602 18.7671 5.30751 18.8235 5.29801 18.8642C5.26633 18.9988 5.27583 19.0958 5.29484 19.2304C5.30751 19.3149 5.34552 19.3932 5.38036 19.4714C5.40253 19.5215 5.42787 19.5654 5.45955 19.6092C5.57675 19.7657 5.70662 19.8972 5.88083 19.9942C6.08038 20.1069 6.31161 20.1632 6.53968 20.1664C6.66321 20.1664 6.79308 20.1131 6.8786 20.0286C6.96096 19.9472 7.02431 19.8126 7.01797 19.6937C7.01164 19.5716 6.97046 19.4433 6.8786 19.3588C6.78358 19.2742 6.66954 19.221 6.53968 19.221C6.50167 19.221 6.46366 19.2179 6.42248 19.2148C6.46366 19.221 6.508 19.2273 6.54918 19.2304C6.47316 19.221 6.40031 19.1991 6.33062 19.1709C6.36863 19.1866 6.40664 19.2022 6.44465 19.2179C6.3813 19.1897 6.32112 19.1553 6.2641 19.1115C6.29578 19.1365 6.32745 19.1616 6.36229 19.1866C6.30845 19.1459 6.26093 19.0958 6.21659 19.0426C6.24193 19.0739 6.26727 19.1052 6.29261 19.1396C6.25777 19.0958 6.22926 19.0457 6.20709 18.9957C6.22292 19.0332 6.23876 19.0708 6.2546 19.1083C6.23559 19.0676 6.22292 19.0238 6.21659 18.9769C6.22292 19.0176 6.22926 19.0614 6.23243 19.1021C6.22926 19.0708 6.22926 19.0395 6.23243 19.005C6.22609 19.0457 6.21976 19.0896 6.21659 19.1303C6.21659 19.1209 6.21976 19.1146 6.22292 19.1052C6.20709 19.1428 6.19125 19.1803 6.17541 19.2179C6.17858 19.2148 6.17858 19.2116 6.18175 19.2085C6.15641 19.2398 6.13107 19.2711 6.10572 19.3055C6.10889 19.3024 6.11206 19.2993 6.11523 19.2993C6.08355 19.3243 6.05188 19.3494 6.01703 19.3744C6.0202 19.3744 6.02337 19.3713 6.02654 19.3713C5.98853 19.3869 5.95052 19.4026 5.91251 19.4182C5.91884 19.4151 5.92518 19.4151 5.93151 19.412C5.89033 19.4182 5.84599 19.4245 5.80481 19.4276C5.85549 19.4245 5.90934 19.4276 5.96319 19.4308C6.02337 19.4339 6.08038 19.4339 6.14057 19.437C6.25777 19.4401 6.3718 19.4433 6.489 19.4464C6.60936 19.4495 6.74557 19.3901 6.82792 19.3087C6.91028 19.2273 6.97363 19.0927 6.96729 18.9737C6.96096 18.8517 6.91978 18.7233 6.82792 18.6388C6.7329 18.5512 6.62203 18.5042 6.489 18.5011Z" fill="#3A0C93"/>
<path d="M2.58165 11.7521L4.96047 12.2623L3.59209 18.5886L1.15943 17.709C0.937706 17.6276 0.814173 17.4053 0.868021 17.1831L2.14137 12.015C2.18571 11.8272 2.3821 11.7083 2.58165 11.7521Z" fill="#B394FF"/>
<path d="M4.96017 12.2623L10.5952 13.4361C10.8359 13.4862 10.988 13.7116 10.9373 13.9401L9.93635 18.5791C9.87934 18.8389 9.6291 19.0205 9.35036 19.0017L3.5918 18.5885" fill="#886CE0"/>
<path d="M3.83253 13.092L4.70043 13.2454L6.84168 13.596L6.54077 14.9013L4.49137 14.4756L3.5918 14.222L3.83253 13.092Z" fill="#3A0C93"/>
<path d="M4.74161 13.2577L4.49138 14.5004L3.5918 14.2343L3.83253 13.1199L4.74161 13.2577Z" fill="#6549DB"/>
<path d="M18.4873 18.1317C19.0955 18.9205 19.843 19.5653 20.7331 20.0317C21.8132 20.5983 21.0308 22.3168 19.9444 21.7471C18.7502 21.1179 17.7429 20.2853 16.9257 19.2273C16.1877 18.2631 17.7493 17.1676 18.4873 18.1317Z" fill="#3A0C93"/>
<path d="M19.383 20.9738C19.3672 21.0145 19.3545 21.0551 19.3482 21.0958C19.3324 21.1866 19.3134 21.2899 19.3229 21.3838C19.3387 21.5748 19.3767 21.7313 19.4686 21.9034C19.5541 22.0662 19.6935 22.2008 19.8487 22.3041C20.0007 22.4043 20.2098 22.4669 20.3935 22.4481C20.5392 22.4356 20.6722 22.4074 20.7989 22.3292C20.8813 22.2759 20.9605 22.2165 21.0238 22.1413C21.084 22.0693 21.1442 21.9942 21.1917 21.9128C21.2392 21.8283 21.2772 21.7344 21.3121 21.6436C21.3659 21.5028 21.3849 21.3525 21.4039 21.2054C21.4229 21.052 21.4166 20.9143 21.3881 20.764C21.3691 20.667 21.3279 20.5668 21.2709 20.4854C21.1917 20.3728 21.0998 20.2695 20.9731 20.2037C20.7261 20.0754 20.3967 20.0409 20.1559 20.2069C20.0229 20.2976 19.9184 20.4103 19.874 20.5668C19.8328 20.7108 19.8518 20.9049 19.9342 21.0332C20.0197 21.1616 20.1433 21.2774 20.2985 21.3118C20.4505 21.3463 20.6374 21.3431 20.7704 21.2524C20.7831 21.243 20.7926 21.2367 20.8053 21.2304C20.7578 21.2492 20.7071 21.2711 20.6596 21.2899C20.6722 21.2868 20.6849 21.2837 20.7007 21.2805C20.6469 21.2868 20.593 21.2962 20.5392 21.3024C20.555 21.3024 20.5677 21.3024 20.5804 21.3024C20.5265 21.2962 20.4727 21.2868 20.4188 21.2805C20.4378 21.2837 20.4568 21.2868 20.4727 21.293C20.4252 21.2743 20.3745 21.2524 20.327 21.2336C20.3491 21.243 20.3713 21.2555 20.3903 21.268C20.3491 21.2367 20.308 21.2054 20.2668 21.1741C20.2826 21.1866 20.2953 21.1991 20.308 21.2148C20.2763 21.1741 20.2446 21.1334 20.2129 21.0927C20.2256 21.1115 20.2383 21.1303 20.2478 21.1522C20.2288 21.1052 20.2066 21.0551 20.1876 21.0082C20.2003 21.0426 20.2098 21.0771 20.2129 21.1115C20.2066 21.0583 20.1971 21.0051 20.1908 20.9518C20.2003 21.0364 20.1908 21.124 20.1813 21.2085C20.1876 21.1553 20.1971 21.1021 20.2034 21.0489C20.1876 21.1522 20.1654 21.2555 20.1242 21.3525C20.1433 21.3056 20.1654 21.2555 20.1844 21.2085C20.1559 21.2774 20.1179 21.34 20.0736 21.3995C20.1052 21.3588 20.1369 21.3181 20.1686 21.2774C20.1433 21.3087 20.1147 21.34 20.0831 21.365C20.1242 21.3337 20.1654 21.3024 20.2066 21.2711C20.1844 21.2899 20.1591 21.3024 20.1337 21.315C20.1813 21.2962 20.2319 21.2743 20.2795 21.2555C20.2636 21.2617 20.2478 21.2649 20.2288 21.268C20.2826 21.2617 20.3365 21.2524 20.3903 21.2461C20.3681 21.2492 20.3428 21.2492 20.3206 21.2492C20.3745 21.2555 20.4283 21.2649 20.4822 21.2711C20.4537 21.268 20.4252 21.2586 20.3967 21.2492C20.4442 21.268 20.4948 21.2899 20.5424 21.3087C20.5075 21.293 20.479 21.2774 20.4473 21.2555C20.4885 21.2868 20.5297 21.3181 20.5709 21.3494C20.536 21.3212 20.5043 21.293 20.4758 21.2586C20.5075 21.2993 20.5392 21.34 20.5709 21.3807C20.5424 21.3431 20.517 21.3024 20.498 21.2555C20.517 21.3024 20.5392 21.3525 20.5582 21.3995C20.5392 21.3557 20.5265 21.3087 20.5202 21.2617C20.5265 21.315 20.536 21.3682 20.5424 21.4214C20.536 21.3682 20.536 21.315 20.5424 21.2617C20.536 21.315 20.5265 21.3682 20.5202 21.4214C20.5265 21.3776 20.5392 21.3369 20.555 21.2993C20.6089 21.1647 20.5645 20.955 20.4948 20.8329C20.422 20.7077 20.2763 20.5887 20.1306 20.5543C19.9754 20.5199 19.798 20.5261 19.6586 20.6138C19.6174 20.6451 19.5763 20.6764 19.5351 20.7077C19.4622 20.7828 19.4116 20.8705 19.383 20.9738Z" fill="#3A0C93"/>
<path d="M3.32004 10.3341C3.73499 11.2043 4.72326 11.7583 5.66401 11.799C6.16131 11.8209 9.00259 11.7959 9.36368 11.7552C9.98135 11.6863 10.1397 11.5705 10.58 11.2669C11.3117 10.7629 11.6475 9.77374 11.7647 8.92857C11.8819 8.06149 11.885 7.10364 11.4511 6.30856C10.5832 4.71526 8.52112 4.39911 6.88985 4.41476C6.04728 4.42415 5.09386 4.67457 4.39383 5.19419C3.64946 5.74824 3.32004 6.4682 3.17117 7.34154C3.10782 7.82673 3.07614 8.30878 3.08564 8.7971C3.09515 9.30107 3.10148 9.87391 3.32004 10.3341Z" fill="#FEFDFF"/>
<path d="M11.1694 15.6586C10.0481 17.1737 8.62584 18.9736 6.53527 18.8421C6.16784 18.8202 5.85742 19.1676 5.85742 19.512C5.85742 19.8939 6.16784 20.1599 6.53527 20.1818C7.78011 20.2601 8.97427 19.7593 9.94353 19.0143C10.9065 18.2755 11.6287 17.2989 12.3413 16.3348C12.5567 16.0437 12.392 15.5866 12.0975 15.4176C11.7554 15.2204 11.3879 15.3644 11.1694 15.6586Z" fill="#3A0C93"/>
<path d="M6.54156 19.6527C6.70627 19.6527 6.85197 19.612 7.00085 19.5431C7.04519 19.5243 7.08637 19.4993 7.12755 19.468C7.1909 19.421 7.25425 19.3772 7.30176 19.3177C7.40312 19.1956 7.48548 19.0642 7.52349 18.9077C7.5615 18.748 7.5615 18.5884 7.52032 18.4287C7.49498 18.3317 7.41896 18.2378 7.33344 18.1877C7.24475 18.1376 7.11805 18.1157 7.01985 18.147C6.92166 18.1783 6.82663 18.2378 6.77595 18.3317C6.72527 18.4287 6.70944 18.532 6.73478 18.6416C6.74111 18.6635 6.74428 18.6854 6.74745 18.7073C6.74111 18.6729 6.73794 18.6353 6.73161 18.6009C6.73794 18.651 6.73794 18.6979 6.73161 18.748C6.73794 18.7136 6.74111 18.676 6.74745 18.6416C6.74111 18.6917 6.72527 18.7386 6.70944 18.7824C6.72211 18.7511 6.73794 18.7198 6.75061 18.6854C6.73161 18.7324 6.70627 18.7731 6.67459 18.8137C6.69677 18.7856 6.71577 18.7605 6.73794 18.7324C6.70627 18.7699 6.67459 18.8044 6.63341 18.8325C6.66192 18.8106 6.68726 18.7918 6.71577 18.7699C6.67459 18.8012 6.62708 18.8263 6.57957 18.8482C6.61124 18.8357 6.64292 18.82 6.67776 18.8075C6.62391 18.8294 6.57006 18.845 6.51305 18.8513C6.54789 18.845 6.5859 18.8419 6.62074 18.8357C6.5954 18.8388 6.5669 18.8419 6.54156 18.8419C6.43703 18.8419 6.32933 18.8857 6.25331 18.9609C6.18363 19.0297 6.12978 19.1456 6.13295 19.2457C6.13611 19.349 6.17096 19.4586 6.25331 19.5306C6.3325 19.6088 6.43069 19.6527 6.54156 19.6527Z" fill="#3A0C93"/>
<path d="M17.9381 18.7639C18.3562 18.2505 18.6983 17.6683 18.8345 17.0329C18.9866 16.3379 18.8916 15.6743 18.6635 15.0264C16.1358 19.1458 12.5597 20.2758 9.54102 20.3447C10.5134 20.905 11.4574 21.2587 12.6705 21.2493C14.6946 21.2305 16.6901 20.2883 17.9381 18.7639Z" fill="#3A0C93"/>
<path fill-rule="evenodd" clip-rule="evenodd" d="M12.2414 15.1389C12.349 15.0384 12.5178 15.0441 12.6183 15.1518C13.0013 15.5618 12.9856 16.0743 12.8132 16.5398C12.643 16.9996 12.3054 17.4655 11.9501 17.872C11.5914 18.2825 11.1978 18.6509 10.8957 18.9156C10.7442 19.0483 10.6148 19.1558 10.523 19.2303C10.477 19.2675 10.4405 19.2966 10.4151 19.3165C10.4025 19.3264 10.3926 19.3341 10.3859 19.3394L10.378 19.3454L10.3758 19.3471L10.3752 19.3476C10.3751 19.3476 10.3749 19.3478 10.2217 19.1476L10.3749 19.3478C10.2579 19.4373 10.0906 19.4151 10.0011 19.2981C9.91158 19.1811 9.93383 19.0138 10.0508 18.9243L10.0526 18.9229L10.0591 18.9179C10.0649 18.9133 10.0738 18.9064 10.0855 18.8972C10.1088 18.8789 10.1433 18.8515 10.187 18.8161C10.2745 18.7451 10.3986 18.6421 10.5442 18.5145C10.8363 18.2586 11.211 17.9073 11.5486 17.521C11.8897 17.1308 12.1766 16.7232 12.3131 16.3546C12.4474 15.9918 12.4205 15.7213 12.2286 15.5158C12.128 15.4082 12.1338 15.2395 12.2414 15.1389Z" fill="#FFB701"/>
<path d="M17.2642 3.61048C16.5863 3.3131 15.8071 3.4164 15.1071 3.58543C14.4673 3.74195 13.8179 3.97358 13.2541 4.31165C12.874 4.54016 13.2224 5.12865 13.6025 4.90014C14.0903 4.60902 14.6351 4.41182 15.1831 4.26783C15.4429 4.19896 15.7058 4.14575 15.9718 4.12071C16.2823 4.0894 16.6243 4.06749 16.9189 4.19583C17.09 4.27096 17.2895 4.24592 17.3909 4.07375C17.4764 3.93289 17.4384 3.6856 17.2642 3.61048Z" fill="#3A0C93"/>
<path d="M17.8441 4.53698C17.3943 4.85314 16.7608 4.7561 16.425 4.32099C16.0893 3.88589 16.1811 3.28175 16.6277 2.9656C17.0775 2.64944 17.711 2.74648 18.0468 3.18158C18.3826 3.61356 18.2939 4.22083 17.8441 4.53698Z" fill="#3A0C93"/>
<path d="M7.55309 7.47018C7.54042 7.7519 7.86351 7.99919 8.27529 8.01797C8.68707 8.03675 9.0355 7.82702 9.04817 7.54217C9.064 7.26045 8.73775 7.01316 8.32597 6.99438C7.91419 6.9756 7.56893 7.18845 7.55309 7.47018Z" fill="#221F20"/>
<path d="M4.23282 7.52947C4.22015 7.78928 4.51473 8.01779 4.89166 8.03657C5.2686 8.05535 5.58535 7.85814 5.59802 7.59833C5.61069 7.33852 5.31611 7.11001 4.93917 7.09123C4.56224 7.06932 4.24549 7.26653 4.23282 7.52947Z" fill="#221F20"/>
<path fill-rule="evenodd" clip-rule="evenodd" d="M7.98782 8.94055C8.09888 9.03727 8.1105 9.20571 8.01378 9.31678C7.63897 9.74714 7.1158 10.0317 6.52218 10.0499C5.92833 10.0681 5.38746 9.81577 4.98188 9.40793C4.87803 9.30351 4.8785 9.13466 4.98293 9.03081C5.08735 8.92696 5.2562 8.92743 5.36005 9.03186C5.67667 9.35024 6.07972 9.52988 6.50582 9.5168C6.93214 9.50372 7.32121 9.29992 7.61159 8.96651C7.70831 8.85544 7.87676 8.84382 7.98782 8.94055Z" fill="#221F20"/>
<path d="M10.8625 9.02581C10.8467 9.36388 10.4476 9.62056 9.96926 9.59552C9.49413 9.57361 9.12036 9.27936 9.13937 8.9413C9.1552 8.60323 9.55431 8.34655 10.0326 8.37159C10.5077 8.39663 10.8815 8.68775 10.8625 9.02581Z" fill="#FFB701"/>
<path d="M4.44712 8.94452C4.43445 9.19181 4.20956 9.38588 3.94032 9.37023C3.67424 9.35771 3.46835 9.14485 3.48102 8.89443C3.49369 8.64714 3.71859 8.45307 3.98783 8.46872C4.2539 8.48124 4.45979 8.6941 4.44712 8.94452Z" fill="#FFB701"/>
<defs>
<clipPath id="clip0_993_6212">
<rect width="2.88033" height="3.84044" fill="white" transform="translate(0 12.1554)"/>
</clipPath>
</defs>
</svg>
